<svg xmlns="http://www.w3.org/2000/svg" viewBox="0 0 600 108">
  <title>
    Group 3
  </title>
  <g fill="none" transform="translate(0 .3)">
    <path fill="#000" d="M0,36.4 L0,36.4 C0,36.4 35.4,26.2 63.7,0 C63.7,0 81.8,20.9 130.2,37.8 C130.2,37.8 113.3,55.9 104.3,69.2 C95.5,82.3 92.2,89.9 71.5,107 C65.6,100.3 53,88.5 30.6,72.1 C9,56.4 4.8,44 0,36.4 Z"/>
    <path fill="#FFF" d="M8.3,38.6 L8.3,38.6 C8.3,38.6 38,29.1 63.4,7 C63.4,7 79.3,26 121.4,40.3 C121.4,40.3 108.3,55.5 100.2,66.7 C92.3,77.9 88.3,86.2 71.7,99.5 C71.7,99.5 55.1,82.6 36.5,70 C18.1,57.3 12.4,45.2 8.3,38.6 Z"/>
    <path fill="#409A3C" d="M54,20 L54,20 L63.5,13.3 C63.5,13.3 71.8,23.8 83.9,29.2 C83.9,29.2 74.2,30.4 68,24.2 C63,19.5 57.5,19.5 54,20 Z"/>
    <path fill="#ED1B2F" d="M44.2,26.7 L44.2,26.7 L50.4,22.4 C50.4,22.4 60.9,21.4 63.9,25.3 C67,29.1 64.6,36.2 96.5,34.6 L113.9,41.7 L111.7,43.6 C111.7,43.6 83.2,42.4 68.9,35.5 C54.7,28.8 57.1,29.5 44.2,26.7 Z"/>
    <path fill="#EC008C" d="M107.2,47.3 L107.2,47.3 C107.2,47.3 96.7,61.1 94.3,64.9 C94.3,64.9 88.8,62.8 79.1,61.1 C79.1,61.1 76,60.1 76,57.3 C76,54.4 82.9,54.4 72.2,43.5 C72.2,43.5 70.3,40.2 74.3,40.9 C78.5,41.9 83.7,45.7 107.2,47.3 Z"/>
    <path fill="#F58220" d="M16.6,40.9 L16.6,40.9 C16.6,40.9 30.4,37.1 39.9,29.5 C39.9,29.5 43,26.9 47.3,30 C51.6,33.1 48.7,37.4 65.1,37.1 C65.1,37.1 66.7,37.1 66.7,39 C66.7,40.6 64.6,42.1 61.7,42.1 C58.8,42.1 53.6,41.1 49.3,39.7 C45,38.5 40.5,39.5 36.2,46.1 C31.2,53.7 29.3,56.6 29.3,56.6 C29.3,56.6 20.7,48.1 16.6,40.9 Z"/>
    <path fill="#FFCB05" d="M33.1,59 L33.1,59 C33.1,59 36.4,53.5 43.3,52.8 C50.2,52.1 51.9,52.3 57.1,46.6 C62.3,40.9 73.3,47.1 73.7,49 C73.9,50.6 73.4,52.5 69.4,52.1 C64.2,51.6 60.1,55.7 64.4,60.2 C69.4,65.4 81.8,57.8 86,76.6 L71.7,90.6 C71.8,90.6 44,66.1 33.1,59 Z"/>
    <path fill="#409A3C" d="M39.5,46.6 L39.5,46.6 C39.5,46.6 39.7,48 41.4,48.5 C43,48.7 43,49.2 43.5,49.5 C44,49.7 46.6,51.1 51.4,46.6 C51.4,46.6 54,43.5 49,42.5 C49,42.5 46.1,42 42.6,43.7 C42.6,43.8 39.5,45.2 39.5,46.6 Z"/>
    <g fill="#000" transform="translate(122.7 11.7)">
      <polygon points="12.6 .7 12.6 .7 0 60.8 12.6 60.8 17.8 34.5 38.2 34.5 40.4 25.2 20.2 25.2 23 9.7 44.4 9.7 46.6 .7"/>
      <path d="M45.6,48.5 L45.6,48.5 C45.1,54 51.3,54.2 51.3,54.2 C61,54.5 65.1,40.9 65.1,40.9 C45.8,39.7 45.6,48.5 45.6,48.5 Z M44.6,17.8 L44.6,17.8 C44.6,17.8 51.3,15.6 60.1,15.6 C60.1,15.6 76,15.6 77.2,27.3 C77.2,27.3 78.4,28.3 71.7,60.8 L62.3,60.8 L63.3,55.8 C63.3,55.8 57.8,62 48.3,61.7 C48.3,61.7 32.8,62.2 34.5,48.6 C34.5,48.6 34.2,31.2 65.9,34.3 C65.9,34.3 69.5,24.1 58.3,23.6 C58.3,23.6 49.5,23.1 42.6,27.7 L44.6,17.8 Z"/>
      <polygon points="297.6 .2 297.6 .2 284.7 60.8 318.3 60.8 319.9 53.2 294.7 53.2 299 33.3 321.6 33.3 323.5 25.7 300.7 25.4 305 7.1 328.7 7.1 330.4 .2"/>
      <path d="M332.5 40.6L332.5 40.6C331.5 54.4 342 55.8 342 55.8 356.7 55.5 358.4 35.6 358.4 35.6 358.9 22.8 347.5 22.3 347.5 22.3 334.2 22.6 332.5 40.6 332.5 40.6zM366-1.77635684e-14L366-1.77635684e-14 374.1-1.77635684e-14 361.7 60.8C361.7 61.1 353.8 60.8 353.8 60.8L354.5 55.1C354.5 55.1 351.9 61.5000833 340.7 61.5000833 340.7 61.5000833 322.6 61.7 323.1 42.5 323.1 42.5 324.3 16.1 346.4 15.9 346.4 15.9 358 15.2 360.7 24.9L366-1.77635684e-14zM424.5 34.7L424.5 34.7 447.6 34.7C447.6 34.7 450.7 22.8 438.6 22.3 438.5 22.3 427.8 21.6 424.5 34.7zM423.3 41.1L423.3 41.1C421.6 48.5 424 53.7 430.9 55.4 439.2 57.5 449.7 53.2 449.9 53.2L448.3 60.6C430 66 411.2 61.1 415 38 418.8 15 438.5 15.9 438.5 15.9 461.8 15.9 454.9 41.1 454.9 41.1L423.3 41.1 423.3 41.1zM378.7 37.3L378.7 37.3C375.6 54.9 387.7 55.4 387.7 55.4 401.2 55.6 403.9 39.2 403.9 39.2 406.3 22.6 393.9 22.6 393.9 22.6 382 22.3 378.7 37.3 378.7 37.3zM408.6 16.1L408.6 16.1 416 16.1 407.4 59.4C407.4 59.4 406.2 70.1 399.8 75.8 393.1 81.5 380.6 83.2 366.8 77.7L368.7 70.6C368.7 70.6 376.6 74.6 383.2 74.6 390.1 74.4 397.5 72.7 400.6 54.9 400.6 54.9 395.4 63.2 384.2 61.8 373 60.2 366.4 50.4 370.9 33.8 375.2 17.2 389.2 16.2 393.2 16.2 397 16 404.6 17.4 407 25.2L408.6 16.1zM84.1 15.9L84.1 15.9C84.1 15.9 83.4 24.9 75.1 60.8L86.7 60.8 90 45.6 92.2 36.8C92.2 36.8 96 23.2 109.3 26.8L111.7 15.9C111.7 15.9 100.8 12.3 93.6 24.9L95.2 15.9 84.1 15.9zM210.1 34.2L210.1 34.2C212 22.8 202.7 23 202.7 23 192.5 23 190.1 34.2 190.1 34.2L210.1 34.2zM215.1 49.7L215.1 49.7 213.2 59C213.2 59 196.3 65.7 184.9 57.8 184.9 57.8 171.3 49.5 182 27.4 182 27.4 187.7 15.3 203.9 15.3 203.9 15.3 225.5 13.9 219.3 41.9L188.9 41.9C188.9 41.9 186.8 48.6 194.4 52.1 194.4 52 203.9 55.6 215.1 49.7zM104.3 60.8L104.3 60.8 116 60.8 121 37.8C121 37.8 122.9 25.4 132.4 24.5 132.4 24.5 139.3 24 137.6 32.8L131.9 60.8 143.5 60.8 148.3 39C148.3 39 151.2 24.3 160 24.5 160 24.5 166.9 24 165.2 32.6L159.5 60.9 171.1 60.9 176.4 36.4C176.4 36.4 178.3 28.5 176.9 24 175.5 19.7 172.1 15.2 164.8 15 157.4 14.5 151.5 18.8 148.6 24.5 148.6 24.5 149.8 15.9 137.2 15 137.2 15 128.2 14.3 123.4 22.1 123.4 22.1 124.4 19.2 124.6 15.7L113.4 15.7C113.4 15.7 110.7 30.7 104.3 60.8zM227.4 15.9L227.4 15.9C227.4 15.9 226.7 24.9 218.4 60.8L230.1 60.8 233.4 45.6 235.5 36.8C235.5 36.8 239.3 23.2 252.6 26.8L255 15.9C255 15.9 244.1 12.3 236.9 24.9L238.6 15.9 227.4 15.9zM251.9 49.9L251.9 49.9C256 52.3 260 53.5 263.6 53.5 268.4 53.5 271.7 51.3 271.7 48 271.7 46.4 271.2 45.4 269.5 44.2 268.5 43.5 268.5 43.5 263.8 40.9 258.1 37.6 255.7 34.2 255.7 29.7 255.7 20.9 263.3 15.4 275.2 15.4 280 15.4 283.8 16.1 288 17.5L285.4 26.1C281.8 24.5 279.4 24 276.4 24 270.9 24 267.6 25.9 267.6 29 267.6 31.4 268.3 31.9 274.7 35.2 281.1 38.5 283.5 41.9 283.5 47.3 283.5 56.3 275.6 62 263.5 62 257.8 62 253 61 249.2 59.1L251.9 49.9z"/>
      <polygon points="459.2 27.1 459.2 27.1 459.2 17.8 455.9 17.8 455.9 15.9 464.9 15.9 464.9 17.8 461.6 17.8 461.6 27.1"/>
      <polygon points="466.4 27.1 466.4 27.1 466.4 15.9 469.7 15.9 471.8 23.5 473.7 15.9 477.3 15.9 477.3 27.1 475.1 27.1 475.1 18.3 472.8 27.1 470.6 27.1 468.5 18.3 468.5 27.1"/>
    </g>
  </g>
</svg>
