<svg xmlns="http://www.w3.org/2000/svg" viewBox="0 0 194 150">
  <title>
    flat-us-army-corps-engineers
  </title>
  <path fill="#151515" d="M87.8607362,107.608402 C88.9220349,107.608402 89.7336879,107.968439 90.2646417,108.90857 L90.2956952,108.90857 L90.2956952,107.827847 L92.4030703,107.827847 L92.4030703,115.411854 C92.4030703,116.743808 91.9348324,119 88.2199824,119 C86.6277299,119 84.7706094,118.24814 84.6610088,116.399053 L86.8621533,116.399053 C87.0649144,117.229767 87.7359133,117.511561 88.5165128,117.511561 C89.7495191,117.511561 90.3115264,116.665566 90.2956952,115.505378 L90.2956952,114.439938 L90.2646417,114.439938 C89.7811815,115.286544 88.8130432,115.693649 87.8455139,115.693649 C85.4257771,115.693649 84.3955319,113.845173 84.3955319,111.619545 C84.3955319,109.519838 85.5980936,107.608402 87.8607362,107.608402 Z M49.6472845,107.608402 C52.1918441,107.608402 53.8309813,109.300393 53.8309813,111.886669 C53.8309813,114.455831 52.1918441,116.148433 49.6472845,116.148433 C47.119165,116.148433 45.4800278,114.455831 45.4800278,111.886669 C45.4800278,109.300393 47.119165,107.608402 49.6472845,107.608402 Z M111.899791,107.608402 C114.646503,107.608402 115.973888,109.926943 115.817402,112.419084 L109.995786,112.419084 C110.057893,113.828669 110.744723,114.471724 111.978339,114.471724 C112.86793,114.471724 113.585204,113.923416 113.726467,113.421564 L115.677357,113.421564 C115.052634,115.333001 113.726467,116.148433 111.899791,116.148433 C109.355841,116.148433 107.778811,114.393481 107.778811,111.886669 C107.778811,109.457489 109.449001,107.608402 111.899791,107.608402 Z M121.093451,107.608402 C123.840772,107.608402 125.168157,109.926943 125.011671,112.419084 L119.189446,112.419084 C119.252162,113.828669 119.938992,114.471724 121.171999,114.471724 C122.06159,114.471724 122.779473,113.923416 122.920127,113.421564 L124.871017,113.421564 C124.246903,115.333001 122.920127,116.148433 121.093451,116.148433 C118.55011,116.148433 116.973079,114.393481 116.973079,111.886669 C116.973079,109.457489 118.64327,107.608402 121.093451,107.608402 Z M136.17327,107.608402 C137.936621,107.608402 139.559927,108.203777 139.731635,110.193456 L137.624869,110.193456 C137.562153,109.332179 136.906376,109.09684 136.109945,109.09684 C135.610654,109.09684 134.877548,109.190364 134.877548,109.849312 C134.877548,110.64824 136.126385,110.758268 137.390445,111.055344 C138.686167,111.353032 139.950227,111.823098 139.950227,113.327429 C139.950227,115.458311 138.108329,116.148433 136.266431,116.148433 C134.393479,116.148433 132.567412,115.443029 132.473643,113.296254 L134.581018,113.296254 C134.59624,114.268171 135.407893,114.659994 136.282262,114.659994 C136.922207,114.659994 137.733251,114.409374 137.733251,113.625117 C137.733251,112.951499 136.813216,112.716772 135.220963,112.371405 C133.941072,112.090222 132.660572,111.635438 132.660572,110.209349 C132.660572,108.141428 134.440364,107.608402 136.17327,107.608402 Z M143.941514,111.013167 C145.30117,111.013167 146.513474,111.994864 146.513474,113.521201 C146.513474,115.054262 145.30117,116.043295 143.941514,116.043295 C142.581249,116.043295 141.368945,115.054262 141.368945,113.521201 C141.368945,111.994864 142.581249,111.013167 143.941514,111.013167 Z M103.299192,107.608402 C105.655604,107.608402 106.248665,108.939744 106.248665,110.945316 L106.248665,115.928987 L104.032298,115.928987 L104.032298,111.353032 C104.032298,110.021689 103.641998,109.363353 102.611753,109.363353 C101.4098,109.363353 100.894678,110.036971 100.894678,111.682506 L100.894678,115.928987 L98.6783111,115.928987 L98.6783111,107.827847 L100.785686,107.827847 L100.785686,108.956249 L100.832571,108.956249 C101.394578,108.046681 102.362108,107.608402 103.299192,107.608402 Z M131.27169,107.608402 C131.428175,107.608402 131.615105,107.639576 131.755759,107.686033 L131.755759,109.755176 C131.552998,109.708109 131.224805,109.676323 130.959328,109.676323 C129.336022,109.676323 128.774624,110.851792 128.774624,112.277881 L128.774624,115.928987 L126.558257,115.928987 L126.558257,107.827847 L128.665023,107.827847 L128.665023,109.332179 L128.696686,109.332179 C129.102208,108.313194 130.195169,107.608402 131.27169,107.608402 Z M96.6957588,107.827847 L96.6957588,115.928987 L94.479392,115.928987 L94.479392,107.827847 L96.6957588,107.827847 Z M79.7746507,107.608402 C82.1316715,107.608402 82.7253412,108.939744 82.7253412,110.945316 L82.7253412,115.928987 L80.5083655,115.928987 L80.5083655,111.353032 C80.5083655,110.021689 80.1180658,109.363353 79.0884294,109.363353 C77.8858678,109.363353 77.3713541,110.036971 77.3713541,111.682506 L77.3713541,115.928987 L75.1549873,115.928987 L75.1549873,107.827847 L77.2617535,107.827847 L77.2617535,108.956249 L77.3086382,108.956249 C77.8706455,108.046681 78.8381748,107.608402 79.7746507,107.608402 Z M58.4518625,104.740942 C58.8421623,104.740942 59.2476843,104.787398 59.6221529,104.803291 L59.6221529,106.464107 C59.3572849,106.432933 59.091808,106.41704 58.8104999,106.41704 C58.218048,106.41704 57.9677934,106.66766 57.9677934,107.341889 L57.9677934,107.827847 L59.49733,107.827847 L59.49733,109.315674 L57.9677934,109.315674 L57.9677934,115.928987 L55.7514266,115.928987 L55.7514266,109.315674 L54.424651,109.315674 L54.424651,107.827847 L55.7514266,107.827847 L55.7514266,107.201297 C55.7514266,105.775208 56.6410178,104.740942 58.4518625,104.740942 Z M73.3745871,104.740942 L73.3745871,106.808863 L67.490255,106.808863 L67.490255,109.206869 L72.890518,109.206869 L72.890518,111.118305 L67.490255,111.118305 L67.490255,113.860455 L73.49941,113.860455 L73.49941,115.928987 L65.0394648,115.928987 L65.0394648,104.740942 L73.3745871,104.740942 Z M143.941514,111.551083 C142.889958,111.551083 142.052122,112.378129 142.052122,113.521201 C142.052122,114.670997 142.889958,115.504767 143.941514,115.504767 C144.979675,115.504767 145.830297,114.670997 145.830297,113.521201 C145.830297,112.378129 144.979675,111.551083 143.941514,111.551083 Z M144.001794,112.109171 C144.705673,112.109171 145.100235,112.331062 145.100235,112.942941 C145.100235,113.461297 144.778741,113.662404 144.363476,113.696024 L145.11424,114.926507 L144.53153,114.926507 L143.847745,113.72292 L143.499458,113.72292 L143.499458,114.926507 L142.94354,114.926507 L142.94354,112.109171 L144.001794,112.109171 Z M49.6472845,109.285111 C48.1494102,109.285111 47.6963946,110.58589 47.6963946,111.886669 C47.6963946,113.170944 48.1494102,114.471724 49.6472845,114.471724 C51.1615989,114.471724 51.6146145,113.170944 51.6146145,111.886669 C51.6146145,110.58589 51.1615989,109.285111 49.6472845,109.285111 Z M88.4075212,109.285111 C87.1586837,109.285111 86.6125076,110.382338 86.6125076,111.58837 C86.6125076,112.747947 87.0490832,114.017551 88.4075212,114.017551 C89.6715809,114.017551 90.2956952,112.935606 90.2956952,111.776641 C90.2956952,110.46058 89.8432884,109.285111 88.4075212,109.285111 Z M143.968305,112.546228 L143.499458,112.546228 L143.499458,113.286474 L143.995097,113.286474 C144.309894,113.286474 144.544317,113.238795 144.544317,112.895874 C144.544317,112.593296 144.222822,112.546228 143.968305,112.546228 Z M111.837076,109.285111 C110.432971,109.285111 110.02684,110.382338 109.995786,111.008888 L113.601645,111.008888 C113.398275,109.880486 112.914206,109.285111 111.837076,109.285111 Z M121.031344,109.285111 C119.626631,109.285111 119.2205,110.382338 119.189446,111.008888 L122.795305,111.008888 C122.591935,109.880486 122.107865,109.285111 121.031344,109.285111 Z M96.6957588,104.740942 L96.6957588,106.574136 L94.479392,106.574136 L94.479392,104.740942 L96.6957588,104.740942 Z M140.917756,91.981936 C143.446485,91.981936 144.585722,94.0345753 144.585722,96.338446 C144.585722,98.5005024 143.3996,100.521967 141.042579,100.521967 C140.07505,100.521967 139.153796,100.098969 138.623452,99.3000415 L138.591789,99.3000415 L138.591789,103.154089 L136.376031,103.154089 L136.376031,92.2013813 L138.482797,92.2013813 L138.482797,93.2356475 L138.513851,93.2356475 C139.044805,92.3731478 139.918565,91.981936 140.917756,91.981936 Z M98.1942419,92.2013813 L100.020309,97.7480309 L100.050754,97.7480309 L101.815323,92.2013813 L104.109627,92.2013813 L100.737584,101.320895 C100.254123,102.621674 99.4893552,103.154089 97.9598185,103.154089 C97.5068029,103.154089 97.0543961,103.122914 96.6019894,103.075846 L96.6019894,101.242652 C97.0233427,101.273827 97.4605271,101.337399 97.8971026,101.320895 C98.661871,101.242652 98.9115167,100.443725 98.661871,99.8012816 L95.8213899,92.2013813 L98.1942419,92.2013813 Z M42.4507902,89.1144758 L42.4507902,96.0719329 C42.4507902,97.2938585 42.7631518,98.5005024 44.7450952,98.5005024 C46.4932241,98.5005024 47.0552314,97.7327492 47.0552314,96.0719329 L47.0552314,89.1144758 L49.5060216,89.1144758 L49.5060216,96.0719329 C49.5060216,99.0964891 47.7262303,100.569035 44.7450952,100.569035 C41.7481289,100.569035 40,99.1117708 40,96.0719329 L40,89.1144758 L42.4507902,89.1144758 Z M114.427911,88.8479628 C116.878092,88.8479628 118.939192,90.2893337 119.235113,92.8749991 L116.86287,92.8749991 C116.706994,91.7631019 115.645695,90.9164951 114.427911,90.9164951 C112.227375,90.9164951 111.399891,92.7967568 111.399891,94.7552608 C111.399891,96.6202407 112.227375,98.5005024 114.427911,98.5005024 C115.926394,98.5005024 116.76971,97.4668475 116.956639,95.9930793 L119.329491,95.9930793 C119.079846,98.7829084 117.1594,100.569035 114.427911,100.569035 C110.978538,100.569035 108.94971,97.9833693 108.94971,94.7552608 C108.94971,91.4336282 110.978538,88.8479628 114.427911,88.8479628 Z M55.4536784,88.8479628 C57.7796458,88.8479628 59.9174655,89.866336 59.9174655,92.4520014 L57.5452224,92.4520014 C57.4672842,91.1041545 56.5149771,90.7600104 55.3446867,90.7600104 C54.5640872,90.7600104 53.6586649,91.0888728 53.6586649,92.0290036 C53.6586649,92.8908921 54.1896187,93.0003091 56.9832151,93.7216059 C57.7948681,93.9251583 60.292543,94.4422913 60.292543,96.9808891 C60.292543,99.0335284 58.6844592,100.569035 55.6564394,100.569035 C53.1904269,100.569035 50.8802908,99.3471091 50.9113443,96.589066 L53.2841963,96.589066 C53.2841963,98.0781159 54.4392644,98.6575983 55.7502088,98.6575983 C56.6087465,98.6575983 57.9196909,98.4069783 57.9196909,97.2626838 C57.9196909,96.05604 56.2501091,95.8524876 54.6109719,95.4135969 C52.9566124,94.9747061 51.2864217,94.3328743 51.2864217,92.232556 C51.2864217,89.9451896 53.4400726,88.8479628 55.4536784,88.8479628 Z M124.684087,91.981936 C127.228038,91.981936 128.867175,93.6739269 128.867175,96.2595923 C128.867175,98.829976 127.228038,100.521967 124.684087,100.521967 C122.155359,100.521967 120.516222,98.829976 120.516222,96.2595923 C120.516222,93.6739269 122.155359,91.981936 124.684087,91.981936 Z M149.221825,91.981936 C150.986394,91.981936 152.6097,92.5779227 152.781408,94.5676014 L150.674033,94.5676014 C150.611926,93.7057129 149.95554,93.4703746 149.160327,93.4703746 C148.661036,93.4703746 147.926712,93.5651212 147.926712,94.222846 C147.926712,95.0223851 149.175549,95.1311908 150.439609,95.4294898 C151.735331,95.7271776 153,96.197243 153,97.7015745 C153,99.8330675 151.158102,100.521967 149.316204,100.521967 C147.443252,100.521967 145.617185,99.8165633 145.522807,97.6703999 L147.630182,97.6703999 C147.646013,98.6410941 148.457666,99.0335284 149.331426,99.0335284 C149.971371,99.0335284 150.783633,98.7829084 150.783633,97.9992623 C150.783633,97.3256445 149.86238,97.0903061 148.270127,96.7455507 C146.990236,96.463756 145.710345,96.0089723 145.710345,94.5834943 C145.710345,92.514962 147.490136,91.981936 149.221825,91.981936 Z M92.0590464,91.981936 C93.7755128,91.981936 95.0085191,92.7814751 95.0085191,94.8805708 L95.0085191,100.302522 L92.7921523,100.302522 L92.7921523,95.7112846 C92.7921523,94.6299507 92.6983829,93.7368876 91.4343232,93.7368876 C90.1854857,93.7368876 89.9516712,94.7711538 89.9516712,95.7895269 L89.9516712,100.302522 L87.7346955,100.302522 L87.7346955,95.7583522 C87.7346955,94.8188327 87.7974114,93.7368876 86.3926976,93.7368876 C85.9555132,93.7368876 84.8942144,94.0192936 84.8942144,95.6018675 L84.8942144,100.302522 L82.6778476,100.302522 L82.6778476,92.2013813 L84.7693916,92.2013813 L84.7693916,93.2979969 L84.8004451,93.2979969 C85.3782836,92.4678944 86.2209901,91.981936 87.2664576,91.981936 C88.2814805,91.981936 89.1869029,92.357866 89.6234784,93.3297828 C90.0917164,92.6243791 90.9350318,91.981936 92.0590464,91.981936 Z M135.017593,91.981936 C135.17347,91.981936 135.361617,92.0137219 135.501662,92.0607896 L135.501662,94.1287106 C135.298292,94.081643 134.970709,94.0504683 134.705841,94.0504683 C133.082534,94.0504683 132.520527,95.2259375 132.520527,96.6520267 L132.520527,100.302522 L130.303552,100.302522 L130.303552,92.2013813 L132.410927,92.2013813 L132.410927,93.7057129 L132.442589,93.7057129 C132.848111,92.6873397 133.941072,91.981936 135.017593,91.981936 Z M71.6404628,89.1144758 L75.8083283,100.302522 L73.2637688,100.302522 L72.4216712,97.8109916 L68.2538056,97.8109916 L67.3794367,100.302522 L64.897593,100.302522 L69.1275656,89.1144758 L71.6404628,89.1144758 Z M81.2566938,91.981936 C81.413179,91.981936 81.6001088,92.0137219 81.7407629,92.0607896 L81.7407629,94.1287106 C81.5380019,94.081643 81.2098091,94.0504683 80.9449411,94.0504683 C79.3216351,94.0504683 78.7596278,95.2259375 78.7596278,96.6520267 L78.7596278,100.302522 L76.543261,100.302522 L76.543261,92.2013813 L78.6500272,92.2013813 L78.6500272,93.7057129 L78.6816896,93.7057129 C79.0872117,92.6873397 80.1801728,91.981936 81.2566938,91.981936 Z M124.684087,93.6586452 C123.185604,93.6586452 122.733198,94.9594244 122.733198,96.2595923 C122.733198,97.5444786 123.185604,98.8452578 124.684087,98.8452578 C126.198402,98.8452578 126.650809,97.5444786 126.650809,96.2595923 C126.650809,94.9594244 126.198402,93.6586452 124.684087,93.6586452 Z M140.433687,93.6586452 C138.982089,93.6586452 138.513851,94.9594244 138.513851,96.2754853 C138.513851,97.5921575 139.013751,98.8452578 140.449519,98.8452578 C141.901117,98.8452578 142.369964,97.5921575 142.369964,96.2754853 C142.369964,94.9905991 141.854232,93.6586452 140.433687,93.6586452 Z M70.376403,91.8719076 L70.3453495,91.8719076 L68.893751,95.9777976 L71.7811168,95.9777976 L70.376403,91.8719076 Z M121.050829,32 C125.252793,32 128.660152,35.4200468 128.660152,39.6377989 L128.660152,73.4611142 C128.660152,77.6788663 125.252793,81.0983018 121.050829,81.0983018 L71.9637844,81.0983018 C67.7618209,81.0983018 64.3556791,77.6788663 64.3556791,73.4611142 L64.3556791,39.6377989 C64.3556791,35.4200468 67.7618209,32 71.9637844,32 L121.050829,32 Z M120.689756,35.8185938 L72.1446253,35.8185938 C70.1629766,35.8185938 68.5394399,37.3848658 68.4367577,39.3490213 L68.431602,39.5467199 L68.431602,73.3706465 C68.431602,75.3582547 69.9912145,76.9892156 71.9476972,77.0923706 L72.1446253,77.09755 L120.689756,77.09755 C122.670226,77.09755 124.294865,75.5307056 124.39762,73.5681751 L124.402779,73.3706465 L124.402779,39.5467199 C124.402779,37.4910242 122.736242,35.8185938 120.689756,35.8185938 Z M120.689756,36.7281612 C122.179647,36.7281612 123.402471,37.9009279 123.491007,39.3753099 L123.496139,39.5467199 L123.496139,73.3706465 C123.496139,74.8663524 122.328497,76.0939487 120.860432,76.1828301 L120.689756,76.1879826 L72.1446253,76.1879826 C70.6535616,76.1879826 69.4306944,75.0157828 69.342157,73.5419885 L69.3370244,73.3706465 L69.3370244,39.5467199 C69.3370244,38.0504254 70.5046671,36.8222404 71.973819,36.7333162 L72.1446253,36.7281612 L120.689756,36.7281612 Z M78.3942926,41.5467901 L75.133676,41.5467901 L75.133676,46.6386561 L76.5822301,47.9113169 L76.5822301,63.7321661 L74.9522262,65.1869849 L74.9522262,70.6419443 L117.882155,70.6419443 L117.863888,65.2047117 L116.070702,63.7321661 L116.088359,48.0023959 L117.537522,46.8202028 L117.519256,41.5467901 L114.258639,41.5467901 L114.258639,44.4564278 L112.827743,44.4564278 L112.810085,41.5467901 L109.368019,41.5467901 L109.368019,44.4564278 L108.100914,44.4564278 L108.100914,41.5467901 L104.839689,41.5467901 L104.839689,46.8202028 L106.651752,48.2572948 L106.651752,55.0032531 L100.854491,54.9855263 L100.854491,52.8393629 L102.666554,51.0208393 L102.666554,46.2749513 L99.0436462,46.2749513 L99.0436462,48.8208843 L97.5944833,48.8392224 L97.5944833,46.2749513 L95.0584482,46.2749513 L95.0584482,48.8208843 L93.6092853,48.8208843 L93.6092853,46.2749513 L90.1489522,46.2749513 L90.1678279,51.5116879 L91.7801738,52.8393629 L91.7978317,55.0032531 L86.0194468,55.0032531 L86.001789,48.2750216 L88.1749244,46.4931742 L88.1749244,41.5467901 L84.5702839,41.5467901 L84.5343593,44.4564278 L83.4474871,44.4564278 L83.4286115,41.5467901 L79.8428466,41.5467901 L79.8428466,44.4564278 L78.3942926,44.4564278 L78.3942926,41.5467901 Z M96.4168862,58.1408939 C98.4014813,58.1408939 100.022262,59.570346 100.124763,61.3688922 L100.12991,61.5499378 L100.12991,68.0966226 L92.7032541,68.0966226 L92.7032541,61.5499378 C92.7032541,59.6672311 94.366747,58.1408939 96.4168862,58.1408939 Z M112.084895,60.2766657 L112.084895,65.5506896 L110.4555,65.5506896 L110.4555,60.2766657 L112.084895,60.2766657 Z M82.3794906,60.2766657 L82.3794906,65.5506896 L80.748269,65.5506896 L80.748269,60.2766657 L82.3794906,60.2766657 Z M105.021139,60.2766657 L105.021139,64.2774175 L103.389917,64.2774175 L103.389917,60.2766657 L105.021139,60.2766657 Z M89.4426375,60.2766657 L89.4426375,64.2774175 L87.8132426,64.2774175 L87.8132426,60.2766657 L89.4426375,60.2766657 Z M112.084895,49.5476824 L112.084895,55.1860223 L110.4555,55.1860223 L110.4555,49.5476824 L112.084895,49.5476824 Z M82.3794906,49.5476824 L82.3794906,55.1860223 L80.748269,55.1860223 L80.748269,49.5476824 L82.3794906,49.5476824 Z"/>
</svg>
