<svg xmlns="http://www.w3.org/2000/svg" viewBox="0 0 194 150">
  <title>
    flat-farmers-edge
  </title>
  <path d="M22.1716667,58 L22.1794879,58.008943 C22.4195607,58.2816277 28.2125184,64.7365319 43.1645025,69.988238 L44.845,61.9401869 L55.6116667,61.9401869 L54.915,64.8 L48.1383333,64.8 L47.2516667,69.7252336 L53.6483333,69.7252336 L52.9516667,72.6803738 L46.4916667,72.6803738 L44.845,81.0373832 L40.855,81.0373832 L43.1400729,70.1083753 C42.4281303,70.8797476 37.660942,76.084979 35.0283333,79.988785 C32.2416667,84.1514019 31.1966667,86.5663551 24.6416667,92 C22.7733333,89.871028 18.7833333,86.1214953 11.69,80.9102804 C4.97666667,76.0138802 3.57114883,72.1276009 2.08428517,69.7020854 L2,69.5663551 C2,69.5663551 13.21,66.3252336 22.1716667,58 Z M22.0766667,60.2242991 C14.1377922,67.1555286 4.87238939,70.1863377 4.63306856,70.263891 L4.62833333,70.2654206 L4.71192762,70.4016426 C6.00529576,72.5263142 7.8556383,76.2933386 13.5583333,80.2429907 C19.252,84.113271 24.3538519,89.2603344 24.687649,89.5991716 L24.705,89.6168224 C29.9616667,85.3906542 31.2283333,82.753271 33.73,79.1943925 C36.295,75.635514 40.4433333,70.8056075 40.4433333,70.8056075 C27.1116667,66.2616822 22.0766667,60.2242991 22.0766667,60.2242991 Z M25.3383333,73.5700935 C25.4016667,74.0785047 25.2433333,74.682243 23.9766667,74.5551402 C22.33,74.3962617 21.0316667,75.6990654 22.3933333,77.128972 C23.9766667,78.7813084 27.9033333,76.3663551 29.2333333,82.3401869 L24.705,86.788785 C24.7361719,86.788785 16.2062805,79.2451204 12.6473291,76.8574158 L12.4816667,76.7476636 C12.4816667,76.7476636 13.5266667,75 15.7116667,74.7775701 C17.8966667,74.5551402 18.435,74.6186916 20.0816667,72.8074766 C21.7283333,70.9962617 25.2116667,72.9663551 25.3383333,73.5700935 Z M179.713333,66.7700935 C187.091667,66.7700935 184.906667,74.7775701 184.906667,74.7775701 L174.9,74.7775701 C174.361667,77.128972 175.121667,78.7813084 177.306667,79.3214953 C179.935,79.988785 183.26,78.6224299 183.323333,78.6224299 L182.816667,80.9738318 C177.021667,82.6897196 171.068333,81.1327103 172.271667,73.7925234 C173.475,66.4841121 179.713333,66.7700935 179.713333,66.7700935 Z M128.001667,66.611215 C129.521667,66.611215 130.725,66.8336449 132.055,67.2785047 L131.231667,70.011215 C130.091667,69.5028037 129.331667,69.3439252 128.381667,69.3439252 C126.64,69.3439252 125.595,69.9476636 125.595,70.9327103 C125.595,71.6953271 125.816667,71.8542056 127.843333,72.9028037 C129.87,73.9514019 130.63,75.0317757 130.63,76.7476636 C130.63,79.6074766 128.128333,81.4186916 124.296667,81.4186916 C122.491667,81.4186916 120.971667,81.1009346 119.768333,80.4971963 L120.623333,77.5738318 C121.921667,78.3364486 123.188333,78.717757 124.328333,78.717757 C125.848333,78.717757 126.893333,78.0186916 126.893333,76.9700935 C126.893333,76.4616822 126.735,76.1439252 126.196667,75.7626168 C125.88,75.5401869 125.88,75.5401869 124.391667,74.7140187 C122.586667,73.6654206 121.826667,72.5850467 121.826667,71.1551402 C121.826667,68.3588785 124.233333,66.611215 128.001667,66.611215 Z M65.2703839,70.1552937 L65.3016667,70.3925234 C65.3016667,70.3925234 65.6816667,70.7102804 63.56,81.0373832 L60.5833333,81.0373832 L60.9,79.4485981 C60.9,79.4485981 59.1583333,81.4186916 56.15,81.3233645 L56.1279794,81.3238177 C55.7734089,81.3289353 51.2627778,81.3127726 51.78,77.1607477 C51.78,77.1607477 51.685,71.6317757 61.7233333,72.6168224 C61.7233333,72.6168224 62.8633333,69.3757009 59.3166667,69.2168224 C59.3166667,69.2168224 56.53,69.0579439 54.345,70.5196262 L54.9783333,67.3738318 C54.9783333,67.3738318 57.1,66.6747664 59.8866667,66.6747664 C59.8866667,66.6747664 64.7051331,66.6747664 65.2703839,70.1552937 Z M110.3,75.0317757 L100.673333,75.0317757 C100.673333,75.0317757 100.008333,77.1607477 102.415,78.2728972 C102.415,78.2418605 105.285038,79.3324768 108.723463,77.636233 L108.97,77.5102804 L108.368333,80.4654206 C108.368333,80.4654206 103.016667,82.5943925 99.4066667,80.0841121 L99.3795141,80.0665471 C99.0198246,79.8272224 95.2588281,77.1175526 98.4883333,70.4242991 C98.4883333,70.4242991 100.293333,66.5794393 105.423333,66.5794393 C105.423333,66.5794393 112.263333,66.1345794 110.3,75.0317757 Z M159.32,61.717757 L155.393333,81.0373832 C155.393333,81.1327103 152.891667,81.0373832 152.891667,81.0373832 L153.113333,79.2261682 C153.113333,79.2261682 152.29,81.259866 148.743333,81.259866 L148.698938,81.2595138 C148.16616,81.2499426 143.019856,81.0077989 143.17,75.2224299 C143.17,75.2224299 143.55,66.8336449 150.548333,66.7700935 C150.548333,66.7700935 154.221667,66.5476636 155.076667,69.6299065 L156.755,61.717757 L159.32,61.717757 Z M92.7924345,66.4728766 L93.0416667,66.4841121 C95.3533333,66.5476636 96.43,67.9775701 96.8733333,69.3439252 C97.3008333,70.7227637 96.7566433,73.1061844 96.7172273,73.2746701 L96.715,73.2841121 L95.0366667,81.0691589 L91.3633333,81.0691589 L93.1683333,72.0766355 C93.7066667,69.3439252 91.5216667,69.5028037 91.5216667,69.5028037 C88.8124074,69.4410177 87.8691268,73.854432 87.8188128,74.0996694 L87.8166667,74.1102804 L86.2966667,81.0373832 L82.6233333,81.0373832 L84.4283333,72.1401869 C84.9666667,69.3439252 82.7816667,69.5028037 82.7816667,69.5028037 C79.8546396,69.7810558 79.2059472,73.5186581 79.1730208,73.7204874 L79.1716667,73.728972 L77.5883333,81.0373832 L73.8833333,81.0373832 L73.9820622,80.5708669 C75.9052073,71.4721202 76.7371133,66.8615435 76.7643093,66.710385 L76.765,66.7065421 L80.3116667,66.7065421 C80.2483333,67.8186916 79.9316667,68.7401869 79.9316667,68.7401869 C81.4516667,66.2616822 84.3016667,66.4841121 84.3016667,66.4841121 C88.203,66.7637383 87.9263975,69.3825582 87.9121775,69.4988121 L87.912,69.5 L88.0136731,69.3104965 C88.9288588,67.6594396 90.6485498,66.4252304 92.7924345,66.4728766 Z M76.2227204,66.7688215 L76.2266667,66.7700935 L75.4666667,70.2336449 C71.3427431,69.1135514 70.1031113,73.2335248 70.0532498,73.4056765 L70.0516667,73.411215 L69.355,76.2074766 L68.31,81.0373832 L64.6366667,81.0373832 C67.1958333,69.9301033 67.4733333,66.9265294 67.4861663,66.7761386 L67.4866667,66.7700935 L71.0016667,66.7700935 L70.495,69.6299065 C72.7302941,65.7046729 76.0917577,66.7272128 76.2227204,66.7688215 Z M145.481667,61.7813084 L144.943333,63.9738318 L137.438333,63.9738318 L136.076667,69.788785 L143.296667,69.8841121 L142.695,72.2990654 L135.538333,72.2990654 L134.176667,78.6224299 L142.156667,78.6224299 L141.65,81.0373832 L131.01,81.0373832 L135.095,61.7813084 L145.481667,61.7813084 Z M121.601054,66.7688215 L121.605,66.7700935 L120.845,70.2336449 C116.721076,69.1135514 115.481445,73.2335248 115.431583,73.4056765 L115.43,73.411215 L114.765,76.2074766 L113.72,81.0373832 L110.015,81.0373832 C112.574167,69.9301033 112.851667,66.9265294 112.8645,66.7761386 L112.865,66.7700935 L116.411667,66.7700935 L115.873333,69.6299065 C118.108627,65.7046729 121.470091,66.7272128 121.601054,66.7688215 Z M150.896667,68.8037383 C146.772743,68.8970794 146.170692,74.3828149 146.147396,74.6113467 L146.146667,74.6186916 C145.83,79.0037383 149.155,79.4485981 149.155,79.4485981 C153.81,79.353271 154.348333,73.0299065 154.348333,73.0299065 C154.506667,68.9626168 150.896667,68.8037383 150.896667,68.8037383 Z M165.59,68.8990654 C161.909302,68.8059552 160.826744,73.3510319 160.778383,73.5624811 L160.776667,73.5700935 C159.795,79.1626168 163.626667,79.3214953 163.626667,79.3214953 C167.901667,79.3850467 168.756667,74.1738318 168.756667,74.1738318 C169.516667,68.8990654 165.59,68.8990654 165.59,68.8990654 Z M55.295515,77.1185441 L55.295,77.128972 C55.1366667,78.8766355 57.1,78.9401869 57.1,78.9401869 C60.1716667,79.035514 61.47,74.7140187 61.47,74.7140187 C55.5766071,74.3463284 55.3072385,76.933292 55.295515,77.1185441 Z M25.5283333,70.9962617 C26.8341515,71.3082413 28.4452259,72.4778812 35.5464718,73.0014913 L35.9466667,73.0299065 C35.9466667,73.0299065 32.6216667,77.4149533 31.8616667,78.6224299 C31.8616667,78.6224299 30.12,77.9551402 27.0483333,77.4149533 C27.0483333,77.4149533 26.0666667,77.0971963 26.0666667,76.2074766 C26.0666667,75.2859813 28.2516667,75.2859813 24.8633333,71.8224299 C24.8633333,71.8224299 24.2616667,70.7738318 25.5283333,70.9962617 Z M16.9783333,67.5327103 C18.34,68.517757 17.4216667,69.8841121 22.615,69.788785 C22.615,69.788785 23.1216667,69.788785 23.1216667,70.3925234 C23.1216667,70.9009346 22.4566667,71.3775701 21.5383333,71.3775701 C20.62,71.3775701 18.9733333,71.0598131 17.6116667,70.6149533 C16.25,70.2336449 14.825,70.5514019 13.4633333,72.6485981 C11.88,75.0635514 11.2783333,75.9850467 11.2783333,75.9850467 L11.2209212,75.9274769 C10.8344136,75.5376397 8.59042087,73.2383396 7.37134542,71.1933022 L7.25666667,70.9962617 L7.28445122,70.9884252 C7.66023256,70.8813261 11.7665891,69.6764616 14.635,67.3738318 C14.635,67.3738318 15.6166667,66.5476636 16.9783333,67.5327103 Z M17.5166667,71.5046729 C19.1,71.8224299 18.2766667,72.8074766 18.2766667,72.8074766 C16.7566667,74.2373832 15.9333333,73.7925234 15.775,73.728972 C15.6166667,73.6336449 15.6166667,73.4747664 15.11,73.411215 C14.6130769,73.2645579 14.5208876,72.8742244 14.509645,72.8150409 L14.5083333,72.8074766 L14.5226433,72.7123001 C14.6435629,72.301173 15.49,71.9154873 15.49,71.8859813 C16.5983333,71.3457944 17.5166667,71.5046729 17.5166667,71.5046729 Z M175.34983,72.4841372 L175.28,72.7439252 L182.595,72.7439252 C182.595,72.7439252 183.576667,68.9626168 179.745,68.8037383 C179.714007,68.8037383 176.467665,68.5906728 175.34983,72.4841372 Z M105.043333,69.0261682 C101.813333,69.0261682 101.053333,72.5850467 101.053333,72.5850467 L107.386667,72.5850467 C107.988333,68.9626168 105.043333,69.0261682 105.043333,69.0261682 Z M22.235,66.0392523 C23.2166667,67.246729 22.4566667,69.5028037 32.5583333,68.9943925 L38.0683333,71.2504673 L37.3716667,71.8542056 C37.3716667,71.8542056 28.3466667,71.4728972 23.8183333,69.2803738 C19.4465741,67.21054 20.0435005,67.3632889 16.3260846,66.5557553 L15.9966667,66.4841121 L17.96,65.117757 C17.96,65.117757 21.285,64.8 22.235,66.0392523 Z M189.213333,70.328972 L188.548333,70.328972 L188.548333,66.7700935 L189.593333,66.7700935 L190.258333,69.1850467 L190.86,66.7700935 L192,66.7700935 L192,70.328972 L191.303333,70.328972 L191.303,67.533 L190.575,70.328972 L189.878333,70.328972 L189.213,67.533 L189.213333,70.328972 Z M188.073333,66.7700935 L188.073333,67.3738318 L187.028333,67.3738318 L187.028333,70.328972 L186.268333,70.328972 L186.268333,67.3738318 L185.223333,67.3738318 L185.223333,66.7700935 L188.073333,66.7700935 Z M22.1083333,62.2261682 C22.1083333,62.2261682 24.7366667,65.5626168 28.5683333,67.2785047 C28.5683333,67.2785047 25.4966667,67.6598131 23.5333333,65.6897196 C22.0159722,64.2584891 20.3531973,64.1988545 19.241783,64.3362044 L19.1,64.3551402 L22.1083333,62.2261682 Z M169.738,69.722 L170.245,66.8336449 L172.588333,66.8336449 L169.865,80.5925234 C169.865,80.5925234 169.485,83.9925234 167.458333,85.8037383 C165.336667,87.6149533 161.378333,88.1551402 157.008333,86.4074766 L157.61,84.1514019 C157.61,84.1514019 160.111667,85.4224299 162.201667,85.4224299 C164.386667,85.3588785 166.73,84.8186916 167.711667,79.1626168 C167.711667,79.1626168 166.065,81.8 162.518333,81.3551402 C158.971667,80.846729 156.881667,77.7327103 158.306667,72.4579439 C159.668333,67.1831776 164.101667,66.8654206 165.368333,66.8654206 C166.532849,66.8039192 168.824317,67.2185574 169.65974,69.4916757 L169.738,69.722 Z"/>
</svg>
