<svg xmlns="http://www.w3.org/2000/svg" viewBox="0 0 194 150">
  <title>
    flat-inter-american-development-bank
  </title>
  <path d="M34.6863864,57.5454325 C34.7614155,57.5365743 34.7688076,57.7622791 34.7710692,58.2691911 C34.7872232,59.8754556 35.1345354,61.4233106 35.8130056,62.8668627 C37.2224468,65.870786 39.7667103,68.2280312 44.0959967,70.526867 C45.8002493,71.4322161 47.3631541,72.1373037 50.8201216,73.5683393 C54.882866,75.249702 56.1388437,75.8504867 57.2090498,76.6390164 C57.6290552,76.9519252 58.202524,77.5276771 58.3802187,77.8238974 C58.78407,78.4830916 58.7881085,79.2299003 58.3963727,79.9933975 C57.6855943,81.3701957 57.5280923,81.8166121 57.4957842,82.5592487 C57.4634761,83.2685083 57.6169396,83.8734651 58.020791,84.6327902 C58.3640646,85.2794681 58.7436848,85.7884662 59.8946612,87.1360596 C61.1506389,88.6046443 61.7402618,89.4307232 62.2006523,90.3736214 C62.6327733,91.2455935 62.8670071,92.0257791 63.000278,93.0103985 C63.0931638,93.6821091 63.0608557,95.154866 62.9397002,95.8891583 C62.717582,97.2242353 62.2369989,98.7470576 61.6029524,100.128028 C61.4212192,100.528551 61.3525646,100.637026 61.2758328,100.657886 C61.0940997,100.70378 60.0521632,100.849804 59.3615774,100.924902 C58.8698289,100.980121 58.4378198,100.996362 57.2943032,100.999419 L56.7971214,101 C54.6970944,100.995828 54.0347782,100.945762 52.4112958,100.666231 C46.1677541,99.5856528 40.6511447,96.3731237 36.4591678,91.3832734 C32.755851,86.9650029 30.5952463,81.6288669 30.0540855,75.5500944 C29.9733152,74.6280568 29.9854308,71.5657238 30.0742781,70.6478584 C30.5346686,65.9792609 31.9279557,61.8572106 34.3591408,57.9729709 C34.5287584,57.7028247 34.6280315,57.5532961 34.6863864,57.5454325 Z M71.6628899,50.0000191 C71.7961609,49.9958857 72.7250189,50.6634242 73.6498386,51.4269214 C78.6656721,55.5740044 82.0257153,61.223049 83.265539,67.6022139 C84.5820943,74.3777298 83.4795801,81.2992697 80.1478067,87.2111577 C77.0744979,92.6641129 72.2646285,96.9071545 66.590517,99.1642691 C65.8676232,99.4521451 64.6116454,99.8818731 64.3854881,99.9194221 C64.1633699,99.956971 64.1754854,99.8902172 64.4783739,99.3561864 C65.8878157,96.852917 68.6299663,93.2440369 74.9300473,85.5798604 C75.9517911,84.3449142 76.2142945,83.9944565 76.5979533,83.3894997 C77.7852763,81.5162198 77.9064317,80.0392908 76.9735351,78.7542792 C76.1819864,77.665357 74.3606169,76.6974262 71.4892339,75.8379702 C70.0838312,75.4207587 68.8157379,75.1078501 64.6924158,74.1732961 C60.5690929,73.23457 58.1823315,72.5545152 56.2317295,71.7618133 C54.0590092,70.8773248 52.6939918,70.0136968 51.563208,68.8037832 C50.8362756,68.0194255 50.4001162,67.3018216 50.1416513,66.45071 C49.9639567,65.874958 49.919533,65.5787378 49.919533,64.9529204 C49.919533,63.8765146 50.1981905,62.9711655 50.8483911,61.9489971 C51.6480168,60.6931903 53.1786134,59.2579825 55.0767147,57.9896594 C57.5805929,56.3124689 60.892174,54.6311062 66.408784,52.2488282 C67.329565,51.8483051 68.8682387,51.1807666 69.8213278,50.763555 C70.7784555,50.3463434 71.6063507,50.0042299 71.6628899,50.0000191 Z M91.7711875,57.8392178 L93.8025598,57.8392178 C94.9171895,57.8433899 96.0035496,57.8600784 96.2135523,57.8767668 C97.2312577,57.9727256 98.0026137,58.3565603 98.7214691,59.1200574 C99.3775722,59.8171216 99.7033297,60.4786365 99.8257976,61.3802464 L99.8522529,61.6108104 L99.8885995,92.0505665 L91.7711875,92.0505665 L91.7711875,57.8392178 L93.8025598,57.8392178 Z M111.05574,57.9228804 C114.879522,57.9254681 117.179437,57.941707 117.54498,57.9684085 C121.393683,58.2395961 124.850651,59.5705009 127.592802,61.8276155 C128.283387,62.3950233 129.559558,63.7092397 130.080526,64.3892945 C131.926126,66.7966053 133.008448,69.5084805 133.388068,72.6918048 C133.480954,73.4427856 133.513262,75.5663925 133.452685,76.3924714 C133.27499,78.6621023 132.729791,80.7314717 131.792855,82.6715055 C129.139552,88.1661819 123.804676,91.5914888 117.254207,92.0087004 C116.88599,92.0315243 114.409403,92.0474116 110.85908,92.0500375 L103.01037,92.0504216 L102.95787,57.9225152 Z M145.391286,57.922984 C149.676709,57.925851 152.320225,57.941646 152.615431,57.9642364 C153.689675,58.0518509 154.666995,58.2229076 155.591815,58.4857509 C157.388954,58.9947489 158.871088,59.8792375 160.062449,61.160077 C161.342658,62.532703 162.013051,64.0638695 162.2069,66.0372802 C162.267478,66.6547534 162.231131,68.0440679 162.142284,68.623992 C161.815164,70.7475989 160.837844,72.4456499 159.173977,73.7723828 C158.963974,73.9392674 158.786279,74.0894635 158.782241,74.106152 C158.774164,74.1186684 159.020513,74.2605203 159.32744,74.4232328 C160.801497,75.1992463 162.000936,76.2506194 162.77633,77.4438446 C163.236721,78.1572764 163.519417,78.8248149 163.737497,79.7051313 C163.951538,80.597964 164,81.0568967 164,82.3502526 C163.995962,83.5726825 163.959615,83.9732056 163.777882,84.7909403 C162.865178,88.8128598 159.513212,91.3036129 154.206605,91.9002254 C153.08861,92.0264319 152.350684,92.0474663 145.920772,92.0500956 L135.790984,92.0504216 L135.790984,57.9225152 Z M152.066193,78.4493244 C151.464454,78.4034312 143.779163,78.3909148 143.73474,78.4368081 C143.71999,78.448236 143.708608,79.583083 143.70674,81.0315619 L143.706765,82.1684562 C143.708573,84.0577244 143.71956,84.4573149 143.763009,84.4947201 C143.803394,84.5322691 144.942255,84.5406133 148.253836,84.528097 C153.100052,84.5155806 152.930435,84.5239249 153.782561,84.2694258 C154.836613,83.952345 155.539314,83.3306998 155.805856,82.4795882 C155.951243,82.0248276 155.983551,81.3113958 155.882588,80.8524631 C155.571623,79.4005669 154.347953,78.6287254 152.066193,78.4493244 Z M114.104167,65.6117244 C112.468569,65.6033802 111.119705,65.6075523 111.103551,65.6242408 C111.089504,65.6387525 111.078511,68.820602 111.075882,73.0163506 L111.075913,78.1031752 C111.078544,83.3623175 111.090509,84.2922699 111.131821,84.3278354 C111.176244,84.3695566 111.891061,84.3737287 114.112244,84.3612124 C116.83824,84.348696 117.068436,84.3403518 117.561134,84.2569095 C119.661161,83.9106239 121.304836,83.084545 122.593122,81.7369516 C124.341798,79.9053928 125.173732,77.4313283 125.0445,74.4440934 C124.979883,73.0464346 124.676995,71.7322181 124.139873,70.57237 C122.887933,67.868839 120.654635,66.2291976 117.496518,65.6951668 C117.129013,65.6367571 116.660546,65.6242408 114.104167,65.6117244 Z M69.0258036,70.3644148 C68.9319813,70.3633668 68.8384545,70.3761502 68.7147751,70.4017036 C68.5370805,70.4350805 68.3472704,70.5393833 68.3472704,70.5977929 C68.3472704,70.8814969 69.413438,71.3028806 70.2453717,71.3446017 C70.5724913,71.3654622 70.6411461,71.3571181 70.6855696,71.2987084 C70.7340318,71.2361267 70.7178777,71.2069218 70.5442217,71.031693 C70.2938339,70.7813661 69.8536359,70.5435555 69.4538231,70.4392526 C69.2675464,70.3899682 69.1464328,70.3657499 69.0258036,70.3644148 Z M150.794061,65.4364956 C150.260977,65.3864302 143.779163,65.3739139 143.73474,65.4198071 C143.720054,65.4311856 143.708706,66.5114532 143.706764,67.8895053 L143.706765,69.0069392 C143.708573,70.8407001 143.71956,71.189987 143.763009,71.2273922 C143.807433,71.2691134 144.623213,71.2732854 147.207861,71.2607691 C150.018667,71.2482528 150.664829,71.2315643 151.016179,71.1773267 C152.231772,70.9895816 152.906204,70.7017056 153.463519,70.1301257 C153.968333,69.6086112 154.162181,69.091269 154.166241,68.2860507 C154.170258,66.6130322 153.011205,65.632585 150.794061,65.4364956 Z M64.290457,67.3153159 C64.0390353,67.311037 63.8781506,67.3680548 63.8402888,67.4853947 C63.8039422,67.6147302 64.0220219,68.0152533 64.2885638,68.290613 C64.5793373,68.5951774 64.9185725,68.8413323 65.362809,69.0624544 C65.7747373,69.2668881 66.0493563,69.3252977 66.4895542,69.3044371 C66.7803272,69.2919208 66.8691745,69.2668881 67.0266766,69.1751016 C67.2568718,69.0332496 67.2972569,68.9164303 67.1922556,68.6827918 C66.9903299,68.2155149 65.960509,67.6522793 64.8337638,67.389436 C64.6247707,67.342498 64.4413101,67.3178859 64.290457,67.3153159 Z M57.5894907,64.4759943 C56.8533697,64.4698762 56.1475539,64.6214976 55.5815288,64.9153714 C55.2988329,65.0613955 55.1817161,65.1823869 55.1817161,65.3284109 C55.1817161,65.478607 55.4078728,65.908335 55.6057599,66.1336292 C55.8399937,66.4006446 56.4578862,66.8303725 56.9425078,67.064011 C57.9561748,67.5521486 59.2242679,67.8441966 60.6135165,67.9192947 C61.4777585,67.965188 62.0310348,67.8358524 62.2894997,67.531288 C62.4470017,67.3477148 62.4429632,67.2225514 62.26123,66.8470609 C61.7927625,65.870786 60.0844713,64.8402733 58.4609889,64.5565694 C58.1702159,64.5049387 57.8775401,64.4783974 57.5894907,64.4759943 Z"/>
</svg>
