<svg xmlns="http://www.w3.org/2000/svg" viewBox="0 0 194 150">
  <title>
    flat-philadelphia-water-department
  </title>
  <path fill="#151515" d="M97.2105935,55.447774 C98.3014553,56.3659691 99.3923171,57.2841642 100.547146,58.2565382 C100.643211,57.3988959 100.536789,56.5775626 100.617715,55.7242455 L102.079748,55.7242455 C102.207114,56.0998553 102.259016,60.676148 102.142691,61.894148 C101.895699,61.9179366 101.735553,61.7720179 101.563341,61.6241642 C100.623407,60.8169447 99.6773252,60.0171236 98.6651138,59.1567496 L98.6651138,61.7939854 L97.0979106,61.7939854 L97.0979106,55.5125382 C97.1354715,55.491026 97.1730325,55.4692862 97.2105935,55.447774 Z M42.9919171,55.7569805 C42.9919171,56.0407366 42.9858846,56.338948 42.9937382,56.6367041 C43.0012504,56.926265 42.864665,57.0491919 42.5811366,57.0468016 C42.0120309,57.0420211 41.4429252,57.0460049 40.8739333,57.0463463 L40.2916244,57.0463463 L40.2916244,57.0463463 L40.2916244,57.9570293 L42.801722,57.9570293 C42.9488927,58.4477122 42.8516894,58.9091431 42.8734293,59.4270293 L40.302665,59.4270293 L40.302665,60.2882 C41.157348,60.4766878 42.0320634,60.2528016 42.9490065,60.2221837 L42.9490065,61.7265577 C42.5811366,61.8502813 39.6052829,61.8904602 38.6862911,61.7716309 L38.6862911,55.7791756 C39.1024211,55.6564764 42.3093317,55.6347366 42.9919171,55.7569805 Z M93.5284114,55.7228797 C93.5284114,56.0484081 93.5232894,56.3473024 93.5298911,56.6460829 C93.536265,56.9404244 93.3867041,57.0502618 93.1084114,57.0471886 C92.6152244,57.0416114 92.1220374,57.0460504 91.6287366,57.046278 L90.9610618,57.0463919 L90.9610618,57.0463919 L90.9610618,57.9570748 L93.3704276,57.9570748 L93.3704276,59.3882618 C92.5940537,59.5123268 91.7821675,59.3767659 90.9495659,59.464522 L90.9495659,60.2907496 C91.7748829,60.4956276 92.6127203,60.2069772 93.4886878,60.2459041 L93.4886878,61.730587 C93.0991919,61.8491886 90.0080374,61.8807171 89.2388341,61.7672374 L89.2388341,55.7228797 L93.5284114,55.7228797 Z M85.0969626,55.4827398 C85.1709463,55.6547236 85.2086211,55.7032114 85.2108976,55.7532927 C85.2546049,56.6943659 85.2938732,57.6355528 85.3345073,58.5768537 C85.3720683,59.4422358 85.4117919,60.3077317 85.4471902,61.1733415 C85.4548163,61.3596667 85.4483285,61.5466748 85.4483285,61.7649837 C84.8770602,61.8768699 84.3416455,61.8241707 83.7674179,61.803 L83.7674179,59.2499919 C83.4992553,59.5138293 83.3223772,59.6867236 83.1466374,59.8607561 C82.9986699,60.0073577 82.853548,60.1572602 82.7042146,60.3024959 C82.3204098,60.6758293 82.2381171,60.6551138 81.913613,60.2517317 C81.6364585,59.9069675 81.3155967,59.597374 81.0140846,59.2720732 C80.9744748,59.2891463 80.9350927,59.3059919 80.8954829,59.3229512 L80.8954829,60.5492602 L80.8954829,60.5492602 C80.8952553,60.8334715 80.888426,61.1177967 80.8963935,61.4017805 C80.904361,61.6812114 80.7928163,61.8302033 80.499613,61.826561 C80.1244585,61.8216667 79.7491902,61.8253089 79.2643122,61.8253089 C79.3190602,59.6995854 79.3716455,57.6640081 79.4236618,55.6468699 C79.693987,55.4901382 79.8064423,55.6844309 79.9284585,55.8114553 C80.6476943,56.560626 81.3605561,57.3160569 82.0772878,58.0677317 C82.1414829,58.1351138 82.2176293,58.1908862 82.3298569,58.2880894 C83.1970602,57.3095691 84.0658569,56.3502846 85.0969626,55.4827398 Z M56.8527252,55.305122 C57.9629366,57.5262276 58.9977984,59.596748 60.060774,61.7233821 C59.874335,61.7687967 59.7565301,61.817626 59.6371317,61.8222927 C59.3341398,61.8343577 59.0302374,61.827187 58.7267902,61.8267317 C58.1070341,61.8257073 58.1088553,61.8245691 57.8833756,61.2452195 C57.8431967,61.1420976 57.7804813,61.047626 57.7108228,60.9165041 C57.1821236,60.9165041 56.6520585,60.937561 56.1247252,60.908878 C55.8301055,60.8928925 55.6477219,61.0119859 55.5695803,61.2344221 L55.545148,61.3226179 C55.4537496,61.7558211 55.1863837,61.853252 54.799278,61.8301463 C54.5156358,61.8130732 54.2297171,61.8374309 53.9461886,61.8203577 C53.8273593,61.813187 53.7120585,61.7467154 53.5761561,61.7009593 C53.6142862,61.5858862 53.6295382,61.5126992 53.6612943,61.4475935 C54.5620748,59.6006179 55.4609203,57.7523902 56.3724,55.9105366 C56.4645951,55.7240976 56.6344163,55.5759024 56.8527252,55.305122 Z M66.5027886,55.6926488 C67.3876341,55.7236081 68.047,56.5663398 68.1580894,57.2336732 C68.2204634,57.6087138 68.2503984,57.9568927 68.157748,58.3340959 C68.0422195,58.8038358 67.907,59.0844049 67.4554715,59.4321285 C67.8755854,60.1632016 68.3004797,60.9023561 68.7644146,61.7096894 C68.5576016,61.7598846 68.4219268,61.8161122 68.2842033,61.8216894 C67.943878,61.8356894 67.6018455,61.8129252 67.2618618,61.8306813 C66.9535203,61.8467301 66.7785772,61.708665 66.6383496,61.4455106 C66.3827073,60.9655268 66.0979268,60.5012504 65.8174715,60.0169415 L64.875374,60.0169415 L64.875374,61.8231691 C64.3543008,61.8231691 63.9075528,61.825787 63.4608049,61.8221447 C63.2559268,61.8205512 63.1505285,61.707413 63.1435854,61.5033317 C63.1411951,61.4276407 63.1402814,61.3518358 63.1402814,61.2761447 C63.1402814,59.5335431 63.1401707,57.7911691 63.141878,56.0485675 C63.1421057,55.9551203 63.1579268,55.8614455 63.1656667,55.777787 C63.2066423,55.7455756 63.2358943,55.7023236 63.2654878,55.7020959 C64.3447398,55.6931041 65.4251301,55.6550878 66.5027886,55.6926488 Z M51.4189724,57.6467073 C51.3790211,58.1843984 51.4862407,58.7263008 51.1893951,59.2447561 C50.9780293,59.6135366 50.6990537,59.8486911 50.3281106,60.0045122 C49.9254114,60.1736504 49.5095089,60.2675528 49.0667447,60.2365935 C48.8083707,60.2186098 48.5476065,60.2334065 48.2283382,60.2334065 C48.2283382,60.6529512 48.2361919,61.008187 48.2264033,61.3630813 C48.2154764,61.7603171 48.1620943,61.8135854 47.7581431,61.8240569 C47.3660293,61.8340732 46.9734602,61.8263333 46.5526634,61.8263333 L46.5526634,55.7247236 C46.6994927,55.7099268 46.8435902,55.6835203 46.9880293,55.6828374 C47.8019642,55.6787398 48.6178341,55.7160732 49.4293789,55.6717967 C50.4107447,55.618187 51.4901106,56.6844634 51.4189724,57.6467073 Z M33.0296081,55.693548 C33.1367138,55.6942309 33.2437057,55.758426 33.3503561,55.7941659 C34.2539821,56.0967024 34.7743724,56.7500358 35.010665,57.6446699 C35.1960797,58.347174 35.1981285,59.0617431 35.0129415,59.7635642 C34.7550228,60.7409463 34.019852,61.5473691 32.7410715,61.7269789 C31.7788276,61.8621984 30.8261447,61.7991415 29.8254293,61.8200846 L29.8254293,55.6888813 L31.9716828,55.6889488 C32.3251818,55.6896401 32.6774076,55.691006 33.0296081,55.693548 Z M76.0623301,55.714252 L76.0623301,57.0287724 L74.535761,57.0287724 L74.535761,61.7945772 L72.836639,61.7945772 L72.836639,57.0497154 L71.2558911,57.0497154 L71.2558911,55.7684309 C71.6673545,55.6580244 74.8964602,55.6189837 76.0623301,55.714252 Z M110.447411,55.7139675 L110.447411,57.028374 L108.906159,57.028374 L108.906159,61.7842764 L107.213525,61.7842764 C107.161167,61.2859675 107.196793,60.761252 107.190306,60.2394959 C107.183818,59.7276423 107.188826,59.215561 107.188826,58.7035935 L107.188826,57.0678699 L105.52533,57.0678699 L105.52533,55.7139675 L110.447411,55.7139675 Z M31.5462911,57.0609951 C31.5131691,57.0625886 31.481413,57.0918407 31.4161935,57.1249626 L31.4161935,60.3455317 C31.7732504,60.3455317 32.0924049,60.3648813 32.4081447,60.3399545 C32.7265024,60.3149138 32.9660959,60.1490764 33.1113317,59.8481333 C33.2789902,59.5005236 33.3259984,59.1394829 33.3228114,58.7569301 C33.3118846,57.4445724 32.848974,56.9947512 31.5462911,57.0609951 Z M25.1059837,58.9819037 C25.2007967,58.9819037 25.2957236,58.9854374 25.3904228,58.9825919 C25.6750894,58.9737138 25.8120163,59.1101854 25.8058549,59.3946244 C25.8022276,59.5273398 25.8072358,59.6602829 25.802,59.7928846 C25.7938049,59.9953724 25.6857886,60.1060065 25.4821626,60.115226 L25.3115305,60.1191955 L25.3115305,60.1191955 L0,60.1194374 L0,59.0076325 C0.213186992,58.9982992 0.39803252,58.9830472 0.582764228,58.9830472 C8.75717073,58.9817951 16.9315772,58.9819037 25.1059837,58.9819037 Z M139.485699,58.9844472 C139.711065,58.9878618 139.844577,59.0950813 139.850268,59.3271626 C139.856187,59.5689187 139.851634,59.8109024 139.851634,60.0849837 L114.729488,60.0849837 L114.729488,59.0141545 C114.921163,59.0023171 115.086659,58.9831951 115.252154,58.9831951 L127.226707,58.9820711 L127.226707,58.9820711 L139.20126,58.9820569 C139.296187,58.9820569 139.390886,58.9829675 139.485699,58.9844472 Z M56.7132943,58.5400325 C56.5355057,58.9554797 56.3966439,59.2802114 56.2438959,59.6370407 L57.1626602,59.6370407 C57.0161724,59.2793008 56.885278,58.9601463 56.7132943,58.5400325 Z M48.2534927,57.0979756 L48.2534927,58.847065 C48.7876553,58.8879268 49.2696878,58.9098943 49.5649398,58.4453902 C49.7840455,58.1008537 49.7654927,57.6723171 49.499265,57.4048374 C49.1871675,57.0911463 48.7411024,56.960935 48.2534927,57.0979756 Z M64.8756016,57.0063724 L64.8756016,58.7711691 C65.1824634,58.7235919 65.449374,58.6744211 65.7184472,58.6424374 C66.1778293,58.5880309 66.3680244,58.4064862 66.4326748,57.9399333 C66.475813,57.6292016 66.2565935,57.2646325 65.9078455,57.1690228 C65.5931301,57.0827463 65.259748,57.063852 64.8756016,57.0063724 Z M7.65754472,19.3909754 C7.82110569,19.826455 8.01118699,20.2887965 8.16973984,20.7617233 C9.95331707,26.0839998 11.7317724,31.4077558 13.5123902,36.7309428 C13.5752195,36.9187477 13.6466992,37.1035932 13.8111707,37.2802436 C15.3406992,31.3171542 16.8703415,25.3540648 18.4047642,19.3720811 L19.3170407,19.3720811 C20.7583577,19.3720811 22.1997886,19.3700323 23.6412195,19.3734469 C24.099122,19.3744713 24.1018537,19.3801624 24.223187,19.8534307 C24.7160325,21.7746176 25.2071707,23.6963737 25.6986504,25.618016 C26.4961951,28.7363737 27.2919187,31.8551867 28.0918537,34.9729753 C28.2825041,35.7158859 28.4863577,36.4553818 28.687935,37.1954469 C28.6956748,37.2233331 28.7442764,37.2399509 28.8372683,37.3086989 C29.8459512,34.2828778 30.8423415,31.2927965 31.8396423,28.302829 C32.8309106,25.3308453 33.8230894,22.3589754 34.810374,19.4003087 L42.4361626,19.4003087 C42.3841463,19.6519672 42.3621789,19.8686827 42.2943415,20.0701461 C41.2213496,23.2533819 40.1423252,26.4347965 39.0647805,29.6166664 C38.0654309,32.5672518 37.0658537,35.5178371 36.0670732,38.4685363 C35.1946341,41.0459022 34.324813,43.6241786 33.4503252,46.2009753 L32.4643812,49.0765441 C32.3015411,49.5562834 32.1409268,50.0367477 31.9847642,50.5186664 C31.8882439,50.8169916 31.7510894,50.9038371 31.4663089,50.9029266 C29.6646341,50.8965526 27.8627317,50.8902924 26.0612846,50.9077962 C25.6940976,50.9111217 25.5678699,50.7206989 25.4667967,50.4311379 C24.9782764,49.0313656 24.4878211,47.6321623 23.9900813,46.2356908 C23.1085366,43.7621298 22.2213008,41.2906176 21.325187,38.7871217 C21.1246341,38.9010566 21.0818374,39.0719022 21.0209431,39.2466176 C20.3418862,41.1947802 19.6630569,43.1431705 18.9685203,45.085642 C18.2806992,47.0095607 17.5746667,48.9266501 16.8673821,50.8726501 L10.7029431,50.8726501 C10.6478537,50.725707 10.585935,50.5725038 10.5327805,50.4163412 C9.55756098,47.5557883 8.58143089,44.6956908 7.60985366,41.8338859 C6.73491057,39.2567477 5.86463415,36.6782436 4.99401626,34.0997396 L2.47492683,26.6295445 C1.70105691,24.335138 0.926276423,22.0409591 0.153089431,19.7462111 C0.124406504,19.6610729 0.107788618,19.5716095 0.0860487805,19.4861298 C0.524260163,19.3357721 5.06413008,19.281138 7.65754472,19.3909754 Z M127.931249,19.5067428 C128.874371,19.5173282 129.825233,19.7436046 130.754013,19.9525802 C132.648224,20.3788404 134.306598,21.2651656 135.676208,22.6607266 C136.812485,23.8184014 137.514306,25.2199949 137.910631,26.7722876 C138.204745,27.9242713 138.340306,29.1091494 138.252436,30.2969867 C138.13998,31.8146778 137.918029,33.3127916 137.20733,34.6976534 C136.447688,36.1780111 135.341688,37.331816 133.971167,38.2498973 C133.894566,38.3013444 133.815915,38.3499461 133.689005,38.4315558 C134.740598,40.5106127 135.792306,42.5708892 136.826598,44.6399298 C137.852696,46.692694 138.905086,48.7331656 139.935964,50.8998648 L139.257704,50.8998648 C136.867574,50.8998648 134.477444,50.893377 132.087428,50.906661 C131.706582,50.9087428 131.475184,50.826564 131.297964,50.4423038 C130.476631,48.6612306 129.616257,46.8983688 128.770907,45.1282225 C128.03972,43.5971005 127.310468,42.0649542 126.579509,40.5337184 C126.547867,40.4673607 126.508257,40.4048729 126.502793,40.3950843 C125.153216,40.4078322 123.853379,40.4196696 122.553541,40.4343526 C122.500387,40.4350355 122.447688,40.4618973 122.338761,40.4920599 L122.338761,50.8788079 L114.799476,50.8788079 C114.679395,50.493068 114.63307,20.4014908 114.756338,19.5176697 C114.911704,19.5074258 115.076403,19.4873933 115.241216,19.4872794 C119.471379,19.4854583 123.701769,19.4590518 127.931249,19.5067428 Z M56.0308911,19.5011542 C56.1518829,19.8201949 56.2859642,20.145268 56.3994439,20.4773981 C57.3216228,23.1773494 58.2343545,25.8803737 59.1614276,28.5786176 C59.8627935,30.6197721 60.5854439,32.6538696 61.2906797,34.6936583 C62.0265333,36.8225688 62.7500943,38.955577 63.484013,41.0850566 C64.1994927,43.1611542 64.9231675,45.2346339 65.6401268,47.31039 C65.9955902,48.3393331 66.3455902,49.3699835 66.6937691,50.4013168 C66.7394114,50.5365363 66.760013,50.6802924 66.8026959,50.8655932 L58.6040455,50.8655932 C57.9997691,49.034894 57.4965659,47.1411379 56.9238179,45.2381623 L47.5641919,45.2381623 C47.371948,45.8494957 47.1675252,46.4707314 46.9816553,47.0975444 C46.6516878,48.2106013 46.3402732,49.3290079 46.0062081,50.4409266 C45.8691675,50.8971217 45.851639,50.8982599 45.376322,50.8987152 C43.2331837,50.9013331 41.0899317,50.8998534 38.9467935,50.8999672 L37.6437691,50.8999672 C37.6840618,50.7235444 37.7015902,50.6017558 37.739948,50.4870241 C38.4314114,48.4229916 39.1210537,46.3582761 39.8202569,44.2969753 C40.2121431,43.1418046 40.6242894,41.993577 41.0214114,40.8401135 C41.8701756,38.3739509 42.7133626,35.9058534 43.5617854,33.4394631 C44.3553463,31.1325363 45.152322,28.8269754 45.9479317,26.5208453 L48.2251512,19.9220648 C48.273639,19.7816095 48.3337366,19.6452518 48.390761,19.5011542 L56.0308911,19.5011542 Z M111.353007,19.5189445 C111.369511,19.6771559 111.397169,19.8219363 111.397397,19.9667168 C111.400242,21.9583591 111.401039,23.9501152 111.398421,25.9415298 C111.397738,26.5203103 111.37634,26.5410258 110.780145,26.5412534 L104.691582,26.5424059 L97.8939984,26.5422778 L97.8939984,31.7604079 C98.1016081,31.7660989 98.3204862,31.7777087 98.539478,31.7777087 C102.124275,31.7788469 105.709072,31.7786192 109.293982,31.7786192 C109.426698,31.7786192 109.559754,31.7732696 109.692128,31.7803266 C110.062616,31.8000176 110.142405,31.8559038 110.142746,32.2093184 C110.145478,34.2195135 110.136372,36.2297087 110.129885,38.2399038 C110.129885,38.2561802 110.113494,38.272229 110.05021,38.3888957 L97.8863724,38.3888957 L97.8863724,43.9356274 L111.396828,43.9356274 C111.536486,44.3799851 111.569608,50.1216924 111.448161,50.8648306 L90.2716244,50.8648306 L90.2716244,19.5189445 L111.353007,19.5189445 Z M87.9014927,19.5219038 C87.9181106,19.6607656 87.949639,19.8041802 87.9498667,19.9475949 C87.9532813,21.9575624 87.9543057,23.9673022 87.9507772,25.9771559 C87.9498667,26.5127981 87.9192488,26.5403428 87.3544683,26.5410258 L83.6286045,26.5425908 L79.220013,26.5422778 C79.1525171,27.9134811 79.198387,29.2507656 79.1898504,30.5865705 C79.1815415,31.9327331 79.1881431,33.2788957 79.1881431,34.6252859 L79.1881431,50.8616436 L71.4472813,50.8616436 L71.4472813,26.566977 L62.9065984,26.566977 C62.7778667,26.120229 62.7458829,20.2512697 62.8583382,19.5219038 L87.9014927,19.5219038 Z M52.2883382,26.9710079 C52.2487285,26.9813656 52.2092325,26.9916095 52.1698504,27.0018534 C52.0881268,27.267512 52.0115252,27.534764 51.9242244,27.7983737 C51.0273138,30.5057233 50.1239154,33.2109103 49.2331512,35.9203087 C48.936761,36.8214306 48.7685333,37.7399672 49.0304358,38.6854794 C49.2101593,39.3343737 49.491639,39.9427477 50.0367285,40.3496583 C50.8993789,40.9934306 51.8298667,41.3715444 52.9685333,41.1245526 C54.4573138,40.8017558 55.3950862,39.5827314 55.512322,38.2004875 C55.5900618,37.284455 55.4058992,36.4079184 55.1149724,35.5425363 C54.253574,32.9813331 53.4049236,30.4158046 52.5539967,27.8510729 C52.4574764,27.5604876 52.3764358,27.2644388 52.2883382,26.9710079 Z M122.803834,26.3165477 C122.658485,26.317003 122.513135,26.3422713 122.353899,26.3572957 L122.353899,34.0550192 C123.765395,34.0550192 125.109509,34.0629867 126.453281,34.049442 C126.806582,34.0459135 127.16933,34.0147266 127.510224,33.9274257 C128.243233,33.7397347 128.96372,33.4879623 129.46681,32.8806127 C130.058224,32.1667266 130.357005,31.3278648 130.409135,30.4009054 C130.443281,29.793442 130.361899,29.2045315 130.18468,28.6218811 C129.997899,28.0073607 129.675102,27.5021087 129.154371,27.1161412 C128.362062,26.528938 127.432826,26.3704989 126.497216,26.3282713 C125.268403,26.2729542 124.035151,26.3133607 122.803834,26.3165477 Z M87.1556341,0.0545147983 L87.1556341,11.4884172 C87.8072602,11.5480595 88.4443171,11.5095879 89.0787561,11.516531 C89.7039756,11.5234741 90.3294228,11.5180107 90.9547561,11.5180107 L92.9187398,11.5180107 L92.9187398,14.7209375 C92.5332276,14.8415879 84.4931301,14.8866611 83.5518293,14.7665798 L83.5518293,0.0545147983 L87.1556341,0.0545147983 Z M100.577662,0.0311587008 C101.423922,0.0451587008 102.263353,0.197679026 103.017076,0.618703416 C104.231662,1.29730504 105.032849,2.28447577 105.257759,3.69528878 C105.455922,4.93855707 105.479711,6.17283349 105.019759,7.36351642 C104.666572,8.27795544 104.084377,9.00402048 103.18815,9.48206927 C102.299662,9.95613431 101.373954,10.1761506 100.375174,10.1547522 C99.6774504,10.1399554 98.9792715,10.1520205 98.2227024,10.1520205 L98.2227024,14.6957603 C97.7801659,14.8417928 95.4549138,14.8779879 94.5918081,14.7655326 L94.5918081,0.0485733349 C94.8054504,0.0388985382 94.9904098,0.0234188634 95.1753691,0.0231912211 C96.9761333,0.0213700829 98.7773528,0.00133756252 100.577662,0.0311587008 Z M30.2071057,0.0520676438 L30.2071057,14.7203115 C29.8169268,14.8411895 27.4271382,14.8726042 26.6386992,14.7614009 L26.6386992,0.0520676438 L30.2071057,0.0520676438 Z M63.2860894,0.0379652048 C65.1615203,0.119119676 66.879878,0.691184717 68.1603659,2.16391642 C68.9395854,3.06003024 69.3997642,4.12607902 69.6269512,5.29297333 C69.849813,6.4375587 69.7781057,7.59807902 69.7160732,8.74186764 C69.6531301,9.90546114 69.3248699,11.0431034 68.6776829,12.0375587 C67.8640894,13.2879977 66.7116504,14.1071684 65.2602033,14.4651359 C64.2934065,14.7034773 63.3114715,14.8441603 62.3059756,14.8250383 C60.9603821,14.7994286 59.6139919,14.8186643 58.2679431,14.8185505 L57.5908211,14.8185505 L57.5908211,0.0560627658 C57.7811301,0.0436562617 57.9462846,0.0238513837 58.111439,0.0236237414 C59.836626,0.0212334975 61.5643171,-0.0365876407 63.2860894,0.0379652048 Z M5.74079675,0.0221095323 C6.6580813,0.021882278 7.52858537,0.221866018 8.34980488,0.632418863 C9.51874797,1.21654894 10.2152195,2.18334569 10.5433659,3.41876032 C10.6720976,3.90375219 10.7854634,4.4185652 10.762813,4.91323187 C10.6965691,6.35181723 10.5060325,7.77526439 9.39730081,8.85451642 C8.76422764,9.4709717 7.98239024,9.84669528 7.12235772,10.0167441 C6.62826016,10.1145164 6.11469919,10.1303376 5.60853659,10.1470693 C4.96829268,10.1678985 4.32702439,10.1520774 3.62804878,10.1520774 L3.62804878,14.7872156 C2.3902439,14.845492 1.21071545,14.8186302 1.42108547e-14,14.8039473 L1.42108547e-14,0.0221095323 L5.74079675,0.0221095323 Z M134.79282,0.0400139853 C134.852348,0.196290408 134.915177,0.348810733 134.969015,0.504290408 C135.605275,2.3479652 136.243015,4.19118471 136.875063,6.03633918 C137.416169,7.61537983 137.947828,9.1977213 138.488478,10.7769896 C138.937502,12.0886643 139.393584,13.3976074 139.884722,14.8186643 L137.926998,14.8186643 C137.415486,14.8185505 136.903746,14.8228757 136.392234,14.8172985 C135.946738,14.8121765 135.942754,14.8083066 135.811291,14.3704367 C135.639193,13.796892 135.477112,13.2203879 135.304673,12.6470708 C135.262218,12.5058188 135.19586,12.3716237 135.136104,12.2235424 L130.888185,12.2235424 C130.64495,13.0487456 130.39386,13.9008107 130.13321,14.7849733 L126.194543,14.7849733 C127.880234,9.83716845 129.552153,4.9298839 131.218153,0.0400139853 L134.79282,0.0400139853 Z M47.9642163,0.0207010133 C49.0434683,0.0256156113 50.1226065,0.022883904 51.247387,0.022883904 C51.6789967,1.27582699 52.1098098,2.51237983 52.530948,3.75211967 L54.6045415,9.88616845 C55.0820211,11.2898107 55.5727041,12.6889001 56.051322,14.0920871 C56.1222325,14.2999245 56.1591106,14.5193717 56.2235333,14.781957 L52.3733057,14.781957 C52.1222163,13.9557294 51.8628179,13.1024123 51.5970455,12.2269001 C51.4144764,12.2177944 51.2470455,12.2022009 51.0797285,12.2019733 C49.9608667,12.1998107 48.8418911,12.2058432 47.7232569,12.1977619 C47.4218585,12.1955993 47.2572732,12.2531928 47.1838585,12.6103635 C47.0523951,13.2501521 46.8173545,13.8677456 46.6468504,14.5004773 C46.586639,14.7239082 46.4730455,14.8187213 46.2520049,14.8177132 L42.7825089,14.8030139 C42.7514358,14.8029001 42.7205902,14.7675017 42.6616309,14.7311928 C42.6982813,14.5803798 42.7253707,14.416705 42.7778423,14.261453 C43.3478585,12.5724611 43.9198098,10.8840384 44.4955171,9.19686764 C45.1680862,7.22582699 45.8430455,5.25535544 46.5203951,3.28602211 C46.8560537,2.31000585 47.2123138,1.34081886 47.5305577,0.359339188 C47.6103463,0.113257888 47.7200699,0.019583091 47.9642163,0.0207010133 Z M124.903561,0.0545203252 L124.903561,14.7883252 L121.340618,14.7883252 L121.340618,0.0545203252 L124.903561,0.0545203252 Z M24.2899203,0.0525912211 L24.2899203,14.7886725 L20.692148,14.7886725 L20.692148,9.28428227 L16.1492049,9.28428227 C16.1110748,10.1901847 16.1369122,11.1098595 16.1322455,12.0281684 C16.1276927,12.9338432 16.1312211,13.839518 16.1312211,14.7815017 L12.5768146,14.7815017 C12.4695951,14.3834692 12.4398878,0.763973335 12.5507496,0.0580546357 L16.1222293,0.0580546357 C16.1253024,1.00504651 16.1294,1.94475382 16.1308797,2.88457496 C16.1323593,3.80777821 16.1312211,4.7312091 16.1312211,5.68355057 L20.681335,5.68355057 L20.681335,0.0525912211 L24.2899203,0.0525912211 Z M110.809715,0.0525115463 L110.809715,5.70839772 C112.348122,5.71841398 113.831553,5.7126091 115.370642,5.71158471 L115.370642,0.0634383756 L118.927325,0.0634383756 C119.049228,0.442690408 119.092593,13.8950969 118.966593,14.7798286 L115.392496,14.7798286 C115.37087,12.9641538 115.394886,11.1381213 115.378951,9.27805626 L110.840902,9.27805626 L110.840902,14.7882513 L107.226626,14.7882513 L107.226626,0.0525115463 L110.809715,0.0525115463 Z M81.5361138,0.0558920341 L81.5361138,3.40109528 C80.876065,3.47553431 80.2003089,3.42568065 79.5280813,3.43444487 C78.8267154,3.44366439 78.1250081,3.43660748 77.4234146,3.43660748 L75.3542602,3.43660748 L75.3542602,5.81763187 L81.0093496,5.81763187 L81.0093496,7.35444487 C81.0093496,7.73358309 81.0144715,8.11294894 81.0077561,8.49197333 C80.9994472,8.9651278 80.960748,9.00951805 80.481561,9.01156683 C79.1542927,9.0173717 77.8270244,9.01372943 76.4995285,9.01384325 L75.3489106,9.01384325 L75.3489106,11.4979895 L81.6746341,11.4979895 C81.7086667,12.6176481 81.6884065,13.6832416 81.6882927,14.7841196 L71.7072033,14.7841196 L71.7072033,0.0558920341 L81.5361138,0.0558920341 Z M36.1410683,0.0459554487 C36.1888732,0.68210179 36.156548,1.31938634 36.1624667,1.95405301 C36.1682715,2.57927252 36.1637187,3.20471967 36.1637187,3.83005301 L36.1637187,11.4931749 L41.8452146,11.4931749 C41.9928407,11.9285408 42.0255073,13.9652562 41.9097512,14.7796465 L32.614548,14.7796465 C32.4999301,14.4040367 32.4506455,1.06602049 32.5711821,0.0459554487 L36.1410683,0.0459554487 Z M61.223878,3.44599772 L61.223878,11.4904204 C62.1310325,11.5522253 62.9784309,11.5090871 63.8315203,11.3110384 C64.6648049,11.1175424 65.1881545,10.5903229 65.5375854,9.87734731 C65.8442195,9.2521278 66.0105122,8.57136357 65.9827398,7.86407902 C65.9573577,7.22520097 65.9874065,6.56993268 65.8504797,5.9534774 C65.643439,5.02105463 65.2498455,4.17672943 64.2891951,3.72770504 C63.2909837,3.26126601 62.2646585,3.49198146 61.223878,3.44599772 Z M133.070137,4.88401398 L132.95825,4.89038796 C132.595389,6.20263187 132.232754,7.51487577 131.868072,8.83394894 C132.617584,8.95516845 133.762511,8.92705463 134.168169,8.78045301 L133.070137,4.88401398 Z M49.4794033,4.83398959 C49.4529967,4.83421723 49.4264764,4.83444487 49.4001837,4.83467252 C49.0347041,6.15340422 48.6692244,7.47213593 48.2843951,8.86086764 L50.6139724,8.86086764 C50.2269805,7.48784325 49.8531919,6.1608026 49.4794033,4.83398959 Z M98.224865,3.32047577 L98.224865,7.07873593 C98.8792228,7.07873593 99.4669951,7.1076465 100.050784,7.07179284 C100.880767,7.02102861 101.581564,6.56847577 101.754345,5.65028065 C101.825028,5.27512618 101.77745,4.9494839 101.718719,4.60802048 C101.638702,4.14158146 101.387272,3.78122374 100.952475,3.56644325 C100.071727,3.13130504 99.1487512,3.3911587 98.224865,3.32047577 Z M3.64682927,3.32997983 L3.64682927,7.0769717 C4.26385366,7.0769717 4.8483252,7.10781723 5.42733333,7.06445138 C5.7340813,7.04134569 6.06336585,6.9428904 6.32663415,6.78502048 C7.08001626,6.33326439 7.25655285,5.4545652 7.10517073,4.76902048 C6.93887805,4.01597983 6.50760976,3.43924813 5.7055122,3.34591479 C5.03874797,3.26828878 4.35582114,3.32997983 3.64682927,3.32997983 Z" transform="translate(27 44)"/>
</svg>
