<svg xmlns="http://www.w3.org/2000/svg" viewBox="0 0 194 150">
  <title>
    flat-united-nations
  </title>
  <path fill="#151515" d="M97.161002,33 C91.5960017,33 86.3460015,34.3230001 81.6840013,36.6750001 L82.0620014,37.4100002 C86.5560015,35.1420001 91.5540017,33.903 96.7410019,33.84 L96.7410019,40.0770003 C92.5200018,40.1400003 88.5090016,41.1690003 84.9600015,42.9330004 L85.3380015,43.6680004 C88.8450016,41.9250004 92.7300018,40.9800003 96.7410019,40.9170003 L96.7410019,46.5660005 C93.5910018,46.6290005 90.6300017,47.3850006 87.9630016,48.6870006 L87.9630016,48.6870006 C85.9680015,49.6530007 84.1620014,50.9340007 82.5870014,52.4460008 L78.5970012,48.4350006 C80.6130013,46.4820005 82.9020014,44.8860005 85.3590015,43.6680004 L84.9810015,42.9330004 L84.9810015,42.9330004 C82.4190014,44.2140004 80.0670013,45.8730005 78.0300012,47.8470006 L73.599001,43.4160004 C76.1400011,40.9380003 78.9960012,38.9220002 82.0830014,37.3680002 L81.7050013,36.6330001 C74.9640011,40.0140003 69.4830009,45.5370005 66.1440007,52.2990008 L66.1440007,52.2990008 C63.8760006,56.8980009 62.5740006,62.0850012 62.5740006,67.5660014 C62.5740006,70.9260015 63.0570006,74.2020016 63.9600006,77.3100018 L64.7790007,77.1000018 C63.9180006,74.1600016 63.4560006,71.0940015 63.4140006,67.9650014 L69.6300009,67.9650014 C69.6720009,70.5690015 70.0710009,73.1310016 70.8060009,75.5670017 L71.6250009,75.3570017 C70.9110009,72.9840016 70.5120009,70.5060015 70.4700009,67.9440014 L76.1190011,67.9440014 C76.1400011,68.7840014 76.2030011,69.6030015 76.3080011,70.4010015 C75.9090011,70.4430015 75.5520011,70.5690015 75.5520011,70.5690015 L75.3840011,71.1360015 C75.0060011,71.1990015 74.7540011,71.8500015 74.7540011,71.8500015 C74.4390011,71.9550015 74.187001,72.3540016 74.292001,72.4590016 C74.397001,72.5640016 74.124001,72.6060016 74.124001,72.6060016 L74.124001,73.3830016 L73.956001,73.6350016 L73.998001,74.4750016 C74.208001,74.4750016 74.166001,74.8740017 74.166001,74.8740017 C73.809001,74.9160017 73.893001,75.3780017 73.893001,75.3780017 L73.158001,75.6300017 L73.011001,75.8400017 L72.108001,75.7980017 L71.8560009,76.0500017 L71.8560009,76.0500017 C71.7720009,75.8190017 71.7090009,75.5880017 71.6250009,75.3570017 L70.8060009,75.5670017 C70.8270009,75.6510017 70.8480009,75.7350017 70.8900009,75.8190017 L69.8610009,75.8190017 L69.7980009,75.6510017 L69.4410009,75.5880017 L69.3990009,75.1890017 L68.8740008,75.2310017 L68.7690008,75.4410017 L68.2020008,75.4830017 C68.2440008,75.8400017 67.6350008,76.3650017 67.5720008,76.2180017 C67.5090008,76.0710017 67.1100008,75.6930017 67.2990008,75.6090017 C67.4670008,75.5460017 67.9290008,75.4620017 67.9290008,75.4620017 L67.9290008,75.2100017 L66.6270007,75.1680017 L66.4800007,75.3780017 L65.9550007,75.4200017 L65.9550007,75.9870017 L65.7030007,76.0500017 C65.5350007,76.1550017 65.7450007,76.5540017 65.7450007,76.5540017 C65.9970007,76.8060017 65.7030007,77.1840018 65.7030007,77.1840018 C65.4930007,77.3940018 65.8710007,77.7930018 65.8710007,77.7930018 C66.1440007,77.8560018 65.7030007,78.0660018 65.7030007,78.0660018 C65.7660007,78.4230018 65.9760007,78.5280018 65.9760007,78.5280018 C65.7660007,78.8850018 66.1230007,79.0530018 66.1230007,79.0530018 L66.1650007,79.6620019 L66.4170007,79.8090019 L66.4170007,80.2080019 L66.5640007,80.4600019 L67.1310008,80.4600019 L67.1100008,79.6200019 C66.6270007,79.0530018 67.5300008,78.9060018 67.5720008,79.1160018 C67.6140008,79.3260018 67.9920008,79.4310018 67.9920008,79.4310018 C68.0550008,79.9560019 68.6640008,80.2710019 68.8320008,79.7460019 C69.0000008,79.2210018 69.1470008,79.5360018 69.2520008,79.7880019 C69.3570008,80.0400019 70.0290009,80.6490019 70.0290009,80.6490019 L70.5540009,80.6490019 L70.6170009,81.1530019 C71.2050009,81.1110019 71.3940009,81.1950019 71.6250009,81.9930019 C71.8770009,82.812002 72.528001,83.022002 72.528001,83.022002 L73.011001,82.980002 C73.011001,82.560002 73.494001,83.043002 73.494001,83.274002 C73.494001,83.484002 74.4390011,84.303002 74.4390011,84.303002 L75.3840011,84.513002 L75.5520011,84.6600021 C76.1400011,85.3950021 76.7490011,86.0880021 77.4000012,86.7810021 L72.990001,91.1910023 C69.0840008,87.1800022 66.3120007,82.329002 64.7790007,77.1000018 L63.9600006,77.3100018 C65.5770007,82.812002 68.5170008,87.9150022 72.675001,92.0940023 C75.4890011,94.9080025 78.7230012,97.1970026 82.2300014,98.8560026 L82.6500014,98.1210026 C79.3320012,96.5460025 76.2870011,94.4250024 73.578001,91.7790023 L77.9880012,87.3690022 C80.2770013,89.5950022 82.9020014,91.3800023 85.7160015,92.6610024 L86.1360015,91.9260023 C83.3640014,90.6660023 80.8230013,88.9440022 78.5760012,86.7810021 L79.3950012,85.9620021 C79.4370012,86.0460021 79.4790013,86.1300021 79.4790013,86.2560021 C79.5420013,86.7810021 79.7940013,86.6760021 79.7940013,86.6760021 L81.7890013,86.6340021 L82.4820014,86.0250021 L84.2670014,85.9830021 C85.1700015,85.9410021 84.6240015,84.7020021 84.4350014,84.7020021 C84.3300014,84.6180021 84.3090014,84.450002 84.3300014,84.261002 C85.7580015,85.3530021 87.2910016,86.2560021 88.9080016,86.9490021 L89.3280016,86.2140021 C87.4590016,85.4370021 85.6950015,84.345002 84.1200014,83.022002 L83.1750014,82.140002 L87.5640016,77.7510018 C88.9920016,79.0950018 90.6300017,80.1030019 92.4150018,80.7330019 L92.4150018,80.7330019 C92.8980018,80.9010019 93.4020018,81.0480019 93.9060018,81.1740019 C93.8220018,81.2580019 93.7800018,81.3210019 93.8010018,81.3630019 C93.8640018,81.5310019 93.5280018,81.7200019 93.5280018,81.7200019 L93.2130018,81.8250019 L93.0030018,82.140002 L92.5830018,82.287002 L92.5200018,83.022002 L92.3100018,83.169002 L92.3100018,83.484002 L92.0580018,83.547002 L92.0580018,83.715002 L91.7010017,83.757002 L91.9110017,84.282002 L92.1840018,84.429002 C92.6670018,84.492002 92.4570018,85.1010021 92.4570018,85.1010021 L92.7300018,85.1430021 L92.8770018,85.5420021 L93.1500018,86.1090021 C93.2550018,86.5290021 93.5700018,86.4240021 93.7170018,86.4030021 C93.8640018,86.3610021 93.9900018,86.8230021 93.9900018,86.8230021 L95.3760019,86.8650021 C95.3760019,86.8650021 95.3130019,87.0120021 95.5440019,87.0750021 C95.6700019,87.1170022 96.2160019,87.1590022 96.6990019,87.1590022 L96.6990019,87.7890022 C94.1160018,87.7470022 91.6380017,87.1800022 89.3280016,86.2140021 L88.9080016,86.9490021 C91.3440017,87.9780022 93.9690018,88.5870022 96.6990019,88.6290022 L96.6990019,94.2780024 C92.9820018,94.2150024 89.3910016,93.3960024 86.0940015,91.9050023 L85.6740015,92.6400024 C89.0970016,94.1940024 92.8350018,95.0550025 96.6990019,95.1180025 L96.6990019,101.355003 C91.7430017,101.292003 86.9550015,100.179003 82.6080014,98.1000026 L82.1880014,98.8350026 C86.7870015,101.040003 91.8690017,102.195003 97.119002,102.195003 C102.621002,102.195003 107.934002,100.914003 112.722003,98.4990026 C115.956003,96.8610025 118.959003,94.6980025 121.605003,92.0730023 C124.377003,89.3010022 126.624003,86.1300021 128.283003,82.707002 L128.283003,82.707002 C130.530003,78.0660018 131.727003,72.9210016 131.727003,67.6080014 C131.727003,63.0930012 130.866003,58.704001 129.207003,54.6300009 C127.485003,50.3880007 124.923003,46.4820005 121.584003,43.1430004 C118.224003,39.7830003 114.318003,37.2210002 110.034002,35.4990001 L110.034002,35.4990001 C106.023002,33.861 101.655002,33 97.161002,33 L97.161002,33 Z M97.581002,33.84 C101.823002,33.882 105.960002,34.7220001 109.782002,36.2760001 L109.782002,36.2760001 C113.814003,37.8930002 117.531003,40.3080003 120.744003,43.4370004 L117.006003,47.1750006 C116.880003,47.2170006 116.733003,47.2170006 116.649003,47.1750006 C116.397003,47.0700006 116.754003,46.8180005 116.754003,46.8180005 L116.754003,46.5450005 L116.544003,46.3350005 C116.544003,46.3350005 115.956003,46.3980005 115.914003,46.2930005 C115.872003,46.1880005 115.767003,45.7260005 115.767003,45.7260005 L115.725003,45.1170005 L115.473003,45.0120005 L115.431003,44.8020005 L115.053003,44.8440005 L115.053003,44.4240005 L114.843003,44.3610005 L114.633003,44.2560004 L114.591003,43.8360004 L113.814003,43.7940004 L113.562003,43.4370004 L113.289003,43.0170004 L112.407003,42.9540004 L112.197003,42.7440004 L111.840003,42.6810004 L111.588003,42.5760004 L111.483003,42.7440004 L110.811002,42.7860004 L110.769002,42.9960004 C110.559002,43.1010004 109.992002,43.1010004 109.551002,43.1010004 C108.858002,42.7440004 108.207002,42.3870004 107.493002,42.0930004 L107.199002,42.8700004 C107.787002,43.1010004 108.270002,43.3950004 108.837002,43.6890004 C108.795002,43.8150004 108.753002,43.8990004 108.669002,43.8990004 C108.501002,43.8990004 108.564002,44.3610005 108.564002,44.3610005 C108.564002,44.3610005 109.026002,44.3610005 109.152002,44.4030005 C109.299002,44.4450005 109.299002,44.8020005 109.299002,44.8020005 C109.824002,44.7600005 110.034002,45.4740005 109.971002,45.6630005 C109.908002,45.8310005 110.181002,45.8310005 110.181002,45.8310005 C110.181002,45.8310005 110.181002,46.3980005 110.118002,46.5450005 C110.055002,46.6920005 110.580002,46.7970005 110.706002,47.0070006 C110.853002,47.2170006 110.643002,47.9310006 110.538002,47.9730006 C110.433002,48.0150006 110.811002,48.1200006 110.790002,48.2880006 C110.748002,48.4560006 110.895002,48.2880006 110.937003,48.5820006 C110.979003,48.8550006 111.042003,49.4640007 111.042003,49.4640007 L111.525003,49.5060007 C111.588003,49.0440006 112.491003,49.0230006 112.638003,49.0860006 C113.226003,49.2960006 113.688003,50.2200007 113.688003,50.4300007 C113.688003,50.6400007 113.310003,50.6820007 113.310003,50.6820007 L113.331003,50.9130007 L112.113003,52.1310008 C111.987003,52.0470008 111.861003,52.0050008 111.798003,52.0680008 C111.630003,52.1730008 111.693003,51.3330007 111.693003,51.3330007 C111.693003,51.3330007 112.008003,51.1230007 112.155003,51.2280007 C112.302003,51.3330007 110.979003,49.4640007 110.685002,49.6320007 C110.412002,49.8000007 109.782002,49.4640007 109.803002,49.1280006 C109.845002,48.8130006 108.543002,47.7420006 108.543002,47.7420006 C108.543002,47.7420006 108.123002,47.4690006 108.060002,47.6790006 C107.997002,47.8890006 107.850002,48.0360006 108.060002,48.1410006 C108.270002,48.2460006 108.228002,47.9730006 108.480002,48.2040006 C108.732002,48.4560006 109.173002,48.7710006 109.005002,48.9810006 C108.837002,49.1910006 108.627002,49.2540006 108.627002,49.2540006 L108.879002,49.5480007 L109.257002,49.5480007 L109.320002,50.1570007 C109.320002,50.1570007 109.740002,50.3670007 109.845002,50.6190007 C109.908002,50.7870007 109.929002,50.8920007 109.908002,50.9970007 C109.131002,50.4090007 108.312002,49.8630007 107.472002,49.3800007 C107.472002,49.3170006 107.493002,49.2540006 107.472002,49.1910006 C107.409002,48.9390006 107.745002,48.8340006 107.934002,49.1280006 L108.291002,49.0860006 L108.354002,48.7710006 L107.871002,48.3720006 L107.493002,48.3720006 C107.493002,48.3720006 107.451002,48.6450006 107.220002,48.5400006 C106.968002,48.4350006 107.115002,48.4770006 106.905002,48.4350006 C106.716002,48.3930006 106.758002,48.7920006 106.800002,48.9810006 C106.254002,48.7080006 105.708002,48.4560006 105.141002,48.2250006 L105.141002,48.2250006 C102.768002,47.2590006 100.227002,46.7130005 97.581002,46.6710005 L97.581002,43.4580004 C97.812002,43.4580004 97.917002,43.3740004 97.938002,43.2900004 C97.980002,43.1430004 98.001002,43.1220004 98.211002,43.0800004 C98.421002,43.0380004 98.169002,42.6180004 97.959002,42.6600004 C97.812002,42.6810004 97.665002,42.6390004 97.581002,42.5340004 L97.581002,40.9170003 C100.941002,40.9590003 104.175002,41.6310003 107.199002,42.8700004 L107.493002,42.0930004 C104.385002,40.8330003 101.025002,40.1400003 97.560002,40.0980003 L97.581002,33.84 L97.581002,33.84 Z M103.419002,35.3310001 L103.083002,35.5410001 L102.852002,35.3940001 L102.747002,35.5830001 L103.020002,35.7510001 L103.083002,35.7930001 L103.146002,35.7510001 L103.524002,35.4990001 L103.419002,35.3310001 L103.419002,35.3310001 Z M105.015002,36.1710001 L104.742002,36.4020001 L104.574002,36.2130001 L104.427002,36.3600001 L104.679002,36.6120001 L104.742002,36.6750001 L104.805002,36.6120001 L105.162002,36.3390001 L105.015002,36.1710001 L105.015002,36.1710001 Z M71.3520009,36.3600001 C67.8870008,37.7040002 64.1490006,39.0900002 61.9020006,42.6600004 C60.5790005,44.7390005 60.3900005,47.2170006 59.3610005,49.3590007 C61.2930005,47.5530006 63.5190006,46.2090005 65.1570007,44.0670004 C67.1100008,41.4840003 68.8110008,38.5860002 71.3520009,36.3600001 L71.3520009,36.3600001 Z M122.949003,36.3600001 C125.490003,38.6070002 127.212003,41.4840003 129.165003,44.0670004 C130.803003,46.2300005 133.029003,47.5530006 134.961003,49.3590007 C133.932003,47.1960006 133.722003,44.7390005 132.420003,42.6600004 C130.152003,39.0900002 126.435003,37.7040002 122.949003,36.3600001 L122.949003,36.3600001 Z M102.495002,36.8010002 C102.348002,36.8220002 102.201002,36.8850002 102.180002,36.9480002 C102.138002,37.0950002 101.928002,37.1160002 101.928002,37.1160002 L101.130002,37.1790002 C101.067002,37.3890002 100.647002,37.5360002 100.605002,37.3890002 L100.605002,37.3890002 C100.521002,37.0740002 100.080002,37.7880002 100.542002,37.9140002 C101.004002,38.0610002 101.445002,37.9140002 101.445002,37.9140002 L101.550002,37.7040002 L103.293002,37.7460002 C103.440002,37.5990002 103.503002,37.3890002 103.503002,37.3890002 C103.503002,37.3890002 103.923002,37.2420002 104.091002,37.3260002 C104.259002,37.3890002 104.133002,36.8220002 103.944002,36.9060002 C103.776002,36.9690002 103.419002,36.9480002 103.419002,36.9480002 L102.789002,36.9480002 C102.789002,36.8220002 102.642002,36.7800002 102.495002,36.8010002 L102.495002,36.8010002 Z M99.492002,37.5150002 L99.030002,37.6830002 L98.547002,37.9980002 L98.022002,38.0610002 L97.749002,38.3760002 L98.862002,38.4810002 L99.072002,38.8380002 L99.8700021,38.9010002 L100.395002,39.4260003 C100.857002,39.5730003 100.962002,39.3630003 100.668002,39.1110002 L100.668002,39.1110002 L100.206002,38.6490002 L100.206002,38.2500002 L100.059002,38.1030002 L99.9120021,37.5990002 L99.492002,37.5150002 L99.492002,37.5150002 Z M61.9860006,41.0850003 C60.2220005,41.5470003 58.7310004,42.6810004 57.4080004,44.1510004 C54.6360003,47.2380006 54.8670003,51.7740007 55.2450003,55.8270009 C55.3500003,57.087001 55.2870003,58.137001 55.1610003,59.418001 C56.0010003,57.696001 57.3660004,56.0580009 59.0040004,54.8400009 C62.6160006,52.1100008 66.5640007,48.5820006 66.6270007,43.9620004 C65.4300007,47.3010006 61.7970005,48.6870006 59.3820005,50.9550007 C58.1010004,52.1520008 57.1140004,53.6010008 56.5470003,55.1130009 L56.4630003,55.0500009 C56.7570003,53.7060008 57.3240004,52.5090008 57.7230004,51.2070007 C58.7310004,47.6580006 58.5420004,43.4370004 61.9860006,41.0850003 L61.9860006,41.0850003 Z M132.336003,41.0850003 C135.759003,43.4370004 135.570003,47.6580006 136.620004,51.2070007 C136.998004,52.4880008 137.565004,53.7060008 137.880004,55.0500009 L137.796004,55.1130009 C137.229004,53.6010008 136.242004,52.1520008 134.961003,50.9550007 C132.546003,48.6660006 128.913003,47.3010006 127.716003,43.9620004 C127.779003,48.6030006 131.727003,52.1310008 135.339003,54.8400009 C136.956004,56.0580009 138.342004,57.696001 139.182004,59.418001 C139.035004,58.137001 138.972004,57.066001 139.098004,55.8270009 C139.476004,51.7740007 139.707004,47.2380006 136.935004,44.1510004 C135.591003,42.6810004 134.100003,41.5260003 132.336003,41.0850003 L132.336003,41.0850003 Z M113.373003,41.7780003 C113.100003,41.7780003 112.680003,41.9670004 112.722003,42.1770004 C112.764003,42.3450004 112.890003,42.5340004 113.184003,42.5970004 L113.709003,42.7650004 C113.709003,42.7650004 114.360003,43.5420004 114.339003,43.1640004 C114.276003,42.0930004 113.772003,42.0720004 113.604003,41.8620004 C113.562003,41.8200004 113.478003,41.7780003 113.373003,41.7780003 L113.373003,41.7780003 Z M102.432002,42.2190004 L102.285002,42.5340004 L102.474002,42.6180004 L102.621002,42.3030004 L102.432002,42.2190004 L102.432002,42.2190004 Z M103.083002,42.5550004 C103.062002,42.5340004 102.873002,42.8070004 102.726002,42.8910004 C102.894002,42.9750004 103.125002,43.1010004 103.125002,43.1010004 C103.398002,43.1010004 103.587002,43.3110004 103.587002,43.4160004 C103.587002,43.5210004 103.965002,43.4790004 103.965002,43.4790004 L104.007002,43.2270004 L103.734002,42.8700004 L103.482002,42.7020004 C103.482002,42.7230004 103.083002,42.6810004 103.083002,42.5550004 L103.083002,42.5550004 L103.083002,42.5550004 Z M102.726002,42.8910004 C102.558002,42.8070004 102.453002,42.7650004 102.642002,42.8910004 C102.663002,42.9120004 102.705002,42.9120004 102.726002,42.8910004 Z M101.571002,42.7860004 L101.550002,42.9960004 L101.844002,43.0170004 L102.054002,43.3530004 L102.222002,43.2480004 L101.970002,42.8490004 L101.949002,42.8070004 L101.907002,42.8070004 C101.907002,42.8280004 101.571002,42.7860004 101.571002,42.7860004 Z M93.5070018,43.6680004 C93.3180018,43.6680004 93.1500018,43.7100004 93.1500018,43.7730004 C93.1920018,43.9410004 93.4650018,44.1720004 93.4650018,44.1720004 C93.4650018,44.1720004 93.9900018,44.2140004 94.0320018,44.3190004 C94.0740018,44.4240005 94.4100018,44.4660005 94.4520018,44.3610005 C94.4940018,44.2560004 94.6200019,44.0460004 94.3050018,44.0460004 C93.9900018,44.0460004 94.0530018,43.8780004 93.9480018,43.7520004 C93.8850018,43.6890004 93.6960018,43.6680004 93.5070018,43.6680004 L93.5070018,43.6680004 Z M121.332003,44.0250004 C124.461003,47.2170006 126.855003,50.9340007 128.493003,54.9660009 L128.493003,54.9660009 C130.047003,58.809001 130.887003,62.9460012 130.929003,67.1880014 L124.692003,67.1880014 C124.650003,63.7860012 123.978003,60.4890011 122.760003,57.423001 C122.592003,56.982001 122.403003,56.5410009 122.193003,56.1000009 C122.256003,55.9110009 122.361003,55.7220009 122.592003,55.7850009 C122.949003,55.8900009 122.697003,55.0080009 122.697003,55.0080009 C122.697003,55.0080009 122.214003,54.6510009 122.235003,54.4830009 C122.277003,54.3150008 121.752003,53.9580008 121.773003,53.8110008 C121.815003,53.6640008 121.311003,53.3910008 121.353003,53.2440008 C121.395003,53.0970008 121.101003,52.7190008 121.101003,52.7190008 L120.576003,52.2150008 L120.513003,51.9000008 L120.093003,51.8580007 L119.253003,50.8290007 L119.295003,50.5350007 L119.043003,50.4930007 L119.043003,50.0940007 L118.791003,49.9470007 L118.413003,49.9050007 L117.636003,49.0650006 L117.573003,48.6660006 L117.195003,48.6660006 L117.258003,48.0570006 L121.332003,44.0250004 L121.332003,44.0250004 Z M102.369002,44.0250004 L102.369002,44.3400005 L102.747002,44.3820005 L102.642002,44.0880004 L102.369002,44.0250004 L102.369002,44.0250004 Z M72.990001,44.0250004 L77.4000012,48.4560006 C75.3420011,50.5770007 73.620001,53.0130008 72.339001,55.7220009 C70.6590009,59.208001 69.6930009,63.0930012 69.6300009,67.2090014 L63.3930006,67.2090014 C63.4560006,62.1060012 64.6530007,57.192001 66.8370007,52.7400008 L66.8370007,52.7400008 C68.3910008,49.5690007 70.4490009,46.6290005 72.990001,44.0250004 L72.990001,44.0250004 Z M104.070002,45.6840005 C104.028002,45.6840005 104.007002,45.7050005 104.007002,45.7260005 C104.007002,45.8310005 104.154002,45.8310005 104.217002,46.0410005 C104.280002,46.2510005 104.259002,46.6080005 104.574002,46.6710005 C104.889002,46.7340005 104.952002,46.8180005 104.994002,46.9440006 C105.036002,47.0910006 105.414002,47.1120006 105.414002,47.1120006 L105.687002,47.2590006 L106.527002,47.9730006 L106.527002,47.7000006 C106.527002,47.7000006 106.485002,47.4270006 106.317002,47.4270006 C106.149002,47.4270006 105.834002,47.2170006 105.897002,47.0700006 C105.960002,46.9230006 105.309002,46.7970005 105.309002,46.7970005 C105.309002,46.7970005 104.721002,46.2300005 104.931002,46.2930005 C105.141002,46.3560005 105.036002,46.0410005 105.036002,46.0410005 C105.036002,46.0410005 104.616002,46.1040005 104.511002,46.0830005 C104.406002,46.0410005 104.448002,45.7260005 104.448002,45.7260005 C104.448002,45.7260005 104.175002,45.6630005 104.070002,45.6840005 L104.070002,45.6840005 Z M84.8760015,45.9360005 L84.7290015,46.0830005 L84.9390015,46.2930005 L85.0860015,46.1460005 L84.8760015,45.9360005 L84.8760015,45.9360005 Z M54.6570003,47.4060006 C54.5730003,47.3850006 54.5100003,47.4690006 54.4470003,47.4900006 C52.0530002,50.5560007 50.4570001,53.8950008 50.4570001,57.990001 C50.4570001,63.0510012 53.3760002,66.6000013 53.7330002,71.3460015 C54.4890003,66.3900013 58.6470004,62.8620012 60.8100005,58.473001 C61.6500005,56.7720009 62.1750006,54.8400009 62.4060006,52.9710008 C62.0910006,53.7690008 61.6080005,54.5040009 60.9360005,55.1340009 C58.1220004,57.801001 54.8250003,60.4050011 54.1950002,64.1850012 C54.1110002,64.7310013 54.0480002,65.2770013 53.9010002,65.8020013 C53.7750002,65.8650013 53.7750002,65.7180013 53.7330002,65.6760013 L54.0900002,61.0140011 C54.4260003,56.4780009 52.0110002,51.4170007 54.6570003,47.4060006 L54.6570003,47.4060006 Z M139.665004,47.4060006 C142.311004,51.4170007 139.896004,56.4780009 140.232004,61.0350011 L140.589004,65.6970013 C140.547004,65.7390013 140.547004,65.8650013 140.421004,65.8230013 C140.274004,65.2980013 140.211004,64.7520013 140.127004,64.2060012 C139.497004,60.4470011 136.179004,57.822001 133.386003,55.1550009 C132.714003,54.5250009 132.231003,53.7900008 131.916003,52.9920008 C132.147003,54.8610009 132.672003,56.7930009 133.512003,58.494001 C135.675003,62.8620012 139.833004,66.3900013 140.589004,71.3670015 C140.946004,66.6000013 143.865004,63.0720012 143.865004,58.011001 C143.865004,53.9160008 142.269004,50.5560007 139.875004,47.5110006 C139.791004,47.4480006 139.749004,47.3850006 139.665004,47.4060006 L139.665004,47.4060006 Z M96.7410019,47.4060006 L96.7410019,53.6430008 C94.7880019,53.7060008 92.9190018,54.1680008 91.2390017,54.9450009 L91.6170017,55.6800009 L91.6170017,55.6800009 C93.2130018,54.9450009 94.9350019,54.5250009 96.7410019,54.4620009 L96.7410019,60.1320011 C96.0060019,60.1740011 95.2920019,60.3210011 94.6200019,60.5730011 L94.6200019,60.5730011 L94.5780019,60.1740011 L94.7460019,60.0690011 L94.4730018,59.9640011 L94.2630018,60.2370011 L94.2000018,60.5520011 L93.8430018,60.6150011 L93.8430018,60.7830011 L93.5910018,60.7830011 L93.5910018,60.9930011 C93.0870018,61.2660011 92.6040018,61.6020011 92.1630018,62.0010012 L88.1520016,57.990001 C89.1810016,57.024001 90.3570017,56.2260009 91.6170017,55.6380009 L91.2390017,54.9030009 C89.8950017,55.5330009 88.6560016,56.3730009 87.5850016,57.402001 L83.1750014,52.9920008 C84.7290015,51.5010007 86.4720015,50.3040007 88.3620016,49.3800007 C90.9240017,48.1620006 93.7800018,47.4480006 96.7410019,47.4060006 L96.7410019,47.4060006 Z M97.581002,47.4060006 C100.101002,47.4480006 102.558002,47.9730006 104.826002,48.8970006 C105.456002,49.1490006 106.065002,49.4430007 106.653002,49.7580007 C106.674002,49.7790007 106.716002,49.8000007 106.758002,49.8210007 C107.745002,50.3460007 108.690002,50.9760007 109.572002,51.6690007 L109.572002,51.6690007 C109.614002,51.9210008 109.887002,52.0260008 109.887002,52.0260008 L110.055002,52.0470008 C110.160002,52.1310008 110.286002,52.2360008 110.391002,52.3200008 L110.391002,52.6140008 C110.643002,52.5510008 111.021003,52.8450008 111.084003,53.0760008 L106.737002,57.423001 C105.498002,56.2470009 104.070002,55.3440009 102.537002,54.6930009 C100.983002,54.0420008 99.303002,53.6850008 97.560002,53.6220008 L97.581002,47.4060006 L97.581002,47.4060006 Z M77.9880012,49.0230006 L81.9990014,53.0340008 C80.3820013,54.7140009 79.0590012,56.6670009 78.0510012,58.788001 L78.0510012,58.788001 C76.8750011,61.3500011 76.1820011,64.1850012 76.1190011,67.1880014 L70.4700009,67.1880014 C70.5330009,63.2820012 71.4150009,59.5230006 73.074001,56.1000009 C74.292001,53.5170008 75.9510011,51.1230007 77.9880012,49.0230006 L77.9880012,49.0230006 Z M113.646003,51.7110007 C114.129003,52.0050008 114.507003,52.6560008 114.444003,52.7820008 C114.381003,52.9290008 114.864003,52.8870008 114.864003,52.8870008 C114.927003,52.2570008 115.536003,52.4670008 115.557003,52.6770008 C115.599003,52.8870008 115.704003,53.3490008 115.704003,53.3490008 L115.872003,53.6640008 L116.124003,53.9160008 L116.502003,53.8740008 L116.607003,54.0840008 L117.069003,54.1470008 C117.069003,54.1470008 117.447003,54.5670009 117.489003,54.6720009 C117.531003,54.7770009 118.056003,54.7350009 118.182003,54.7770009 C118.329003,54.8190009 118.539003,54.9240009 118.560003,55.0920009 C118.602003,55.2600009 118.812003,55.5540009 118.812003,55.5540009 C118.812003,55.5540009 119.232003,55.6590009 119.274003,55.8060009 C119.316003,55.9530009 119.484003,56.2680009 119.484003,56.2680009 L119.841003,56.5620009 L119.883003,56.8770009 L120.261003,56.919001 L120.366003,57.339001 L120.996003,57.297001 L121.353003,57.045001 C121.458003,56.982001 121.563003,56.919001 121.647003,56.8560009 C121.773003,57.150001 121.899003,57.444001 122.004003,57.738001 C123.180003,60.6990011 123.831003,63.8910012 123.873003,67.1670014 L118.224003,67.1670014 C118.203003,66.1590013 118.119003,65.1720013 117.951003,64.2060012 C117.993003,64.0590012 118.014003,63.9330012 117.951003,63.8910012 C117.846003,63.7860012 118.056003,63.2820012 118.056003,63.2820012 C118.056003,63.2820012 118.203003,62.9880012 118.056003,62.7150012 C117.909003,62.4210012 118.098003,62.1060012 118.203003,61.9800012 L117.930003,61.8330011 L117.657003,61.7910011 L117.447003,61.8330011 C117.384003,61.6020011 117.321003,61.3920011 117.237003,61.1610011 L117.237003,61.1610011 L117.405003,61.2030011 L117.405003,60.9930011 L117.153003,60.9300011 C117.111003,60.7830011 117.048003,60.6360011 117.006003,60.4890011 L116.964003,59.7540011 L116.712003,59.5860011 L116.775003,59.313001 L116.502003,59.208001 L116.649003,58.746001 L116.397003,58.242001 L116.040003,58.242001 C115.872003,57.906001 115.704003,57.570001 115.515003,57.255001 C115.557003,57.234001 115.599003,57.213001 115.662003,57.192001 C115.851003,57.150001 115.914003,57.129001 115.935003,57.129001 L115.893003,56.7510009 L115.578003,56.5410009 L115.473003,56.1210009 C115.473003,56.1210009 115.095003,56.1840009 115.116003,56.3940009 C115.116003,56.4360009 115.095003,56.4780009 115.053003,56.4990009 C114.801003,56.1000009 114.549003,55.7220009 114.276003,55.3440009 C114.276003,55.3230009 114.297003,55.3020009 114.297003,55.2810009 C114.444003,55.0290009 114.360003,54.8820009 114.129003,54.8190009 C113.877003,54.7560009 113.877003,54.7560009 113.814003,54.4620009 C113.751003,54.1890008 113.457003,54.1050008 113.457003,54.1050008 L113.352003,53.6850008 L113.100003,53.8530008 C112.953003,53.6850008 112.827003,53.5380008 112.680003,53.3700008 L112.806003,52.9710008 C112.659003,52.9500008 112.596003,52.8660008 112.554003,52.7820008 L113.646003,51.7110007 L113.646003,51.7110007 Z M91.2180017,52.5510008 L91.0920017,52.7190008 L91.3020017,52.8870008 L91.4280017,52.7190008 L91.2180017,52.5510008 Z M90.4200017,52.6980008 L90.4620017,53.0970008 L90.9870017,53.0970008 C91.1970017,53.0970008 90.8190017,52.8450008 90.8190017,52.8450008 C90.8190017,52.8450008 90.3780017,52.8870008 90.4200017,52.6980008 L90.4200017,52.6980008 Z M113.625003,52.7610008 L113.415003,52.7820008 L113.457003,53.0970008 L113.667003,53.0760008 L113.625003,52.7610008 L113.625003,52.7610008 Z M82.5660014,53.6220008 L86.9760015,58.032001 C86.0520015,58.998001 85.2750015,60.1110011 84.6660015,61.3080011 C84.5190015,61.3080011 84.3720014,61.3290011 84.3300014,61.4550011 C84.2250014,61.7280011 83.7630014,61.6650011 83.7630014,61.6650011 L83.7000014,61.8120011 L83.3430014,61.8750011 L83.2800014,62.0850012 L82.8600014,62.1480012 L83.9100014,62.1060012 C84.1830014,62.0640012 83.8050014,62.7150012 83.6370014,62.6730012 L83.1540014,62.7150012 L82.9860014,62.8830012 L82.5240014,62.8830012 L82.3140014,63.1770012 L81.6420013,63.1350012 C81.6420013,63.1350012 81.2640013,63.4500012 81.2850013,63.5550012 C81.3270013,63.6600012 81.2220013,63.9750012 81.1170013,63.9750012 C81.0120013,63.9750012 80.8020013,64.2900012 80.8650013,64.3950012 C80.9280013,64.5000013 80.6550013,64.8570013 80.6550013,64.8570013 L80.5920013,65.2140013 L80.3820013,65.2770013 L80.3820013,66.2430013 L79.9620013,66.5160013 L79.9620013,66.9360013 L79.7730013,67.1460014 L76.9380011,67.1460014 C77.0010012,64.3320012 77.6310012,61.6230011 78.7650012,59.145001 C79.7100013,57.150001 80.9910013,55.2600009 82.5660014,53.6220008 L82.5660014,53.6220008 Z M111.672003,53.6850008 C111.819003,53.8320008 111.798003,53.8740008 112.008003,54.0210008 C112.071003,54.0630008 112.134003,54.1050008 112.197003,54.1050008 C112.302003,54.2310008 112.428003,54.3570008 112.533003,54.4830009 L112.449003,54.5880009 C112.449003,54.9870009 112.638003,54.8820009 112.827003,54.8400009 C112.890003,54.9030009 112.932003,54.9870009 112.995003,55.0500009 C113.016003,55.2810009 113.016003,55.6170009 113.394003,55.5750009 C113.394003,55.5750009 113.394003,55.5750009 113.415003,55.5750009 C113.856003,56.1840009 114.276003,56.8140009 114.654003,57.444001 L114.675003,57.486001 L114.675003,57.486001 C114.738003,57.591001 114.801003,57.696001 114.843003,57.801001 C114.759003,57.864001 114.717003,57.948001 114.717003,57.948001 L114.150003,58.011001 L114.150003,58.578001 L113.877003,58.683001 L113.919003,59.040001 L114.297003,58.998001 C114.297003,58.998001 114.297003,59.418001 114.402003,59.250001 C114.507003,59.082001 115.389003,59.292001 115.305003,59.7120011 C115.284003,59.8800011 116.187003,60.3420011 116.082003,60.9090011 C116.145003,60.9300011 116.208003,60.9510011 116.250003,60.9720011 C116.418003,61.4550011 116.565003,61.9590012 116.691003,62.4420012 L116.628003,62.5680012 C116.628003,62.5680012 116.691003,62.6100012 116.754003,62.6730012 C116.859003,63.1140012 116.964003,63.5550012 117.027003,63.9960012 C117.006003,64.3740012 116.922003,64.7520013 116.712003,64.8570013 C116.292003,65.1090013 116.754003,64.9620013 116.754003,64.9620013 L116.691003,65.7390013 C116.796003,66.0960013 116.964003,65.9070013 117.069003,65.7390013 C117.132003,65.6550013 117.174003,65.5920013 117.237003,65.5290013 C117.300003,66.0540013 117.321003,66.6000013 117.342003,67.1460014 L113.121003,67.1460014 C113.142003,67.1250014 113.184003,67.0410014 113.184003,67.0410014 L113.352003,66.5370013 L113.940003,66.3690013 L114.003003,65.9070013 L113.688003,65.8650013 C113.688003,65.8650013 114.045003,65.2350013 114.213003,65.2350013 C114.381003,65.2350013 115.536003,65.2350013 115.641003,65.1720013 C115.746003,65.1090013 115.956003,64.5420013 115.956003,64.4370012 C115.956003,64.3320012 116.229003,64.2900012 116.334003,64.2690012 C116.439003,64.2270012 116.691003,63.9540012 116.754003,63.8070012 C116.817003,63.6600012 116.586003,62.7780012 116.439003,62.9250012 C116.292003,63.0720012 115.977003,63.1350012 115.977003,63.1350012 L115.872003,63.5340012 L115.704003,63.6810012 C115.704003,63.6810012 115.746003,63.7860012 115.704003,64.0380012 C115.662003,64.2900012 115.347003,64.4370012 115.347003,64.4370012 L115.200003,64.6050013 C115.200003,64.6050013 114.360003,64.6470013 114.255003,64.6050013 C113.940003,64.4580013 114.150003,64.0380012 114.360003,64.0800012 C114.570003,64.1220012 114.318003,63.4710012 114.318003,63.4710012 L114.591003,63.4290012 C114.591003,63.4290012 114.633003,62.7990012 114.738003,62.7990012 C114.843003,62.7990012 114.696003,62.5890012 114.570003,62.4840012 C114.423003,62.3790012 114.255003,62.0220012 114.108003,62.0640012 C113.961003,62.1060012 113.415003,62.0640012 113.415003,62.0640012 L113.310003,62.2740012 L112.932003,62.3370012 C112.932003,62.3370012 112.974003,62.6100012 112.890003,62.6940012 C112.680003,62.9460012 111.882003,63.4710012 112.218003,62.5890012 L112.323003,62.3790012 L112.323003,62.0640012 L111.693003,62.0220012 C111.693003,62.0220012 111.378003,61.9170011 111.378003,61.7700011 C111.378003,61.6230011 111.336003,61.4550011 111.336003,61.4550011 L110.601002,60.6360011 L109.719002,60.5310011 L109.656002,60.3630011 L109.131002,60.3000011 C109.047002,60.2580011 108.984002,60.2370011 108.900002,60.2160011 C108.648002,59.8170011 108.396002,59.4390011 108.102002,59.082001 C108.102002,59.061001 108.081002,59.019001 108.081002,58.998001 C108.060002,58.872001 107.661002,58.326001 107.451002,58.305001 C107.367002,58.221001 107.304002,58.137001 107.220002,58.053001 L111.672003,53.6850008 L111.672003,53.6850008 Z M115.095003,54.1260008 C115.053003,54.1260008 115.011003,54.1680008 115.011003,54.2310008 C115.011003,54.3780008 115.179003,54.4410009 115.116003,54.6300009 C115.053003,54.7980009 115.179003,54.9450009 115.326003,54.9450009 C115.473003,54.9450009 115.578003,55.0080009 115.704003,55.0920009 C115.851003,55.1550009 115.956003,55.2600009 116.061003,55.4070009 L116.418003,55.3020009 C116.418003,55.3020009 116.460003,54.9450009 116.313003,55.0500009 C116.166003,55.1550009 116.061003,54.7980009 115.935003,54.8400009 C115.788003,54.8820009 115.725003,54.6930009 115.578003,54.5250009 C115.431003,54.3570008 115.473003,54.3150008 115.305003,54.2100008 C115.221003,54.1470008 115.158003,54.1050008 115.095003,54.1260008 L115.095003,54.1260008 Z M97.581002,54.4830009 C99.198002,54.5250009 100.773002,54.8820009 102.243002,55.4910009 C103.671002,56.1000009 104.994002,56.940001 106.149002,58.032001 L105.918002,58.263001 C105.813002,58.158001 105.435002,58.074001 105.435002,57.948001 C105.435002,57.801001 105.078002,57.633001 105.120002,57.843001 C105.162002,58.053001 104.868002,58.158001 104.805002,58.095001 C104.742002,58.032001 104.532002,58.305001 104.532002,58.305001 C104.532002,58.410001 104.469002,58.557001 104.679002,58.599001 C104.889002,58.641001 105.267002,58.452001 105.309002,58.662001 C105.330002,58.725001 105.330002,58.788001 105.351002,58.851001 L103.965002,60.2370011 C103.776002,60.2370011 103.608002,60.2160011 103.608002,60.2160011 C103.503002,60.5310011 103.020002,60.1740011 103.146002,59.9640011 C103.293002,59.7540011 103.293002,59.6070011 103.293002,59.6070011 L103.125002,59.5650011 L102.915002,59.9640011 C102.432002,59.9640011 102.285002,60.2370011 102.390002,60.4260011 C102.495002,60.5940011 102.243002,60.3840011 102.180002,60.6360011 C102.117002,60.8880011 102.222002,60.8880011 102.432002,60.9930011 C102.642002,61.0980011 102.327002,61.0980011 102.474002,61.2660011 C102.558002,61.3710011 102.768002,61.3500011 102.831002,61.3710011 L102.558002,61.6440011 C102.327002,61.7280011 102.033002,61.6650011 102.033002,61.6650011 C102.033002,61.7280011 101.991002,61.7910011 101.928002,61.8120011 C101.361002,61.3500011 100.752002,60.9720011 100.080002,60.6990011 C100.185002,60.6150011 100.374002,60.6150011 100.458002,60.3840011 C100.605002,59.9850011 100.668002,59.355001 100.668002,59.355001 C100.668002,59.355001 100.101002,59.313001 100.080002,59.5020011 C100.038002,59.6700011 99.7020021,59.7750011 99.7020021,59.7750011 C99.7020021,59.7750011 99.429002,59.8800011 99.534002,60.0270011 C99.6390021,60.1740011 99.324002,60.2370011 99.324002,60.2370011 C99.324002,60.2370011 99.345002,60.3420011 99.345002,60.4260011 C98.799002,60.2580011 98.211002,60.1530011 97.623002,60.1320011 L97.581002,54.4830009 L97.581002,54.4830009 Z M116.145003,55.6800009 L115.725003,55.7220009 C115.830003,55.8690009 116.040003,55.9740009 116.040003,56.1210009 C116.040003,56.2680009 115.977003,56.3730009 116.187003,56.3940009 C116.397003,56.4360009 116.544003,56.3520009 116.607003,56.5410009 C116.670003,56.7090009 116.670003,57.003001 116.649003,57.150001 C116.607003,57.297001 116.691003,57.507001 116.859003,57.507001 C117.027003,57.507001 117.069003,57.549001 117.069003,57.654001 C117.069003,57.759001 117.279003,57.255001 117.279003,57.255001 C117.111003,57.108001 116.964003,56.7930009 116.964003,56.7930009 C116.964003,56.7930009 116.796003,56.2890009 116.796003,56.2260009 C116.796003,56.1630009 116.544003,56.0790009 116.439003,56.0580009 C116.313003,55.9950009 116.145003,55.6800009 116.145003,55.6800009 L116.145003,55.6800009 Z M112.827003,55.8270009 L112.470003,55.8690009 L112.491003,56.0790009 L112.848003,56.0370009 L112.827003,55.8270009 L112.827003,55.8270009 Z M113.037003,56.0790009 L113.037003,56.2470009 L113.247003,56.2470009 L113.247003,56.0790009 L113.037003,56.0790009 Z M112.764003,56.4150009 C112.764003,56.4150009 112.554003,56.6880009 112.134003,56.5620009 C112.134003,56.5620009 112.071003,57.234001 111.861003,57.381001 L111.378003,57.381001 C111.378003,57.381001 111.483003,57.549001 111.588003,57.675001 C111.693003,57.780001 111.945003,57.990001 111.693003,58.137001 C111.441003,58.284001 111.735003,58.242001 111.735003,58.242001 C111.735003,58.242001 111.693003,58.977001 111.378003,58.872001 C111.063003,58.767001 110.958003,59.271001 110.958003,59.397001 C110.958003,59.5440011 112.197003,59.5860011 112.008003,59.397001 C111.903003,59.292001 112.155003,59.040001 112.155003,59.040001 C112.155003,59.040001 112.995003,59.103001 113.163003,59.103001 C113.331003,59.103001 113.478003,59.061001 113.373003,58.893001 C113.268003,58.725001 112.953003,58.746001 112.953003,58.746001 C112.953003,58.746001 112.533003,58.851001 112.155003,58.641001 C111.777003,58.431001 112.218003,58.368001 112.302003,58.368001 C112.365003,58.368001 112.680003,58.116001 112.554003,57.948001 C112.407003,57.780001 112.554003,57.444001 112.554003,57.591001 C112.554003,57.738001 112.932003,57.801001 113.016003,57.696001 C113.079003,57.591001 113.016003,57.276001 112.848003,57.171001 C112.680003,57.066001 113.163003,57.003001 113.016003,56.8140009 C112.827003,56.6460009 112.764003,56.4150009 112.764003,56.4150009 L112.764003,56.4150009 Z M113.457003,57.486001 L113.457003,57.738001 L113.667003,57.738001 L113.667003,57.486001 L113.457003,57.486001 Z M113.919003,57.612001 L113.814003,57.822001 L114.003003,57.927001 L114.108003,57.717001 L113.919003,57.612001 L113.919003,57.612001 Z M117.321003,57.906001 C117.237003,57.927001 117.384003,58.326001 117.300003,58.389001 C117.195003,58.452001 117.132003,58.599001 117.027003,58.704001 C116.922003,58.809001 117.237003,58.956001 117.237003,59.061001 C117.237003,59.166001 117.300003,59.6910011 117.300003,59.6910011 C117.300003,59.6910011 117.552003,59.7960011 117.573003,59.9430011 C117.615003,60.0900011 117.573003,60.3630011 117.678003,60.4050011 C117.783003,60.4470011 117.993003,60.5730011 117.930003,60.7200011 C117.867003,60.8670011 117.867003,61.1400011 117.867003,61.1400011 L118.014003,61.4550011 L118.287003,61.6230011 C118.287003,61.6230011 118.392003,60.7830011 118.224003,60.7410011 C118.056003,60.6990011 118.119003,60.2160011 118.119003,60.2160011 C118.119003,60.2160011 118.287003,59.5440011 118.014003,59.5440011 C117.741003,59.5440011 117.951003,59.187001 117.762003,59.082001 C117.594003,58.977001 117.699003,58.473001 117.615003,58.347001 C117.552003,58.200001 117.552003,58.032001 117.363003,57.927001 C117.342003,57.906001 117.321003,57.885001 117.321003,57.906001 L117.321003,57.906001 Z M108.837002,58.578001 L108.480002,58.620001 L108.501002,58.830001 L108.858002,58.788001 L108.837002,58.578001 L108.837002,58.578001 Z M103.545002,58.599001 C103.440002,58.599001 103.335002,58.620001 103.335002,58.620001 L102.768002,58.683001 L102.726002,58.935001 L103.104002,58.977001 C103.104002,58.977001 103.272002,59.124001 103.272002,59.229001 C103.272002,59.334001 103.524002,59.4390011 103.650002,59.4390011 C103.797002,59.4390011 104.175002,59.166001 104.175002,59.166001 C104.175002,59.166001 104.343002,58.662001 104.217002,58.704001 C104.070002,58.746001 103.797002,58.956001 103.755002,58.746001 C103.776002,58.620001 103.650002,58.599001 103.545002,58.599001 L103.545002,58.599001 Z M87.5640016,58.620001 L90.9870017,62.0430012 L90.6510017,62.0220012 C90.5040017,62.3370012 90.1680017,61.9800012 90.1680017,61.9800012 C90.1050017,61.7700011 89.6010017,61.9800012 89.6010017,61.9800012 C89.6010017,62.3790012 88.9290016,61.8120011 88.9290016,61.8120011 L87.7110016,60.9300011 C87.0180016,60.3000011 85.9680015,61.0980011 85.9260015,61.2870011 C85.9470015,61.5600011 85.7160015,61.5600011 85.4850015,61.5180011 C86.0520015,60.4680011 86.7450015,59.5020011 87.5640016,58.620001 L87.5640016,58.620001 Z M101.319002,58.704001 L101.109002,58.746001 L101.172002,59.061001 L101.382002,59.019001 L101.319002,58.704001 L101.319002,58.704001 Z M102.453002,58.767001 L101.676002,58.809001 L101.676002,59.019001 L102.453002,58.977001 L102.453002,58.767001 Z M95.9010019,58.830001 L95.9010019,59.040001 L96.1740019,59.040001 L96.1740019,58.830001 L95.9010019,58.830001 Z M97.686002,58.872001 L97.665002,59.082001 L97.917002,59.124001 L97.938002,58.914001 L97.686002,58.872001 L97.686002,58.872001 Z M98.148002,58.977001 L98.127002,59.187001 L98.379002,59.229001 L98.400002,59.019001 L98.148002,58.977001 L98.148002,58.977001 Z M95.3130019,59.040001 L95.2920019,59.250001 L95.5440019,59.292001 L95.5650019,59.082001 L95.3130019,59.040001 Z M101.067002,59.061001 L100.962002,59.103001 L101.025002,59.313001 L101.130002,59.271001 L101.067002,59.061001 Z M109.530002,59.145001 L109.425002,59.397001 L109.614002,59.4810011 L109.719002,59.229001 L109.530002,59.145001 Z M106.926002,59.187001 C106.926002,59.187001 107.136002,59.229001 107.304002,59.271001 C107.472002,59.4810011 107.640002,59.6910011 107.787002,59.9010011 L107.346002,59.8380011 L107.073002,59.7960011 L106.548002,59.7540011 C106.023002,60.1110011 105.918002,60.5310011 105.918002,60.5310011 C105.687002,60.9930011 105.162002,60.5100011 105.162002,60.1740011 L106.086002,59.250001 C106.149002,59.250001 106.191002,59.250001 106.254002,59.250001 C106.464002,59.250001 106.926002,59.187001 106.926002,59.187001 L106.926002,59.187001 Z M98.610002,59.250001 L98.610002,59.4600011 L98.883002,59.4600011 L98.883002,59.250001 C98.904002,59.250001 98.610002,59.250001 98.610002,59.250001 Z M95.0820019,59.292001 L95.0400019,59.5020011 L95.3130019,59.5650011 L95.3550019,59.355001 C95.3760019,59.376001 95.0820019,59.292001 95.0820019,59.292001 Z M94.9980019,59.5860011 L94.7880019,59.6280011 L94.8300019,59.8380011 L95.0400019,59.7960011 L94.9980019,59.5860011 Z M99.135002,59.5860011 L98.925002,59.5860011 L98.925002,59.8380011 L99.135002,59.8380011 L99.135002,59.5860011 L99.135002,59.5860011 Z M110.118002,59.6910011 C109.992002,59.6910011 109.824002,59.7120011 109.740002,59.7330011 C109.572002,59.7750011 109.593002,59.9010011 109.740002,60.0900011 L110.160002,60.0270011 C110.160002,60.0270011 110.475002,59.8800011 110.412002,59.7750011 C110.391002,59.6910011 110.265002,59.6910011 110.118002,59.6910011 L110.118002,59.6910011 Z M107.787002,59.9010011 C107.913002,60.0900011 108.039002,60.2790011 108.165002,60.4470011 C108.123002,60.5310011 108.102002,60.6570011 108.144002,60.7830011 C108.249002,61.3080011 108.417002,61.5180011 108.081002,61.5180011 C107.724002,61.5180011 107.661002,61.2450011 107.661002,61.2450011 C107.661002,61.2450011 107.388002,61.1400011 107.388002,61.2870011 C107.388002,61.4340011 107.283002,61.7070011 107.388002,61.8540011 C107.493002,62.0010012 107.241002,62.2110012 107.136002,62.1060012 C107.031002,62.0010012 106.758002,61.6860011 106.821002,61.5810011 C106.884002,61.4760011 106.338002,60.8040011 106.884002,60.6990011 C107.451002,60.5940011 106.842002,60.2790011 107.052002,60.1950011 L107.325002,60.0480011 L107.598002,60.0480011 L107.787002,59.9010011 L107.787002,59.9010011 Z M49.5330001,60.0270011 C48.966,61.2030011 48.756,62.5260012 48.462,63.8070012 C47.832,67.1250014 48.462,70.6320015 49.3650001,73.6980016 C50.4990001,77.5200018 54.2160002,80.2290019 56.1270003,83.736002 L56.3790003,83.946002 C56.1060003,82.0560019 55.9590003,79.9980019 56.5050003,78.1920018 C57.3240004,75.2940017 58.3530004,72.4800016 58.8780004,69.4770014 C59.2980004,67.1460014 59.7810005,64.5210013 59.5080005,62.2740012 C59.1930004,63.4920012 58.8780004,64.6890013 58.2060004,65.7390013 C55.6650003,69.6660015 53.0610002,74.2860016 54.8460003,79.2840018 C54.8040003,79.3470018 54.7410003,79.4100018 54.6780003,79.3680018 C53.9640002,77.7090018 53.7960002,75.8400017 53.3340002,74.0760016 C52.0950002,69.3720014 48.483,65.4450013 49.5330001,60.0270011 L49.5330001,60.0270011 Z M144.789004,60.0270011 C145.839004,65.4450013 142.248004,69.3720014 141.009004,74.0550016 C140.547004,75.8190017 140.379004,77.7090018 139.665004,79.3470018 C139.602004,79.3890018 139.539004,79.3050018 139.497004,79.2630018 C141.282004,74.2650016 138.678004,69.6660015 136.137004,65.7180013 C135.465003,64.6890013 135.150003,63.4710012 134.835003,62.2530012 C134.562003,64.5210013 135.045003,67.1250014 135.465003,69.4560014 C136.011003,72.4590016 137.019004,75.2730017 137.838004,78.1710018 C138.384004,79.9770019 138.237004,82.0140019 137.964004,83.925002 L138.216004,83.715002 C140.106004,80.2290019 143.844004,77.4990018 144.978004,73.6770016 C145.881004,70.6320015 146.511004,67.1040014 145.881004,63.7860012 C145.566004,62.5470012 145.335004,61.2030011 144.789004,60.0270011 L144.789004,60.0270011 Z M97.098002,60.9510011 L97.161002,61.7910011 L96.7830019,61.6650011 L96.5310019,61.6650011 L96.4260019,61.4550011 L96.2160019,61.4130011 L96.2160019,62.1900012 L96.4260019,62.3580012 L96.5940019,62.5260012 L96.9510019,62.5680012 L97.0140019,62.9880012 L97.896002,63.0300012 L98.001002,63.1980012 L98.526002,63.2400012 L99.534002,64.2690012 L99.471002,64.5840013 L99.303002,64.6890013 C99.366002,64.9410013 98.841002,64.7940013 98.841002,64.7940013 L98.841002,65.0040013 L99.093002,65.0460013 L99.345002,65.1930013 L99.7020021,64.5840013 C100.080002,64.3320012 100.269002,64.6890013 100.290002,64.8990013 C100.332002,65.1090013 100.122002,65.0670013 100.122002,65.0670013 L100.122002,65.5710013 L100.332002,65.6340013 C100.689002,66.0540013 100.185002,66.3060013 100.185002,66.3060013 L100.080002,66.6630013 C99.9750021,66.9780014 99.5970021,66.9150013 99.5970021,66.9150013 L99.450002,67.1250014 L99.030002,67.2300014 L99.8490021,67.3350014 C99.9330021,67.0410014 100.143002,66.9780014 100.248002,67.1250014 C100.353002,67.2720014 100.353002,67.5240014 100.353002,67.5240014 L100.563002,67.5660014 L100.521002,67.9650014 L100.731002,68.0280014 L100.731002,69.1620014 L100.983002,69.4350014 C101.403002,69.2670014 101.403002,69.5400015 101.193002,69.6870015 C100.983002,69.8340015 101.130002,70.4640015 101.130002,70.4640015 L100.962002,70.6320015 L100.962002,70.9260015 L100.752002,71.0730015 L100.752002,71.4720015 C100.395002,71.3040015 99.9750021,71.3670015 99.8700021,71.4720015 C99.555002,71.2620015 98.883002,71.3250015 98.883002,71.5140015 C99.093002,71.7870015 98.631002,71.8710015 98.631002,71.8710015 L98.379002,72.1440016 C98.547002,72.5010016 98.211002,72.5430016 98.211002,72.5430016 L98.211002,73.2150016 L97.791002,73.6140016 L97.812002,74.2440016 C97.602002,74.2650016 97.371002,74.2860016 97.161002,74.2860016 C95.5230019,74.2860016 93.9900018,73.6980016 92.7720018,72.6270016 C92.7930018,72.6060016 92.8140018,72.6060016 92.8350018,72.5640016 C93.0030018,72.2910016 93.2970018,72.2490016 93.2970018,72.2490016 L93.4020018,71.9970015 L94.3470018,72.0390016 C94.4100018,71.6400015 94.8720019,71.7870015 94.8720019,71.9760015 C94.8720019,72.1440016 95.2290019,72.0180016 95.2290019,72.0180016 L95.4810019,71.6190015 L95.8590019,71.6190015 L95.9010019,71.1990015 L96.0690019,71.0940015 L96.0690019,70.4640015 C96.6360019,70.2960015 96.5520019,69.7500015 96.5520019,69.7500015 L96.6990019,69.5820015 L96.6360019,69.3300014 C96.3630019,69.2250014 96.4890019,68.9730014 96.6780019,69.0360014 C96.8460019,69.0990014 96.4260019,68.7210014 96.4260019,68.7210014 C96.2160019,68.8890014 96.0480019,68.5110014 96.0480019,68.5110014 L95.5230019,68.5110014 L95.5230019,68.0070014 L95.4600019,67.5450014 L94.9350019,67.2930014 L94.5570019,67.6500014 L94.4940018,68.1540014 L94.4940018,68.4690014 L94.1370018,68.5320014 L94.0740018,69.4980015 L93.8010018,69.6030015 L93.8430018,69.9600015 L93.4650018,70.0650015 L93.0870018,70.1700015 L92.9400018,70.5900015 L92.6670018,70.7580015 L92.5200018,71.1780015 L92.3520018,72.1860016 C91.8690017,71.6610015 91.4490017,71.0940015 91.1550017,70.4640015 C91.2180017,70.2120015 91.2180017,69.9810015 91.2180017,69.9810015 C90.9030017,69.8340015 91.0710017,69.3510014 91.4280017,69.7710015 C91.7850017,70.1910015 91.2180017,68.9100014 91.2180017,68.9100014 L90.9450017,68.6580014 L90.5880017,68.6160014 C90.5250017,68.2800014 90.5040017,67.9230014 90.5040017,67.5660014 C90.5040017,67.4190014 90.5040017,67.2720014 90.5250017,67.1250014 C90.6300017,67.0200014 90.7350017,67.0830014 90.7350017,67.0830014 L90.9450017,67.2510014 L91.2600017,67.5030014 L91.3020017,67.7130014 L91.0920017,67.8180014 L91.0500017,68.1120014 L91.1550017,68.5110014 L91.4280017,68.5110014 C91.5330017,67.9440014 92.2680018,67.9440014 92.4780018,68.3010014 L92.6880018,67.7970014 C92.2050018,67.5450014 92.6880018,67.1670014 92.8140018,67.3350014 C92.9610018,67.5030014 93.2760018,66.8730013 93.2760018,66.8730013 C93.2760018,66.8730013 93.5280018,67.1880014 93.2760018,66.7680013 C93.0240018,66.3480013 93.4440018,66.1380013 93.4440018,66.1380013 C93.3810018,65.7180013 93.9060018,65.7810013 93.9060018,65.7810013 L93.9480018,65.2140013 L93.4650018,65.1720013 C93.3600018,65.6760013 92.9400018,65.2350013 93.1500018,65.1300013 C93.3600018,65.0250013 93.5700018,64.8150013 93.5700018,64.8150013 L93.5700018,64.5000013 L93.7800018,64.4370012 L93.8220018,64.0800012 L94.3470018,64.0800012 L94.8090019,63.8700012 L94.9140019,63.7020012 L95.3970019,63.6600012 L96.0900019,63.0300012 L96.0270019,62.7570012 C95.6070019,62.7570012 96.0270019,62.4420012 96.0270019,62.4420012 L96.0900019,61.9170011 L95.7120019,61.9170011 L95.6490019,61.1610011 C96.1110019,61.0140011 96.5940019,60.9510011 97.098002,60.9510011 L97.098002,60.9510011 Z M118.350003,63.0090012 L118.308003,63.2820012 L118.518003,63.3030012 L118.560003,63.0090012 L118.350003,63.0090012 L118.350003,63.0090012 Z M118.224003,63.9540012 L118.119003,64.1640012 L118.308003,64.2690012 L118.413003,64.0590012 L118.224003,63.9540012 Z M81.9990014,65.3610013 C82.3350014,65.3400013 82.5660014,65.5290013 82.5660014,65.5290013 L83.0490014,65.4870013 C83.1750014,65.5710013 83.2590014,65.6550013 83.3010014,65.7600013 C83.2590014,66.0960013 83.2170014,66.4110013 83.2170014,66.7470013 C83.1750014,66.8310013 83.1330014,66.8940013 83.1330014,66.8940013 C83.0910014,66.9570013 83.0700014,67.0620014 83.0490014,67.1670014 L81.7260013,67.1670014 L81.7260013,67.1460014 L81.3480013,67.1040014 C80.9280013,66.8520013 81.1380013,65.9280013 81.1380013,65.9280013 C81.4320013,65.5290013 81.7470013,65.3820013 81.9990014,65.3610013 L81.9990014,65.3610013 Z M94.1160018,66.0330013 L94.0530018,66.2010013 L93.8850018,66.2010013 L93.8430018,66.4950013 L94.0530018,66.4950013 L94.0950018,66.7050013 L93.9480018,66.8520013 L93.8850018,67.0200014 L93.6120018,67.0830014 L92.9820018,67.6920014 L92.9400018,67.9650014 L92.7720018,68.2170014 L92.5620018,68.7420014 L91.8270017,68.7840014 L91.6800017,69.4140014 L91.7850017,69.9390015 L92.4150018,70.1910015 L92.4780018,69.8340015 L92.6880018,69.7290015 L92.7300018,69.3720014 L92.8770018,69.1200014 L93.0870018,68.8680014 L93.1500018,68.5740014 L93.5070018,68.3640014 L93.9270018,68.3010014 L94.0950018,68.0910014 L94.1580018,67.6710014 L94.1790018,67.3560014 L94.3260018,67.1460014 L94.7460019,66.9780014 L94.7460019,66.3060013 L94.5360018,66.3060013 L94.4940018,66.0540013 L94.1160018,66.0330013 L94.1160018,66.0330013 Z M116.019003,66.2430013 L115.977003,66.4530013 L116.355003,66.5160013 L116.397003,66.3060013 L116.019003,66.2430013 Z M115.158003,66.5370013 L115.053003,66.6000013 L114.801003,66.7470013 L114.570003,66.6000013 L114.465003,66.7680013 L114.738003,66.9360013 L114.801003,66.9780014 L114.843003,66.9570013 L115.053003,66.8310013 L115.074003,66.8940013 L115.263003,66.8100013 L115.200003,66.6420013 L115.158003,66.5370013 L115.158003,66.5370013 Z M118.203003,68.0280014 L123.852003,68.0280014 C123.789003,71.9130015 122.907003,75.5880017 121.353003,78.9060018 L121.353003,78.9060018 C120.093003,81.6150019 118.392003,84.072002 116.334003,86.1930021 L116.187003,86.0460021 C116.166003,85.6470021 116.145003,85.1430021 116.145003,85.1430021 L115.977003,84.9750021 L115.935003,84.093002 C116.082003,83.631002 115.263003,82.959002 115.200003,83.106002 C115.137003,83.253002 114.675003,83.148002 114.675003,83.274002 C114.675003,83.421002 114.402003,84.114002 114.528003,84.366002 C114.528003,84.387002 114.528003,84.387002 114.549003,84.408002 L112.344003,82.203002 C114.066003,80.4180019 115.410003,78.4020018 116.397003,76.1970017 C117.510003,73.6350016 118.140003,70.8840015 118.203003,68.0280014 L118.203003,68.0280014 Z M124.692003,68.0280014 L130.929003,68.0280014 C130.866003,73.1310016 129.669003,77.9610018 127.569003,82.287002 L127.569003,82.287002 C125.973003,85.5840021 123.852003,88.5870022 121.332003,91.1700023 L116.922003,86.7600021 C119.085003,84.534002 120.807003,82.0140019 122.088003,79.2840018 L122.088003,79.2840018 C123.726003,75.7980017 124.629003,71.9760015 124.692003,68.0280014 L124.692003,68.0280014 Z M112.470003,68.0280014 L117.363003,68.0280014 C117.300003,70.7790015 116.691003,73.4040016 115.641003,75.7770017 C114.696003,77.9190018 113.373003,79.8720019 111.777003,81.5520019 C111.714003,80.8380019 111.546003,80.0610019 111.546003,80.0610019 L111.273003,79.9140019 L111.336003,79.0530018 L110.958003,79.0530018 L110.328002,79.8720019 L110.265002,80.1030019 L109.908002,79.7460019 L110.097002,79.5570019 L110.055002,79.1370018 L110.307002,78.9270018 L110.307002,78.5700018 L110.517002,78.5070018 L110.559002,77.7300018 L110.727002,77.6880018 L110.727002,75.9870017 L110.202002,75.4830017 C110.160002,75.6510017 109.614002,75.6510017 109.614002,75.6510017 C109.614002,75.6510017 109.467002,75.9030017 109.362002,75.9030017 C109.257002,75.9030017 109.509002,76.2180017 109.425002,76.4280017 C109.362002,76.6380017 109.068002,76.6380017 109.068002,76.6380017 L108.543002,76.7850017 L108.396002,76.9530017 L107.850002,76.9530017 L107.808002,76.6380017 C107.871002,76.5750017 107.913002,76.4910017 107.976002,76.4280017 L108.417002,76.3020017 L108.774002,76.1340017 L108.942002,75.7770017 C108.984002,75.4200017 109.404002,75.4620017 109.404002,75.4620017 C109.404002,75.4620017 110.202002,74.7900017 110.244002,74.4750016 C110.286002,74.1600016 110.559002,73.2780016 111.042003,73.2780016 L111.945003,73.2780016 C112.302003,73.1310016 112.197003,72.6690016 112.197003,72.6690016 L112.659003,72.6060016 L112.722003,72.8580016 C112.722003,72.8580016 113.352003,72.9210016 113.415003,72.8160016 C113.478003,72.7110016 113.625003,72.4590016 113.793003,72.5640016 C113.961003,72.6690016 114.528003,72.3120016 114.528003,72.3120016 C114.570003,72.0600016 115.431003,72.1650016 115.431003,72.1650016 L115.536003,71.8500015 C115.536003,71.8500015 114.948003,71.0310015 114.843003,71.0310015 C114.738003,71.0310015 114.171003,70.5270015 114.108003,70.7160015 C113.541003,70.5690015 113.583003,69.7920015 113.583003,69.7920015 L113.373003,69.2880014 C113.373003,68.9940014 112.848003,68.4060014 112.743003,68.4690014 C112.512003,68.3430014 112.449003,68.1750014 112.470003,68.0280014 L112.470003,68.0280014 Z M76.9590012,68.0280014 L79.4160012,68.0280014 L79.4370012,68.2170014 L78.9120012,68.7840014 L78.9750012,69.3510014 L78.6600012,69.4560014 L78.5970012,69.7080015 L78.4500012,70.4430015 L78.8070012,70.4850015 C78.9750012,70.4220015 78.9540012,70.9470015 78.8070012,71.0100015 C78.6600012,71.0730015 78.2820012,71.2200015 78.4920012,71.3670015 C78.7020012,71.5140015 77.9250012,71.4720015 77.9250012,71.2620015 C77.9250012,71.0520015 77.5050012,70.8630015 77.4000012,70.9470015 C77.3370012,70.9890015 77.2530012,70.8840015 77.1900012,70.7790015 C77.0640012,69.8760015 76.9800012,68.9520014 76.9590012,68.0280014 L76.9590012,68.0280014 Z M80.5710013,68.0280014 L80.7390013,68.0280014 C80.8230013,68.0490014 80.9070013,68.0910014 80.9070013,68.0910014 L81.3900013,68.1330014 L81.4320013,68.0490014 L83.0910014,68.0490014 L83.2380014,68.9520014 L82.7760014,69.3510014 C82.3980014,69.5610015 82.3980014,70.0650015 82.8180014,70.1700015 C83.0910014,70.2120015 82.9860014,70.8840015 82.5660014,70.4220015 C81.9360013,70.4220015 82.9230014,70.9890015 82.6290014,70.8420015 C83.2590014,71.1570015 83.1120014,70.5690015 83.1120014,70.5690015 L83.4270014,70.3170015 C83.5530014,71.0100015 83.7420014,71.7030015 83.9730014,72.3540016 L83.9730014,72.3540016 C84.6240015,74.1600016 85.6320015,75.7980017 86.9550015,77.2260018 L82.5450014,81.6360019 C82.2510014,81.3420019 81.9780014,81.0270019 81.7260013,80.7120019 C81.7890013,80.5020019 81.9150013,80.2710019 81.9150013,80.2710019 C82.3770014,79.9770019 81.8100013,79.5360018 81.8100013,79.5360018 C81.8730013,79.1160018 81.5580013,78.6120018 81.5580013,78.6120018 C80.9280013,78.1920018 81.0960013,77.3730018 81.0960013,77.3730018 L81.0960013,76.8060017 C80.5710013,76.3020017 81.3060013,76.2390017 81.3060013,76.2390017 C81.5580013,75.8190017 81.1380013,75.5040017 81.1380013,75.5040017 L81.0960013,75.0420017 L80.5290013,74.9790017 L80.4660013,73.3200016 L79.2060012,71.5140015 C78.9540012,71.4510015 79.1430012,71.0100015 79.1430012,71.0100015 C79.4580013,70.8420015 79.0800012,70.4010015 79.0800012,70.4010015 L79.0380012,69.6240015 L79.7730013,69.5610015 L79.9410013,69.2880014 L80.2980013,69.2880014 L80.2560013,68.3640014 C80.3610013,68.1120014 80.4660013,68.0490014 80.5710013,68.0280014 L80.5710013,68.0280014 Z M89.2860016,68.0280014 L89.6850017,68.0280014 C89.7060017,68.2800014 89.7270017,68.5320014 89.7690017,68.7630014 L89.5590017,68.8260014 L89.4960016,68.6790014 L89.3910016,69.0780014 L88.7610016,69.0780014 L88.7190016,68.6580014 L89.0970016,68.5530014 L89.2440016,68.3430014 L89.2860016,68.0280014 L89.2860016,68.0280014 Z M99.6390021,68.5110014 C99.576002,68.5110014 99.513002,68.5530014 99.471002,68.6790014 L99.471002,69.1410014 C99.471002,69.1410014 99.9540021,69.9180015 100.143002,70.0230015 C100.311002,70.1280015 100.605002,69.8970015 100.416002,69.7710015 C99.8910021,69.4140014 99.9330021,68.9520014 99.7860021,68.6370014 C99.7440021,68.5740014 99.7020021,68.5110014 99.6390021,68.5110014 L99.6390021,68.5110014 Z M81.3900013,68.8260014 L81.4320013,69.0780014 L81.6000013,69.0780014 C81.8730013,69.5820015 81.6420013,70.7790015 81.6420013,70.7790015 C81.6420013,70.7790015 81.2220013,70.8210015 81.1590013,70.6110015 C81.0960013,70.4010015 80.9070013,71.0730015 81.0540013,71.1780015 C81.2010013,71.2830015 81.6840013,71.1780015 81.7260013,71.5770015 C81.7680013,71.9760015 82.0410014,71.3250015 82.0410014,71.3250015 L82.0410014,68.9100014 L81.3900013,68.8260014 L81.3900013,68.8260014 Z M98.169002,69.5400015 L97.539002,70.0020015 C97.854002,70.0440015 97.896002,70.3590015 97.917002,70.5060015 C98.001002,70.8210015 97.980002,70.0020015 98.127002,70.0440015 C98.274002,70.0650015 98.169002,69.5400015 98.169002,69.5400015 L98.169002,69.5400015 Z M84.2040014,69.8130015 C84.4980015,69.9180015 84.8340015,70.4010015 84.8340015,70.4850015 C84.8340015,70.5900015 86.2200015,70.5270015 86.2200015,70.5270015 C86.5980015,70.7790015 86.7450015,71.4090015 86.7450015,71.4090015 C87.1230016,70.9050015 87.9420016,71.3670015 87.3330016,71.6610015 C87.9000016,72.0180016 87.9000016,72.3330016 87.9000016,72.3330016 C88.3620016,72.1860016 88.3620016,72.5430016 88.3620016,72.6480016 C88.3620016,72.7530016 88.5090016,72.1230016 88.5090016,72.1230016 C87.9840016,71.7240015 89.2020016,71.5980015 88.8660016,72.2910016 L88.6560016,72.6060016 L89.0130016,72.8790016 L89.0550016,73.6980016 C89.8320017,73.6350016 89.6220017,72.6690016 89.6220017,72.6690016 L89.9790017,72.6060016 C89.9790017,72.2910016 90.2310017,72.4590016 90.2310017,72.4590016 C90.0630017,71.6190015 90.3990017,71.2620015 90.6090017,71.1360015 C90.8820017,71.6610015 91.2180017,72.1440016 91.6170017,72.5850016 L87.6060016,76.5960017 C86.3670015,75.2730017 85.4430015,73.7610016 84.8340015,72.1020016 C84.5400015,71.3670015 84.3510014,70.6110015 84.2040014,69.8130015 L84.2040014,69.8130015 Z M115.830003,70.6530015 C115.536003,70.6320015 115.179003,70.8420015 115.284003,70.9890015 C115.494003,71.2620015 115.851003,71.1360015 115.977003,71.1570015 C116.124003,71.1990015 116.250003,71.2620015 116.124003,70.8420015 C116.082003,70.7160015 115.956003,70.6530015 115.830003,70.6530015 L115.830003,70.6530015 Z M82.6290014,71.1360015 C82.5450014,71.1360015 82.4820014,71.1990015 82.4820014,71.2830015 L82.4820014,71.2830015 C82.4820014,71.3670015 82.5450014,71.4300015 82.6290014,71.4300015 C82.7130014,71.4300015 82.7760014,71.3670015 82.7760014,71.2830015 C82.7970014,71.2200015 82.7130014,71.1360015 82.6290014,71.1360015 L82.6290014,71.1360015 Z M82.2510014,71.6190015 L81.7260013,71.9760015 L81.3690013,71.7660015 L81.3690013,72.6060016 L81.9360013,73.3410016 L82.1460014,72.8370016 L82.2090014,72.5220016 L81.9570013,72.4170016 L81.9990014,71.8920015 L82.2090014,71.8500015 L82.2510014,71.6190015 L82.2510014,71.6190015 Z M95.1660019,72.5010016 L94.8510019,72.5430016 L94.8930019,73.0470016 L95.1030019,73.2150016 L95.4810019,73.3200016 C95.4810019,73.3200016 96.0060019,73.1730016 96.0480019,72.7530016 L95.2500019,72.7110016 L95.1660019,72.5010016 L95.1660019,72.5010016 Z M99.576002,72.7740016 C99.8700021,72.7740016 99.8070021,73.4880016 99.7860021,73.7190016 C99.576002,73.8030016 99.366002,73.8870016 99.156002,73.9500016 L99.156002,73.1730016 L99.513002,72.7740016 C99.534002,72.7740016 99.555002,72.7740016 99.576002,72.7740016 L99.576002,72.7740016 Z M92.1840018,73.1940016 C93.4020018,74.2860016 94.9140019,74.9370017 96.5310019,75.0630017 L96.5310019,75.0840017 C96.5310019,75.0840017 96.4050019,75.3990017 96.5520019,75.4620017 C96.6990019,75.5040017 96.6570019,75.5460017 96.7410019,75.6300017 L96.6570019,75.8190017 C96.5310019,75.6510017 96.4470019,75.9450017 96.5310019,76.0290017 C96.6150019,76.1130017 96.3420019,76.0500017 96.3420019,76.1550017 C96.3420019,76.2600017 96.2580019,76.3230017 96.3420019,76.3650017 C96.4260019,76.4280017 96.3210019,76.4490017 96.2160019,76.5330017 C96.1110019,76.6170017 96.6570019,76.6380017 96.6570019,76.6380017 C96.6570019,76.6380017 96.5520019,76.4280017 96.6780019,76.4280017 C96.6990019,76.4280017 96.7200019,76.4280017 96.7410019,76.4280017 L96.7410019,76.7850017 C96.6990019,76.7640017 96.6570019,76.7640017 96.5940019,76.7430017 L96.5940019,76.9950017 L96.3210019,77.0370017 L96.5730019,77.3100018 L96.7620019,77.3310018 L96.7620019,77.9190018 L96.7620019,77.9610018 C96.7620019,78.4230018 95.6070019,78.1080018 95.5020019,78.0030018 L95.4600019,78.6330018 L95.2500019,78.6750018 L95.2920019,79.0950018 L95.2500019,79.7040019 L95.6280019,79.6410019 L95.6280019,79.8930019 L96.5730019,79.9350019 L96.7620019,79.7460019 L96.7620019,80.3970019 L96.7620019,80.4390019 L96.1320019,80.5020019 L95.8590019,80.6490019 L95.7540019,80.4390019 L95.4810019,80.4390019 L95.3130019,80.6700019 C94.4940018,80.5440019 93.6750018,80.3550019 92.8980018,80.0820019 L92.8980018,80.0820019 C91.1760017,79.4940018 89.5800017,78.5280018 88.2150016,77.2470018 L92.1840018,73.1940016 L92.1840018,73.1940016 Z M58.8990004,73.5300016 C59.3610005,76.6170017 58.1430004,79.3470018 57.8700004,82.287002 C57.6390004,84.7020021 58.0590004,87.0540021 59.0040004,89.0700022 C59.2770004,89.6790023 59.7810005,90.2040023 59.9280005,90.8340023 C59.0250004,90.0150023 58.3740004,88.9860022 57.7650004,87.9780022 C54.8460003,83.253002 48.735,80.1870019 48.315,74.4330016 C48.105,76.9950017 48.336,79.7040019 49.176,81.9720019 C50.3520001,85.1220021 52.6410002,87.5580022 55.2660003,89.6160022 C57.9750004,91.7580023 61.2090005,93.4170024 63.6870006,95.3070025 C63.2040006,94.0680024 62.4060006,92.9340024 62.0910006,91.6530023 C60.6000005,85.7520021 61.4190005,78.9480018 58.8990004,73.5300016 L58.8990004,73.5300016 Z M135.423003,73.5300016 C132.903003,78.9480018 133.722003,85.7520021 132.273003,91.6110023 C131.958003,92.9130024 131.160003,94.0470024 130.677003,95.2650025 C133.155003,93.3750024 136.389004,91.7160023 139.098004,89.5740022 C141.723004,87.5160022 143.991004,85.0800021 145.188004,81.9300019 C146.049004,79.6620019 146.259004,76.9530017 146.049004,74.3910016 C145.629004,80.1450019 139.518004,83.211002 136.599004,87.9360022 C135.969003,88.9440022 135.339003,89.9940023 134.436003,90.7920023 C134.583003,90.1830023 135.087003,89.6370023 135.360003,89.0280022 C136.305004,86.9910021 136.725004,84.6600021 136.494004,82.245002 C136.179004,79.3470018 134.940003,76.6170017 135.423003,73.5300016 L135.423003,73.5300016 Z M104.994002,73.6560016 C105.078002,73.6560016 105.141002,73.6980016 105.120002,73.8240016 C105.015002,74.1390016 105.120002,74.2860016 105.120002,74.2860016 C105.582002,73.8660016 105.960002,74.3280016 105.918002,74.4330016 C105.876002,74.5380017 106.170002,74.6430017 106.338002,74.5380017 C106.506002,74.4330016 106.716002,74.8530017 106.653002,75.0630017 C106.590002,75.2730017 105.960002,75.2310017 105.918002,75.0210017 C105.876002,74.8110017 105.771002,74.8740017 105.708002,74.9790017 C105.645002,75.0630017 105.414002,75.1260017 105.246002,75.0840017 L105.099002,74.9370017 C105.120002,74.8950017 105.141002,74.8530017 105.099002,74.8110017 C105.057002,74.7690017 104.994002,74.7690017 104.910002,74.7690017 L104.595002,74.4540016 C104.595002,74.2440016 104.658002,73.9500016 104.637002,73.8660016 C104.616002,73.7610016 104.847002,73.6560016 104.994002,73.6560016 L104.994002,73.6560016 Z M82.2930014,73.7820016 L82.0410014,73.8240016 L81.9990014,74.1180016 L82.2720014,74.1600016 L82.2930014,73.7820016 L82.2930014,73.7820016 Z M125.931003,74.0970016 C125.784003,74.0970016 125.616003,74.1810016 125.511003,74.2440016 L125.637003,74.4120016 C125.763003,74.3280016 125.952003,74.2860016 125.973003,74.3070016 C125.973003,74.3070016 125.973003,74.3070016 125.973003,74.2860016 L126.183003,74.2440016 C126.162003,74.1810016 126.141003,74.1180016 126.078003,74.0970016 C126.015003,74.0970016 125.973003,74.0970016 125.931003,74.0970016 L125.931003,74.0970016 Z M82.3980014,74.4540016 C82.3140014,74.4540016 82.2510014,74.5170016 82.2510014,74.6010017 C82.2510014,74.6850017 82.3140014,74.7480017 82.3980014,74.7480017 C82.4820014,74.7480017 82.5450014,74.6850017 82.5450014,74.6010017 C82.5450014,74.5170016 82.4610014,74.4540016 82.3980014,74.4540016 Z M99.7860021,74.6220017 C99.7860021,74.7060017 99.8280021,74.8110017 99.8280021,74.8110017 L99.9960021,74.8740017 L99.6810021,75.1260017 L99.408002,75.4410017 L99.051002,75.3360017 L98.631002,75.2940017 L98.484002,75.0420017 L98.232002,75.0000017 L98.190002,75.5040017 L98.022002,75.7140017 L97.602002,76.1340017 C98.043002,76.1340017 97.749002,76.3650017 97.539002,76.4700017 L97.539002,75.0420017 C97.980002,75.0210017 98.442002,74.9580017 98.862002,74.8530017 C98.904002,74.8950017 98.925002,74.9160017 98.925002,74.9160017 L99.240002,74.9160017 L99.261002,74.7480017 C99.471002,74.7270017 99.6390021,74.6850017 99.7860021,74.6220017 L99.7860021,74.6220017 Z M82.6290014,75.1890017 C82.5450014,75.1890017 82.4820014,75.2520017 82.4820014,75.3360017 L82.4820014,75.3360017 C82.4820014,75.4200017 82.5450014,75.4830017 82.6290014,75.4830017 C82.7130014,75.4830017 82.7760014,75.4200017 82.7760014,75.3360017 C82.7760014,75.2520017 82.7130014,75.1890017 82.6290014,75.1890017 L82.6290014,75.1890017 Z M95.8170019,75.2940017 C95.6490019,75.2940017 95.5020019,75.8400017 95.4180019,75.9660017 C95.4180019,75.9660017 95.5020019,76.2600017 95.6490019,76.2390017 C95.7960019,76.2180017 95.9010019,76.1340017 96.0480019,76.1130017 C96.1740019,76.0920017 96.2370019,75.8820017 96.2790019,75.6510017 C96.3210019,75.4410017 96.2370019,75.3360017 96.2370019,75.3360017 C96.2370019,75.3360017 96.1110019,75.5460017 95.9010019,75.3360017 C95.8800019,75.3150017 95.8590019,75.2940017 95.8170019,75.2940017 L95.8170019,75.2940017 Z M81.9780014,75.5880017 L81.6840013,75.6300017 L81.6840013,75.8820017 L81.9780014,75.8400017 L81.9780014,75.5880017 L81.9780014,75.5880017 Z M102.999002,75.5880017 L103.251002,75.5880017 L103.293002,75.7560017 L104.364002,75.8610017 L104.406002,75.8610017 C104.826002,76.1130017 104.616002,76.4280017 104.469002,76.4910017 C104.322002,76.5540017 104.091002,76.5540017 104.091002,76.5540017 L104.028002,76.7010017 L103.125002,76.7640017 L103.062002,77.1210018 C102.600002,77.0580018 102.432002,77.5410018 102.537002,77.7930018 C102.642002,78.0450018 102.537002,78.2550018 102.537002,78.2550018 L102.915002,78.4230018 L103.398002,78.2760018 C103.461002,77.9190018 103.776002,77.8560018 104.070002,77.6460018 C104.343002,77.4360018 104.805002,78.0450018 104.658002,78.3180018 C104.637002,78.3600018 104.637002,78.3810018 104.616002,78.4020018 C104.091002,78.7590018 103.524002,79.0950018 102.936002,79.3890018 L102.936002,79.3890018 C102.012002,79.8300019 101.046002,80.1870019 100.017002,80.3970019 C99.9960021,80.3760019 99.9750021,80.3760019 99.9750021,80.3760019 L99.5970021,80.2710019 L99.555002,79.7460019 C99.492002,79.3890018 98.820002,79.3890018 98.862002,79.6410019 C98.904002,79.8930019 97.623002,79.7460019 97.602002,79.7460019 L97.602002,78.7800018 L97.959002,78.4020018 L98.757002,78.2340018 C98.820002,77.8770018 99.177002,78.2970018 99.177002,78.2970018 C99.534002,78.2550018 99.5970021,78.5070018 99.5970021,78.5070018 L100.059002,78.5700018 C100.437002,78.6750018 100.206002,78.7170018 100.227002,78.8640018 C100.269002,79.0740018 100.437002,79.0110018 100.437002,79.0110018 L100.500002,78.5490018 L100.710002,78.5910018 L100.500002,78.3390018 L100.122002,78.1710018 L99.7020021,78.0030018 C99.429002,77.6040018 99.7650021,77.6880018 100.059002,77.7300018 L100.521002,77.7300018 C100.521002,77.7300018 101.046002,78.4440018 101.046002,78.6120018 C101.046002,78.7800018 101.298002,78.8220018 101.298002,78.8220018 L101.613002,78.7800018 L101.718002,79.0320018 L102.033002,79.0320018 L102.138002,79.2420018 L102.768002,79.2420018 L102.810002,78.9270018 L102.222002,78.8220018 L102.180002,78.4650018 L101.760002,78.3600018 C101.613002,77.7510018 101.865002,77.5830018 102.033002,77.8560018 L102.243002,77.8980018 L102.180002,77.3730018 L102.432002,77.3100018 L102.369002,76.5750017 L102.159002,76.5120017 L102.159002,76.2600017 L103.041002,76.3020017 C102.894002,75.7980017 102.999002,75.5880017 102.999002,75.5880017 L102.999002,75.5880017 Z M128.262003,77.2050018 L128.073003,77.3100018 C128.094003,77.3520018 128.094003,77.4150018 128.115003,77.4570018 C128.115003,77.5200018 128.136003,77.5830018 128.178003,77.6250018 C128.220003,77.6460018 128.262003,77.6670018 128.325003,77.6460018 L128.283003,77.4360018 C128.304003,77.4360018 128.325003,77.4570018 128.325003,77.4780018 C128.325003,77.4780018 128.325003,77.4570018 128.325003,77.4360018 C128.304003,77.3730018 128.304003,77.2890018 128.262003,77.2050018 L128.262003,77.2050018 Z M128.052003,77.6040018 L127.842003,77.6460018 C127.905003,77.8560018 127.968003,78.0660018 127.968003,78.0870018 L128.157003,78.0030018 C128.178003,78.0030018 128.094003,77.7930018 128.052003,77.6040018 L128.052003,77.6040018 Z M111.672003,77.8140018 L111.672003,78.4860018 L111.924003,78.4860018 L111.924003,77.8140018 L111.672003,77.8140018 Z M104.133002,77.9820018 L103.860002,78.1500018 L103.965002,78.3390018 L104.238002,78.1710018 L104.133002,77.9820018 Z M126.876003,78.4650018 C126.855003,78.6330018 126.897003,78.8430018 127.065003,78.8640018 L127.107003,78.6540018 L127.107003,78.6540018 C127.086003,78.6330018 127.065003,78.5490018 127.086003,78.4650018 L126.876003,78.4650018 L126.876003,78.4650018 Z M98.904002,78.8430018 L98.904002,79.2630018 L98.904002,78.8430018 Z M126.771003,78.8640018 C126.708003,78.8640018 126.624003,78.9270018 126.540003,78.9900018 C126.330003,79.1160018 126.414003,79.6620019 126.540003,79.5150018 C126.666003,79.3890018 126.834003,79.5150018 126.855003,79.1160018 C126.876003,78.9060018 126.834003,78.8640018 126.771003,78.8640018 L126.771003,78.8640018 Z M105.057002,79.1370018 L105.876002,79.5570019 C105.981002,79.7040019 106.443002,79.6620019 106.443002,79.6620019 L106.590002,79.8300019 C106.590002,79.8300019 106.863002,79.7880019 107.052002,79.9980019 C107.220002,80.2080019 108.144002,80.0400019 108.144002,80.0400019 L108.396002,80.2500019 L108.774002,80.3970019 L109.425002,80.4180019 L109.824002,80.8170019 C109.194002,81.1110019 107.913002,81.0060019 107.829002,80.9220019 C107.724002,80.8170019 106.989002,80.5020019 106.989002,80.5020019 C106.989002,80.5020019 106.422002,80.0400019 106.317002,80.1870019 C106.212002,80.3340019 105.729002,80.0190019 105.729002,80.1240019 C105.729002,80.2290019 105.267002,79.8720019 105.267002,79.8720019 L104.574002,79.6200019 L105.099002,79.5150018 L105.015002,79.1790018 C105.015002,79.1580018 105.036002,79.1580018 105.057002,79.1370018 L105.057002,79.1370018 Z M100.017002,79.2420018 L99.7650021,79.4310018 L99.8700021,79.5360018 L99.9750021,79.7040019 L100.227002,79.3050018 L100.017002,79.2420018 L100.017002,79.2420018 Z M67.1520008,81.2160019 L67.1520008,81.5730019 L67.4250008,81.5730019 L67.4250008,82.0350019 L67.6350008,82.0350019 L67.5930008,81.5100019 L67.3200008,81.4050019 L67.3200008,81.2370019 L67.1520008,81.2160019 L67.1520008,81.2160019 Z M118.140003,81.4050019 L118.119003,81.7200019 L118.455003,81.7410019 L118.476003,81.4470019 L118.140003,81.4050019 L118.140003,81.4050019 Z M117.846003,82.140002 L117.783003,82.350002 C117.804003,82.350002 117.825003,82.371002 117.846003,82.392002 L117.888003,82.581002 C117.867003,82.602002 117.846003,82.623002 117.846003,82.644002 L117.993003,82.791002 C118.098003,82.665002 118.140003,82.539002 118.119003,82.434002 C118.077003,82.224002 117.888003,82.161002 117.846003,82.140002 L117.846003,82.140002 Z M111.756003,82.770002 L113.289003,84.303002 C113.226003,84.555002 112.974003,84.7020021 112.848003,84.6180021 C112.701003,84.513002 113.016003,84.7860021 113.100003,84.9330021 C113.163003,85.0800021 113.373003,85.0800021 113.457003,84.9330021 C113.499003,84.8280021 113.499003,84.6600021 113.520003,84.513002 L114.234003,85.2270021 C114.150003,85.4160021 114.045003,85.5840021 114.087003,85.7100021 L114.087003,85.7100021 L114.402003,85.8570021 L114.444003,86.4660021 C114.675003,86.6970021 115.200003,86.6970021 115.620003,86.6340021 L115.767003,86.7810021 C114.486003,88.0410022 113.058003,89.1540022 111.546003,90.1200023 L111.546003,89.7840023 C112.176003,89.3220022 112.218003,88.5030022 111.609003,88.4400022 C111.168003,88.3770022 111.357003,87.9150022 111.777003,87.8310022 L112.029003,87.7260022 L112.029003,87.3900022 L112.827003,86.6550021 L112.827003,86.0880021 L111.084003,84.6390021 C110.727002,84.513002 110.706002,84.072002 110.832002,83.652002 C111.126003,83.358002 111.441003,83.085002 111.756003,82.770002 L111.756003,82.770002 Z M68.8950008,82.854002 L69.1470008,83.484002 L69.2940008,83.799002 L69.5670009,84.198002 L69.9450009,84.555002 L70.0920009,84.303002 L69.8400009,83.778002 L69.5880009,83.610002 L69.4200009,83.106002 L68.8950008,82.854002 L68.8950008,82.854002 Z M62.0700006,83.358002 C64.1910006,87.6000022 63.2670006,93.0600024 66.0180007,97.0500025 C66.8790008,98.3100026 68.0760008,99.5070026 69.1890008,100.494003 L69.1470008,100.536003 C68.1390008,100.074003 67.2360008,99.3600026 66.3120007,98.6040026 C61.5030005,94.5930024 54.2580002,94.0890024 51.3810001,87.5580022 C52.1580002,92.3460024 55.9590003,96.5880025 60.0750005,99.2760026 C63.9810006,101.838003 68.9790008,101.544003 73.305001,102.972003 C69.2940008,99.7380027 68.6850008,94.8870025 66.9000008,90.6450023 C65.7870007,88.0620022 63.9810006,85.6890021 62.0700006,83.358002 L62.0700006,83.358002 Z M132.273003,83.358002 C130.341003,85.6680021 128.535003,88.0410022 127.422003,90.6870023 C125.637003,94.9290025 125.028003,99.7800027 121.017003,103.014003 C125.343003,101.586003 130.362003,101.859003 134.247003,99.3180026 C138.342004,96.6300025 142.143004,92.3880024 142.941004,87.6000022 C140.064004,94.1310024 132.819003,94.6350024 128.010003,98.6460026 C127.086003,99.4020026 126.183003,100.116003 125.175003,100.578003 L125.133003,100.536003 C126.246003,99.5280026 127.443003,98.3310026 128.304003,97.0920025 C131.055003,93.0600024 130.152003,87.6000022 132.273003,83.358002 L132.273003,83.358002 Z M77.5050012,84.8910021 C77.8200012,84.8910021 78.2190012,85.2480021 78.2820012,85.3950021 C78.3030012,85.4790021 78.4080012,85.5840021 78.5130012,85.6680021 L77.9880012,86.1930021 C77.6730012,85.8570021 77.3580012,85.5210021 77.0430012,85.1640021 L77.1900012,85.1640021 C77.2530012,84.9750021 77.3790012,84.8910021 77.5050012,84.8910021 L77.5050012,84.8910021 Z M98.190002,86.8650021 C98.400002,86.8860021 98.631002,86.9280021 98.778002,87.0330021 C99.156002,87.3060022 99.6810021,87.1380022 99.6810021,87.1380022 L100.059002,87.6000022 C99.240002,87.7260022 98.421002,87.7890022 97.581002,87.8100022 L97.581002,86.9700021 C97.707002,86.8860021 97.938002,86.8440021 98.190002,86.8650021 Z M116.334003,87.3690022 L120.744003,91.7790023 C118.287003,94.1730024 115.473003,96.1890025 112.365003,97.7640026 C107.913002,100.011003 102.894002,101.334003 97.581002,101.397003 L97.581002,95.1600025 C100.122002,95.1180025 102.621002,94.7400025 104.994002,94.0260024 L105.603002,94.2150024 L105.771002,94.7820025 L106.044002,94.7400025 L106.254002,94.5720024 L107.094002,94.5300024 L107.514002,94.1310024 L107.976002,94.0680024 L111.273003,91.2750023 C113.079003,90.1620023 114.780003,88.8600022 116.334003,87.3690022 L116.334003,87.3690022 Z M100.479002,88.3980022 L100.542002,88.5660022 L101.130002,88.7340022 L101.550002,88.8390022 L101.697002,89.4480022 L102.012002,89.4900022 L102.117002,89.8890023 C102.495002,90.1620023 102.012002,90.7710023 102.012002,90.7710023 L102.012002,91.5480023 L102.285002,91.6950023 L102.243002,91.9890023 L102.705002,92.4510024 L103.230002,92.4930024 L104.091002,93.4170024 C102.012002,93.9840024 99.8280021,94.2990024 97.560002,94.3410024 L97.560002,88.6500022 C98.568002,88.6290022 99.534002,88.5450022 100.479002,88.3980022 L100.479002,88.3980022 Z M92.0370017,88.9650022 L91.8270017,89.1330022 L91.7220017,89.2170022 L91.8270017,89.3010022 L92.0790018,89.4690022 L92.2050018,89.3010022 L92.0790018,89.1960022 L92.1840018,89.1120022 L92.0370017,88.9650022 L92.0370017,88.9650022 Z M94.5150018,91.5060023 L94.4310018,91.6950023 L94.6410019,91.8000023 L94.5780019,91.8630023 L94.7250019,92.0100023 L94.8930019,91.8420023 L94.9980019,91.7370023 L94.8720019,91.6740023 L94.5150018,91.5060023 L94.5150018,91.5060023 Z M76.8540011,93.2910024 L77.1270012,93.7110024 L77.1690012,94.0260024 L77.5260012,94.1310024 L77.6730012,94.3410024 L77.9250012,94.1940024 L77.7570012,93.7320024 L77.2950012,93.3330024 L76.8540011,93.2910024 L76.8540011,93.2910024 Z M68.9790008,93.6900024 C71.6040009,97.2180026 72.339001,102.342003 77.1270012,104.127003 C77.9670012,104.442003 78.9540012,104.505003 79.6680013,104.967003 C78.7440012,105.114003 77.9460012,104.820003 77.0850012,104.631003 C70.9320009,103.350003 63.3930006,105.030003 58.7730004,99.7800027 C60.5160005,103.224003 64.1280006,105.933003 67.6140008,107.067003 C72.990001,108.831003 78.5970012,106.857003 83.6370014,105.618003 C84.3720014,105.429003 85.2540015,105.492003 85.9260015,105.240003 C83.1120014,104.673003 80.4030013,103.812003 78.2190012,101.817003 C75.0900011,98.9610026 72.339001,95.9160025 68.9790008,93.6900024 L68.9790008,93.6900024 Z M125.343003,93.6900024 C122.004003,95.9160025 119.232003,98.9610026 116.103003,101.817003 C113.919003,103.812003 111.210003,104.652003 108.396002,105.240003 C109.068002,105.492003 109.950002,105.429003 110.685002,105.618003 C115.746003,106.878003 121.332003,108.852003 126.708003,107.067003 C130.173003,105.912003 133.785003,103.203003 135.549003,99.7800027 C130.929003,105.030003 123.390003,103.350003 117.237003,104.652003 C116.376003,104.841003 115.578003,105.114003 114.654003,104.988003 C115.389003,104.526003 116.355003,104.463003 117.195003,104.148003 C121.983003,102.342003 122.718003,97.2180026 125.343003,93.6900024 L125.343003,93.6900024 Z M92.0790018,105.114003 C87.3540016,105.114003 83.1120014,107.403003 78.9750012,109.125003 C75.2160011,110.679003 70.2390009,110.385003 66.9000008,108.075003 C68.5380008,110.133003 70.7430009,111.414003 73.032001,112.275003 C77.2530012,113.955003 82.1880014,112.674003 85.8000015,110.364003 C88.3830016,108.705003 90.6090017,106.353003 93.6960018,106.353003 C94.2420018,106.353003 94.7880019,106.416003 95.3340019,106.521003 C91.0080017,108.264003 87.0600016,111.309003 83.9940014,114.249003 C84.5610015,114.900003 85.2960015,115.509003 85.9890015,116.055003 C89.4120016,112.506003 93.2970018,108.684003 97.182002,107.088003 C101.067002,108.663003 104.952002,112.506003 108.375002,116.055003 C109.068002,115.488003 109.803002,114.900003 110.370002,114.249003 C107.304002,111.309003 103.356002,108.264003 99.030002,106.521003 C99.576002,106.416003 100.122002,106.353003 100.668002,106.353003 C103.755002,106.353003 105.981002,108.705003 108.564002,110.364003 C112.155003,112.653003 117.090003,113.955003 121.332003,112.275003 C123.600003,111.414003 125.805003,110.133003 127.464003,108.075003 C124.146003,110.364003 119.148003,110.679003 115.389003,109.125003 C111.231003,107.403003 107.010002,105.114003 102.285002,105.114003 C100.563002,105.114003 98.862002,105.408003 97.203002,105.912003 C95.5020019,105.387003 93.8010018,105.114003 92.0790018,105.114003 L92.0790018,105.114003 Z"/>
</svg>
