<svg xmlns="http://www.w3.org/2000/svg" viewBox="0 0 194 150">
  <title>
    flat-the-nature-conservancy
  </title>
  <path fill="#151515" d="M128.091907,82.2630435 L128.091907,82.7619565 C127.314617,82.8728261 126.981493,83.4826087 127.370138,84.3141304 L129.86857,90.1902174 L131.645232,84.7576087 C132.033877,83.5380435 131.978356,82.8728261 130.812422,82.8173913 L130.812422,82.3184783 L134.421267,82.3184783 L134.421267,82.8173913 C133.310853,82.8173913 132.644605,83.5380435 132.089398,85.201087 L127.980866,97.2858696 C127.148055,99.6695652 125.815558,101 124.594103,101 C124.149937,101 123.816813,100.88913 123.317127,100.556522 L123.983375,98.7826087 C124.37202,98.948913 124.594103,99.0043478 124.982748,99.0043478 C126.204203,99.0043478 126.981493,98.2836957 127.592221,96.5097826 L128.924718,92.7956522 L125.260351,84.3141304 C124.760665,83.15 124.37202,82.8173913 123.150565,82.7619565 L123.150565,82.2630435 L128.091907,82.2630435 Z M17.5501882,75.6108696 C19.6599749,75.6108696 21.2145546,76.3315217 22.1584065,76.3315217 C22.6025721,76.3315217 22.8801757,76.1652174 23.0467378,75.8326087 L23.4909034,75.8326087 L23.4909034,80.7663043 L23.1022585,80.7663043 L23.1022585,80.7108696 C22.2694479,77.6065217 20.6038269,76.2206522 17.7167503,76.2206522 C13.7192597,76.2206522 11.5539523,79.4358696 11.5539523,83.7043478 C11.5539523,88.6934783 14.1079046,91.9641304 17.8833124,91.9641304 C20.4927854,91.9641304 22.43601,90.7445652 23.6574655,88.3054348 L24.1016311,88.6934783 C22.9912171,91.298913 20.381744,92.9619565 17.1615433,92.9619565 C13.1640527,92.9619565 9,90.2456522 9,84.7576087 C9,79.4913043 12.6088457,75.6108696 17.5501882,75.6108696 Z M57.358532,82.0967391 L57.358532,85.2565217 L56.7478043,85.2565217 L56.7478043,85.201087 C56.5257215,83.4826087 55.4153074,82.651087 54.1938519,82.651087 C53.1944793,82.651087 52.4727102,83.2054348 52.4727102,84.0369565 C52.4727102,86.6423913 57.8582183,85.9217391 57.8582183,89.7467391 C57.8582183,91.4652174 56.3591593,92.9065217 54.6380176,92.9065217 C53.5276035,92.9065217 52.5282309,92.1304348 52.0285445,92.1304348 C51.6398996,92.1304348 51.3622961,92.4630435 51.3622961,92.851087 L50.8626098,92.851087 L50.8626098,89.3586957 L51.3622961,89.3586957 C51.8064617,91.5206522 53.4165621,92.3521739 54.6935383,92.3521739 C55.6929109,92.3521739 56.4702008,91.576087 56.4702008,90.5782609 C56.4702008,87.6956522 51.0291719,88.4717391 51.0291719,85.0347826 C51.0291719,83.4271739 52.4727102,82.0967391 54.1383312,82.0967391 C55.1932246,82.0967391 55.5263488,82.5956522 56.2481179,82.5956522 C56.5257215,82.5956522 56.6922836,82.4293478 56.8588457,82.0967391 L57.358532,82.0967391 Z M64.1320577,82.0413043 C66.5194479,82.0413043 68.6847553,83.926087 68.5737139,86.3097826 L61.0228984,86.3097826 C60.9673777,90.9108696 63.7434128,92.075 65.1314304,92.075 C66.5749686,92.075 67.2967378,91.576087 68.740276,89.9130435 L68.740276,90.6891304 C67.5188206,92.2967391 66.2973651,92.9065217 64.5207026,92.9065217 C61.3005019,92.9065217 58.9686324,90.6891304 58.9686324,87.5847826 C58.9686324,84.4804348 61.2449812,82.0413043 64.1320577,82.0413043 Z M122.484316,82.0967391 L122.484316,85.6445652 L121.98463,85.6445652 C121.540464,83.8152174 120.263488,82.5956522 118.542346,82.5956522 C116.543601,82.5956522 115.100063,84.3141304 115.100063,86.8641304 C115.100063,89.6913043 116.876725,92.0195652 118.930991,92.0195652 C120.152447,92.0195652 121.707026,91.3543478 122.76192,89.8576087 L122.76192,90.6336957 C121.651506,92.1304348 120.096926,92.9065217 118.264743,92.9065217 C115.211104,92.9065217 113.101317,90.8 113.101317,87.751087 C113.101317,84.5913043 115.488708,82.0967391 118.375784,82.0967391 C119.930364,82.0967391 120.763174,82.651087 121.262861,82.651087 C121.540464,82.651087 121.762547,82.4293478 121.98463,82.0967391 L122.484316,82.0967391 Z M94.4463614,82.1521739 C96.1119824,82.1521739 98.1107277,83.0945652 98.1107277,85.8663043 L98.1107277,85.8663043 L98.1107277,90.3565217 C98.1107277,91.6869565 98.3883312,92.075 99.8318695,92.075 L99.8318695,92.075 L99.8318695,92.6293478 L96.2785445,92.6293478 L96.2785445,91.4097826 L96.0936427,91.6001637 C95.1809263,92.5167459 94.4359512,92.9065217 93.4469887,92.9065217 C91.892409,92.9065217 90.5599122,91.6869565 90.5599122,90.1902174 C90.5599122,87.3076087 94.5018821,87.4184783 96.1675031,86.4206522 L96.1675031,86.4206522 L96.1675031,85.7 C96.1675031,84.3141304 95.3346926,83.2608696 93.8911543,83.2608696 C92.7252196,83.2608696 91.6148055,83.9815217 91.1706399,85.4228261 L91.1706399,85.4228261 L90.6709536,85.2565217 C91.1151192,83.3717391 92.6141782,82.1521739 94.4463614,82.1521739 Z M30.7641154,82.0413043 C33.9843162,82.0413043 36.3717064,84.3695652 36.3717064,87.473913 C36.3717064,90.5782609 33.9843162,92.9065217 30.7641154,92.9065217 C27.5439147,92.9065217 25.1565245,90.5782609 25.1565245,87.473913 C25.1565245,84.3695652 27.5439147,82.0413043 30.7641154,82.0413043 Z M90.6709536,82.373913 L90.6709536,82.8728261 C89.5050188,82.9836957 89.1718946,83.2608696 88.6722083,84.3695652 L85.3409661,92.851087 L84.8412798,92.851087 L81.5655583,84.8130435 C80.8437892,83.15 80.6217064,82.9836957 79.4002509,82.9282609 L79.4002509,82.4293478 L84.3415935,82.4293478 L84.3415935,82.9282609 C83.3422208,83.0391304 83.120138,83.5380435 83.5643036,84.7021739 L85.8961731,90.0793478 L87.8949184,84.923913 C88.3946048,83.5934783 88.3946048,82.9836957 86.8955458,82.8728261 L86.8955458,82.373913 L90.6709536,82.373913 Z M41.0354454,82.0413043 L41.0354454,84.0923913 C42.2569009,82.7065217 43.4228356,82.0413043 44.7553325,82.0413043 C46.4764743,82.0413043 48.2531368,83.2608696 48.2531368,85.7 L48.2531368,90.3565217 C48.2531368,91.6869565 48.5307403,92.075 49.9742785,92.075 L49.9742785,92.573913 L44.5332497,92.573913 L44.5332497,92.075 C45.9212673,92.075 46.3099122,91.7423913 46.3099122,90.8 L46.3099122,85.4228261 C46.3099122,83.7597826 45.1439774,83.0945652 44.0335634,83.0945652 C43.0341907,83.0945652 42.1458595,83.7043478 41.0909661,85.0902174 L41.0909661,90.0793478 C41.0909661,91.6315217 41.3130489,92.0195652 42.8121079,92.0195652 L42.8121079,92.5184783 L37.371079,92.5184783 L37.371079,92.075 C38.7590966,92.075 39.0922208,91.9641304 39.0922208,90.1347826 L39.0922208,84.3695652 C39.0922208,83.15 38.7590966,82.8728261 37.371079,82.8728261 L37.371079,82.373913 L40.5357591,82.0413043 L41.0354454,82.0413043 Z M73.6816186,82.0413043 L73.6816186,84.2586957 C75.5693225,82.5956522 76.5131744,82.0413043 77.1794228,82.0413043 C77.7346299,82.0413043 78.5674404,82.373913 79.0671267,82.8728261 L78.2898369,84.7021739 C77.4570263,84.2586957 76.5686951,83.8152174 75.846926,83.8152174 C75.1806775,83.8152174 74.6254705,84.1478261 73.6816186,85.0347826 L73.6816186,90.6336957 C73.6816186,91.7423913 74.0147428,92.075 75.4027604,92.075 L75.4027604,92.573913 L69.9617315,92.573913 L69.9617315,92.075 C71.4587341,92.075 71.6686313,91.7151682 71.6821258,90.3024951 L71.6828733,84.5358696 C71.6828733,83.0391304 71.2942284,82.8728261 69.5730866,82.8728261 L69.5730866,82.373913 L73.1819322,82.0413043 L73.6816186,82.0413043 Z M103.82936,82.0413043 L103.82936,84.0923913 C105.050816,82.7065217 106.21675,82.0413043 107.549247,82.0413043 C109.270389,82.0413043 111.047051,83.2608696 111.047051,85.7 L111.047051,90.3565217 L111.102572,90.3565217 C111.102572,91.6869565 111.380176,92.075 112.823714,92.075 L112.823714,92.573913 L107.327164,92.573913 L107.327164,92.075 C108.715182,92.075 109.103827,91.7423913 109.103827,90.8 L109.103827,85.4228261 C109.103827,83.7597826 107.937892,83.0945652 106.827478,83.0945652 C105.828105,83.0945652 104.939774,83.7043478 103.884881,85.0902174 L103.884881,90.0793478 C103.884881,91.6315217 104.106964,92.0195652 105.606023,92.0195652 L105.606023,92.5184783 L100.164994,92.5184783 L100.164994,92.075 C101.553011,92.075 101.886136,91.9641304 101.886136,90.1347826 L101.886136,84.3695652 C101.886136,83.15 101.553011,82.8728261 100.164994,82.8728261 L100.164994,82.373913 L103.329674,82.0413043 L103.82936,82.0413043 Z M30.7641154,82.651087 C28.598808,82.651087 27.2663112,84.5358696 27.2663112,87.5293478 C27.2663112,90.1902174 28.3767252,92.3521739 30.7641154,92.3521739 C33.2070263,92.3521739 34.2619197,90.023913 34.2619197,87.5293478 C34.206399,84.923913 33.1515056,82.651087 30.7641154,82.651087 Z M182.057937,86.1990022 C176.006274,95.9554348 167.345044,90.8554348 167.345044,90.8554348 C171.620138,91.9641304 174.340652,91.6315217 176.839084,90.3565217 C174.895859,90.4119565 173.674404,89.4695652 173.674404,89.4695652 C176.783563,90.4673913 178.671267,88.8043478 179.837202,88.0836957 C180.55569,87.6422332 182.044418,86.2119952 182.057937,86.1990022 Z M96.1675031,86.975 C94.2242785,87.8065217 92.5031368,87.8065217 92.5031368,89.8576087 C92.5031368,90.9108696 93.2249059,91.7423913 94.0577164,91.7423913 C94.6684442,91.7423913 95.7788582,91.298913 96.1675031,90.4673913 L96.1675031,90.4673913 Z M63.8544542,82.651087 C62.1333124,82.651087 61.1339398,83.926087 61.0228984,85.8108696 L66.6304893,85.8108696 C66.7415307,83.5380435 65.1869511,82.651087 63.8544542,82.651087 Z M95.8343789,61.1978261 L95.8343789,71.0097826 C95.8343789,72.95 97.0558344,74.1141304 98.9435383,74.1141304 C100.276035,74.1141304 101.44197,73.3934783 102.607905,71.8967391 L102.607905,64.4684783 C102.607905,62.5836957 102.27478,62.3619565 99.9429109,62.3065217 L99.9429109,61.6413043 L104.60665,61.1978261 L105.272898,61.1978261 L105.272898,72.7282609 L105.217378,72.7282609 C105.217378,74.225 105.717064,74.6684783 107.549247,74.6684783 L107.549247,75.3336957 L102.552384,75.6108696 L102.552384,73.1163043 L102.496863,73.1163043 C101.164366,74.8902174 99.554266,75.7771739 97.7220828,75.7771739 C95.0015684,75.7771739 93.2249059,73.726087 93.2249059,71.176087 L93.2249059,64.1358696 C93.2249059,62.8054348 92.7807403,62.3065217 90.781995,62.3065217 L90.781995,61.6413043 L95.1681305,61.1978261 L95.8343789,61.1978261 Z M84.8412798,56.9847826 L84.8412798,61.5858696 L89.6160602,61.5858696 L89.6160602,62.5836957 L84.8412798,62.5836957 L84.8412798,71.3978261 C84.8412798,73.2826087 85.7851317,74.2804348 87.3397114,74.2804348 C88.3390841,74.2804348 89.0608532,73.8923913 89.8936637,72.95 L90.3378294,73.448913 C89.1163739,74.9456522 87.7283563,75.7217391 86.1737767,75.7217391 C83.8419072,75.7217391 82.2318068,74.1141304 82.2318068,71.7304348 L82.2318068,62.5836957 L79.6223338,62.5836957 L79.6223338,61.9184783 C81.4545169,60.976087 83.0090966,59.3130435 84.1750314,56.9847826 L84.8412798,56.9847826 Z M127.980866,61.2532609 C131.145546,61.2532609 134.088143,63.8032609 133.921581,66.9630435 L123.872334,66.9630435 C123.816813,73.1163043 127.481179,74.6684783 129.313363,74.6684783 C131.201066,74.6684783 132.200439,74.0032609 134.143664,71.7858696 L134.143664,72.7836957 C132.478043,74.8902174 130.867942,75.7217391 128.480552,75.7217391 C124.205458,75.7217391 121.096299,72.7282609 121.096299,68.626087 C121.096299,64.4684783 124.094417,61.2532609 127.980866,61.2532609 Z M72.7932873,61.1978261 C75.0696361,61.1978261 77.7346299,62.5282609 77.7346299,66.2423913 L77.7346299,66.2423913 L77.7346299,72.2847826 C77.7346299,74.1141304 78.1232748,74.6684783 80.1220201,74.5576087 L80.1220201,74.5576087 L80.1220201,75.2228261 L75.2917189,75.2228261 L75.2917189,73.5597826 L75.0938432,73.777274 C73.8527611,75.1105707 72.8321518,75.6108696 71.4607905,75.6108696 C69.3510038,75.6108696 67.5743413,74.0032609 67.5743413,72.0076087 C67.5743413,68.1271739 72.9598494,68.2934783 75.1806775,66.9630435 L75.1806775,66.9630435 L75.1806775,65.9652174 C75.1806775,64.025 74.0702635,62.6391304 72.1270389,62.6391304 C70.5724592,62.6391304 69.0178795,63.5815217 68.4626725,65.5771739 L68.4626725,65.5771739 L67.7409034,65.4108696 C68.2961104,62.8608696 70.2948557,61.1978261 72.7932873,61.1978261 Z M113.712045,61.1978261 L113.712045,64.1913043 C116.265997,61.973913 117.487453,61.1978261 118.375784,61.1978261 C119.153074,61.1978261 120.207967,61.6413043 120.874216,62.3065217 L119.819322,64.7456522 C118.708908,64.1358696 117.487453,63.526087 116.543601,63.526087 C115.65527,63.526087 114.87798,63.9695652 113.656524,65.1891304 L113.656524,72.7282609 L113.712045,72.7282609 C113.712045,74.225 114.156211,74.6684783 115.988394,74.6684783 L115.988394,75.3336957 L108.770703,75.3336957 L108.770703,74.6684783 C110.880489,74.6684783 111.102572,74.1141304 111.102572,72.0630435 L111.102572,64.523913 C111.102572,62.5282609 110.602886,62.3065217 108.271016,62.3065217 L108.271016,61.6413043 L113.045797,61.1978261 L113.712045,61.1978261 Z M49.3080301,53.1597826 L63.1882058,70.4 L63.2437265,70.4 L63.2437265,57.4282609 C63.2437265,54.5456522 62.4664366,53.7695652 60.523212,53.7695652 L60.523212,53.1597826 L67.2412171,53.1597826 L67.2412171,53.825 C65.0759097,53.825 64.3541405,54.7119565 64.3541405,57.3173913 L64.3541405,75.2782609 L63.6878921,75.2782609 L48.0865747,56.0423913 L48.031054,56.0423913 L48.031054,71.5641304 C48.031054,73.7815217 48.9193852,74.6130435 50.9181305,74.6130435 L50.9181305,75.2782609 L44.2001255,75.2782609 L44.2001255,74.6130435 C46.0323087,74.6130435 46.9206399,74.0586957 46.9206399,70.8434783 L46.9206399,57.9271739 C46.9206399,55.4326087 46.2543915,54.0467391 43.6449184,53.825 L43.6449184,53.1597826 L49.3080301,53.1597826 Z M75.0696361,67.85 C72.4601631,69.0141304 70.1282936,68.9586957 70.1282936,71.7304348 C70.1282936,73.1163043 71.1276662,74.225 72.2380803,74.225 C73.0708908,74.225 74.5144291,73.6706522 75.0696361,72.5065217 L75.0696361,72.5065217 Z M164.513488,50 C183.834693,51.4413043 180.44793,70.6771739 180.44793,70.7326087 C180.336888,63.0271739 177.782936,58.2043478 174.729297,55.1554348 C175.617629,58.148913 172.008783,63.0271739 172.008783,63.0271739 C174.840339,56.9293478 173.008156,53.9358696 171.731179,52.7163043 C168.233375,50.498913 164.957654,50.0554348 164.513488,50 Z M38.2038896,61.0869565 C40.2026349,61.0869565 42.0348181,62.6945652 41.9237767,64.6902174 L35.5944166,64.6902174 L35.5944166,64.801087 C35.5388959,68.6815217 37.8707654,69.623913 39.0367001,69.623913 C40.2581556,69.623913 40.8688833,69.2358696 42.0903388,67.7945652 L42.0903388,68.4043478 C41.0354454,69.7347826 40.0360728,70.2336957 38.5370138,70.2336957 C35.8164994,70.2336957 33.8732748,68.348913 33.8732748,65.7434783 C33.8732748,63.1380435 35.7609787,61.0869565 38.2038896,61.0869565 Z M9.66624843,55.5434783 C9.88833124,55.7097826 10.1104141,55.8206522 10.4435383,55.9315217 C10.7766625,56.0423913 11.2208281,56.0978261 11.8315558,56.0978261 L19.1602886,56.0978261 C20.381744,56.0978261 20.9369511,55.9315217 21.3811167,55.598913 L21.7697616,55.598913 L21.7697616,58.8141304 L21.4921581,58.8141304 C21.2145546,57.65 20.770389,56.8184783 18.5495609,56.8184783 L16.4397742,56.8184783 L16.4397742,67.5173913 C16.4397742,69.1804348 16.7728984,69.6793478 17.9388331,69.6793478 L17.9388331,70.1228261 L12.9974906,70.1228261 L12.9974906,69.6793478 C13.9968632,69.6793478 14.607591,69.4021739 14.607591,67.4619565 L14.607591,56.7630435 L12.553325,56.7630435 C10.6656211,56.7630435 9.83281054,57.3173913 9.72176913,58.7586957 L9.27760351,58.7586957 L9.27760351,55.5434783 L9.66624843,55.5434783 Z M25.6006901,54.7673913 L25.6006901,62.9163043 C26.7111041,61.6413043 27.488394,61.1978261 28.598808,61.1978261 C30.0423463,61.1978261 31.4858846,62.1402174 31.4858846,64.1913043 L31.4858846,67.9608696 L31.5414053,67.9608696 C31.5414053,69.2913043 31.7634881,69.623913 32.9294228,69.623913 L32.9294228,70.0673913 L28.4322459,70.0673913 L28.4322459,69.623913 C29.5981807,69.623913 29.8757842,69.3467391 29.8757842,68.2380435 L29.8757842,63.9695652 C29.8757842,62.8054348 29.2095358,62.0847826 28.1546424,62.0847826 C27.1552698,62.0847826 26.4890213,62.5282609 25.6562108,63.6923913 L25.6562108,68.4043478 C25.6562108,69.2913043 26.0448557,69.5684783 27.0997491,69.5684783 L27.0997491,70.0119565 L22.43601,70.0119565 L22.43601,69.5684783 C23.7129862,69.5684783 23.9905897,69.2913043 23.9905897,67.9054348 L23.9905897,56.7630435 C23.9905897,55.6543478 23.6574655,55.4880435 22.43601,55.4880435 L22.43601,55.0445652 L25.2120452,54.7673913 L25.6006901,54.7673913 Z M127.647742,62.0293478 C125.371393,62.0293478 123.983375,63.7478261 123.872334,66.2978261 L131.312108,66.2978261 C131.423149,63.3043478 129.368883,62.0293478 127.647742,62.0293478 Z M37.9262861,61.6967391 C36.4827478,61.6967391 35.6499373,62.75 35.5388959,64.3576087 L40.2581556,64.3576087 C40.3136763,62.4728261 39.0367001,61.6967391 37.9262861,61.6967391 Z M183.222953,62.3056299 L183.172293,62.2119607 C183.207711,62.2429967 183.243454,62.274543 183.279486,62.3065217 C185.000627,65.5771739 186,69.2913043 186,73.2271739 C186,77.6044686 184.764379,81.673336 182.689755,85.1862728 L182.504,85.494 L182.33376,85.3684518 C180.95999,84.3638482 180.233271,84.0107509 179.55713,84.0885848 C178.925391,84.1311151 178.3481,84.5646021 177.33877,85.201087 C175.895232,85.7554348 175.284504,84.8130435 174.229611,85.8663043 C173.348207,86.7463448 175.258958,88.228304 173.269769,88.2286291 C172.622415,88.2196883 171.58636,88.0635626 169.954517,87.6956522 C169.57384,87.6058131 169.246659,87.5788644 168.958883,87.5971927 C167.736014,87.65423 167.215892,88.5302131 166.372943,88.9196588 C165.794107,89.1674247 165.057417,89.1867612 163.84724,88.5826087 C162.903388,86.3097826 162.847867,84.9793478 163.680678,83.5380435 C164.624529,81.875 164.957654,82.4293478 164.402447,80.6 C164.180364,79.8793478 164.402447,79.5467391 164.791092,78.548913 C165.178874,77.5533011 164.682263,76.1713658 163.301259,76.275371 L163.236512,76.276087 C161.404329,76.3869565 161.626412,77.2184783 160.460477,77.9945652 C160.40431,78.0306167 160.345534,78.0504588 160.285845,78.0553464 C159.532624,78.0017852 158.719476,75.6622096 161.182246,73.5043478 C162.681305,72.2293478 163.014429,71.7858696 162.514743,70.7880435 C162.015056,69.7347826 161.071205,70.1228261 160.68256,68.9586957 C160.404956,68.0717391 160.849122,66.3532609 159.516625,65.9097826 C159.405583,65.8769324 159.29637,65.8580739 159.188962,65.8516526 L159.132595,65.8516526 C157.783221,65.7713858 156.6789,67.6344203 155.907779,68.4043478 C155.28587,69.0252944 154.64246,69.9253182 154.111349,70.1826344 C153.800694,70.32574 153.536465,70.2413267 153.353827,69.7347826 C152.409975,67.2956522 156.79611,63.6369565 154.075596,62.6391304 C151.521644,61.6967391 150.688833,59.0358696 150.688833,59.0358696 L150.644124,59.0684266 C150.636835,59.0471234 150.633312,59.0358696 150.633312,59.0358696 C143.637704,64.1913043 146.968946,68.7369565 146.358218,69.5684783 C146.254815,69.709265 146.137087,69.7753628 146.008268,69.7920631 C145.485556,69.793102 144.797017,69.0677386 144.142469,69.2326574 L144.105988,69.2455666 C143.966296,69.2732032 143.828061,69.3388199 143.693225,69.4576087 C142.971455,70.1228261 142.305207,74.3913043 146.802384,77.0521739 C148.468005,78.05 149.023212,78.3271739 148.634567,78.9369565 C148.527491,79.0973214 148.317164,79.1660492 148.081024,79.2222997 C147.868651,79.2654737 147.641046,79.3039559 147.451633,79.3963771 C147.177759,79.5132884 146.968946,79.7176297 146.968946,80.1565217 C147.024467,82.373913 150.633312,81.7086957 151.299561,84.5358696 C151.907392,86.9634325 161.249172,88.4681985 162.882684,88.7134132 C158.850167,86.6370077 149.184456,80.4333991 148.745609,68.5152174 C148.745609,68.5152174 150.244668,79.9902174 164.624529,89.525 C164.624529,89.525 164.358796,89.4221396 163.896048,89.2090764 C164.097859,89.9072988 164.662289,91.1218779 165.807123,91.8827938 C165.956863,91.9922665 166.118064,92.093823 166.290151,92.1858696 C166.823913,92.4639234 167.127293,92.6548096 167.276315,92.7914209 C167.663836,93.234898 166.147581,93.020592 166.401192,93.7380435 C166.420619,93.7897699 166.462707,93.8528088 166.527102,93.9225859 C166.898476,94.4433438 168.536786,95.3553119 171.29146,94.8299663 C168.620298,95.8485402 165.701363,96.4543478 162.681305,96.4543478 C149.800502,96.4543478 139.36261,86.0326087 139.36261,73.1717391 C139.36261,61.8630435 147.468632,52.4391304 158.184128,50.3326087 C158.271645,50.3347143 158.358662,50.3374397 158.445159,50.3407936 L158.184128,50.3880435 C162.282184,50.486639 165.282537,51.9442792 165.310925,55.6576589 C165.311023,56.1038196 165.268294,56.5828117 165.179737,57.0956522 C165.133788,57.3250375 165.09629,57.6514501 165.091719,57.9980829 L165.091719,58.0535177 C165.07972,58.9634286 165.294607,60.0126687 166.179109,59.8119565 C167.78921,59.4793478 167.567127,59.3130435 168.455458,58.5369565 C168.687519,58.3473824 169.039821,58.4299341 169.274784,58.72987 C169.615035,59.2417137 169.64983,60.2831522 168.455458,61.6413043 C167.55212,62.6334389 167.199941,63.0752668 167.428813,63.5935439 C167.474859,63.7296574 167.558441,63.8695951 167.678168,64.025 C168.288896,64.7456522 169.898996,65.0228261 169.898996,67.351087 C169.898996,69.3467391 172.452949,67.9054348 173.119197,67.1293478 C173.729925,66.3532609 174.17409,62.8608696 175.895232,65.4108696 C176.219684,65.8967939 176.30909,66.5235269 176.313295,67.1892505 C176.310815,67.9173975 176.213923,68.6920523 176.217378,69.3774179 C176.212131,70.4303232 176.42636,71.2808878 177.560853,71.4532609 C179.615119,71.7858696 180.003764,74.1141304 180.059285,74.723913 L180.059285,74.8902174 C182.373397,72.6759583 183.012985,70.1795606 182.986797,67.9953552 C182.972583,65.1057585 181.788272,62.749395 181.724906,62.3065217 C181.702698,62.1623913 181.690483,62.0382174 181.687485,61.932337 L181.687399,61.8877961 C181.713051,61.0737418 182.405388,61.585447 183.222953,62.3056299 Z"/>
</svg>
