<svg xmlns="http://www.w3.org/2000/svg" viewBox="0 0 119 47">
  <title>
    Group 2
  </title>
  <g fill="none" transform="translate(.76 .843)">
    <path fill="#004F70" d="M36.7303552,1.71210154e-05 C36.6805098,0.00374083988 35.9506304,0.307668715 35.1068185,0.678312465 C34.2665671,1.04895621 32.9100594,1.64198621 32.0982911,1.99780421 C27.2348012,4.11418003 24.3152834,5.60787434 22.1078432,7.09786221 C20.4344611,8.22461921 19.0850742,9.49963371 18.3801175,10.6152714 C17.8068951,11.5233486 17.5612283,12.3276455 17.5612283,13.2839064 C17.5612283,13.839872 17.6003926,14.1030291 17.7570497,14.6145175 C17.9849145,15.3706307 18.3694363,16.008138 19.0103061,16.7049482 C20.0072146,17.7798151 21.2106255,18.5470477 23.126114,19.3328124 C24.8457812,20.0370355 26.9499702,20.6411848 30.5851264,21.4751333 C34.220282,22.3053753 35.3382437,22.5833581 36.5772586,22.9540018 C39.1086941,23.717528 40.7144288,24.5774215 41.4122648,25.5448017 C42.2347143,26.6863844 42.1279027,27.9984633 41.0811487,29.6626537 C40.7429119,30.2000872 40.5114867,30.5114279 39.6107087,31.6085334 C34.0565042,38.4172591 31.6390011,41.6233275 30.3964253,43.84719 C30.1293962,44.321614 30.1187151,44.380917 30.3145364,44.3475591 C30.5139186,44.3142012 31.6211992,43.9324381 32.2585085,43.6766939 C37.260853,41.6715112 41.5012745,37.9020643 44.2107294,33.0577505 C47.148049,27.8057285 48.1200348,21.6567487 46.9593485,15.6374942 C45.8663095,9.97035128 42.9040671,4.9518349 38.4820659,1.26763603 C37.6667371,0.589357965 36.847848,-0.00367203512 36.7303552,1.71210154e-05 L36.7303552,1.71210154e-05 Z M4.13155778,6.70345445 C4.08011161,6.71020443 3.99259158,6.84304315 3.84305531,7.08303646 C1.69970203,10.5337298 0.471368346,14.19569 0.0654841712,18.3431936 C-0.0128443538,19.1586098 -0.0235255163,21.879135 0.0476822337,22.6982577 C0.524774159,28.0985371 2.42958147,32.8390707 5.69445681,36.764188 C9.39013903,41.1970872 14.2536284,44.0510441 19.7579874,45.0110114 C21.1892632,45.2593427 21.7731668,45.30382 23.6245683,45.3075264 C24.9703947,45.3075264 25.3940808,45.2964071 25.8854143,45.2408105 C26.4942406,45.1740947 27.4128206,45.0443693 27.573038,45.0035985 C27.6406854,44.9850663 27.7012119,44.888699 27.8614294,44.532881 C28.4204102,43.3060502 28.8440963,41.9532005 29.0399176,40.7671405 C29.1467293,40.1148075 29.1752124,38.806435 29.0933235,38.2096986 C28.9758307,37.3349793 28.7693282,36.6418755 28.3883667,35.8672301 C27.9824826,35.0295752 27.462666,34.2957006 26.3553855,32.9910346 C25.340675,31.7938553 25.0059986,31.3416699 24.7033657,30.7671721 C24.3473269,30.0926005 24.2120322,29.555167 24.2405153,28.9250727 C24.2689984,28.2653268 24.4078535,27.868738 25.0344817,26.6456136 C25.3798393,25.9673355 25.3762789,25.3038832 25.0202402,24.7182661 C24.8635831,24.455109 24.3580081,23.9436207 23.9877278,23.6656378 C23.0442251,22.9651212 21.9369446,22.4313942 18.3551948,20.9376998 C15.3075031,19.6663918 13.9296331,19.0400038 12.4271496,18.2357069 C8.61041417,16.1934598 6.36737005,14.0993227 5.12479481,11.4306877 C4.52664971,10.1482603 4.22045638,8.77317196 4.20621483,7.34619353 C4.20422102,6.89586137 4.19770408,6.69534903 4.13155778,6.70345445 L4.13155778,6.70345445 Z M24.3231277,12.8602132 C24.5770745,12.8623481 24.8351,12.8859269 25.0914479,12.9317948 C26.5227237,13.1838326 28.0287676,14.0993227 28.4417725,14.966629 C28.60199,15.3002084 28.6055504,15.4114015 28.4666953,15.5744848 C28.2388305,15.8450547 27.7510574,15.9599543 26.9891344,15.9191835 C25.7643611,15.8524676 24.6463995,15.593017 23.7527422,15.1593638 C23.3254957,14.9518033 22.7807564,14.5700402 22.5742539,14.3328282 C22.399795,14.1326806 22.2004133,13.7509175 22.2004133,13.6174858 C22.2004133,13.4877605 22.3036645,13.3802738 22.5528916,13.2505485 C23.0519041,12.9894759 23.6741573,12.854778 24.3231277,12.8602132 Z M30.2307562,15.3826188 C30.3637495,15.384902 30.5254899,15.406767 30.70974,15.4484659 C31.7030881,15.6819715 32.6109869,16.1823405 32.7890063,16.5974615 C32.8815763,16.805022 32.8459725,16.9088023 32.6430304,17.0348212 C32.5041753,17.1163628 32.4258467,17.1386014 32.1694988,17.1497207 C31.7814166,17.1682529 31.5393102,17.1163628 31.1761507,16.9347473 C30.7845081,16.7383062 30.4854355,16.5196263 30.2290871,16.2490564 C29.9941015,16.0044315 29.8018406,15.6486135 29.8338841,15.533714 C29.8672634,15.4294712 30.0091007,15.3788175 30.2307562,15.3826188 Z M34.4054777,18.0913871 C34.5118254,18.0925732 34.6186002,18.1140883 34.7828233,18.1578717 C35.1353016,18.2505327 35.5233839,18.4617996 35.7441279,18.6841858 C35.8972245,18.8398562 35.9114661,18.8658013 35.8687414,18.9213978 C35.8295772,18.973288 35.7690506,18.9807008 35.4806592,18.9621687 C34.7472194,18.9251043 33.8072771,18.5507541 33.8072771,18.2987163 C33.8072771,18.2468262 33.9746153,18.1541653 34.1312723,18.1245138 C34.2403091,18.1018126 34.3227631,18.0904561 34.4054777,18.0913871 Z"/>
    <g fill="#373737" transform="translate(54.458 6.964)">
      <path d="M8.8817842e-16,0 L7.15637888,0 L7.12433539,27.042168 C7.03888609,27.9502452 6.75405509,28.584046 6.12742689,29.2549112 C5.49367791,29.9331892 4.8136439,30.2741815 3.91642625,30.3594296 C3.7312861,30.3742553 2.77354186,30.3890811 1.79087491,30.3927875 L8.8817842e-16,30.3927875 L8.8817842e-16,0 Z" transform="matrix(1 0 0 -1 0 30.393)"/>
      <path d="M9.90855841.07412875L15.8935698.07412875C19.5180443.07412875 22.1100064.0889545 22.4660451.111193125 28.2409936.481836875 32.9442655 3.52482206 35.2834401 8.40620025 36.10945 10.1296937 36.5901023 11.9680867 36.7467594 13.9843887 36.8001652 14.7182633 36.7716821 16.60484 36.6897932 17.2719987 36.3551168 20.1000106 35.4009329 22.5091949 33.7738358 24.6478094 33.3145458 25.2519587 32.1894634 26.4194865 31.5806371 26.923562 29.163134 28.9287447 26.1154423 30.1110982 22.722393 30.3520167 22.3699147 30.3779617 19.9773343 30.3927875 16.0181834 30.3927875L9.86227337 30.3927875 9.90855841.07412875zM22.6796684 23.4876944C25.4638914 23.0132704 27.4327857 21.5566405 28.5365058 19.154869 29.0100373 18.1244794 29.2770664 16.9569516 29.3340326 15.715295 29.447965 13.0614857 28.7145252 10.8635683 27.1728774 9.23644225 26.0371138 8.03926294 24.5880361 7.30538831 22.7366346 6.997754 22.3022673 6.92362525 22.0993252 6.91621237 19.6960636 6.90509306 17.7378505 6.89397375 17.1076619 6.89768019 17.0684977 6.93474456 17.025773 6.97180894 17.0186522 8.10227237 17.0186522 15.2519903 17.0186522 19.7997891 17.0293334 23.5358781 17.043575 23.5507039 17.0578165 23.5655296 18.2469859 23.5692361 19.6889429 23.5618232 21.9426682 23.5507039 22.3556731 23.5395846 22.6796684 23.4876944zM38.8082238.07412875L46.0642935.07412875C53.2918801.07412875 53.9683537.0852480625 55.0435908.2075605 59.7219399.737581062 62.6770616 2.95032425 63.4817091 6.52333 63.6419266 7.24979175 63.6739701 7.60560975 63.6775304 8.69159594 63.6775304 9.84059156 63.6348058 10.2482997 63.4461053 11.0414773 63.2538443 11.8235356 63.0046172 12.4165656 62.598733 13.0503664 61.9151386 14.1104076 60.8577035 15.0444298 59.5581621 15.7338272 59.2875727 15.8783782 59.070389 16.0043971 59.0775098 16.0155164 59.0810702 16.0303422 59.2377272 16.1637739 59.4228674 16.3120314 60.889747 17.4906786 61.7513608 18.9991986 62.0397522 20.8857753 62.1180807 21.4009701 62.1501242 22.6352138 62.0967184 23.1837666 61.9258198 24.9369115 61.3347955 26.2971741 60.2061526 27.516592 59.1558383 28.6544683 57.8491761 29.4402331 56.2648037 29.8924184 55.4494749 30.125924 54.5878612 30.2778879 53.6407981 30.3557231 53.3524067 30.3779617 50.5218986 30.3927875 45.9966461 30.3927875L38.8082238 30.3927875 38.8082238.07412875zM52.0350633 23.7174936C53.9897161 23.543291 55.0115473 22.6722782 55.0079961 21.1859967 55.0044265 20.4706543 54.8335279 20.0110561 54.3884795 19.5477514 53.897146 19.0399694 53.3025613 18.7842252 52.2308846 18.6174356 51.9211309 18.5692519 51.3514689 18.5544261 48.8734392 18.5433068 46.5947912 18.5321875 45.8755929 18.5358939 45.8364287 18.5729583 45.793704 18.6100227 45.7865833 18.9917857 45.7865833 21.1637581 45.7865833 22.5610851 45.7972644 23.7212 45.811506 23.7323193 45.8506702 23.7730901 51.5650922 23.7619708 52.0350633 23.7174936zM53.1565854 12.157115C55.1682043 11.9977382 56.2470017 11.3120472 56.5211516 10.022207 56.6101613 9.61449887 56.5816782 8.98069806 56.4535042 8.57669637 56.2185186 7.82058312 55.5990112 7.26832394 54.6697501 6.98663469 53.9185083 6.760542 54.0680446 6.76795487 49.7955796 6.75683556 46.8760618 6.74571625 45.8720326 6.75312912 45.8364287 6.78648706 45.793704 6.82355144 45.7865833 7.26091106 45.7865833 9.48848 45.7865833 10.9488164 45.7972644 12.157115 45.811506 12.1682343 45.8506702 12.2090051 52.6260876 12.1978858 53.1565854 12.157115z" transform="matrix(1 0 0 -1 0 30.467)"/>
    </g>
  </g>
</svg>
