<svg xmlns="http://www.w3.org/2000/svg" xmlns:xlink="http://www.w3.org/1999/xlink" viewBox="0 0 1230 544">
  <title>
    philadelphia-water-department
  </title>
  <defs>
    <path id="philadelphia-water-department-a" d="M252.6,157.928569 C261.462,131.344569 270.216,105.074569 278.978,78.8055693 C287.687,52.6945693 296.404,26.5845693 305.078,0.590569287 L372.076,0.590569287 C371.619,2.80156929 371.426,4.70556929 370.83,6.47556929 C361.403,34.4425693 351.923,62.3935693 342.456,90.3485693 C333.676,116.271569 324.894,142.194569 316.119,168.118569 C308.454,190.762569 300.812,213.414569 293.129,236.053569 C288.837,248.698569 284.369,261.285569 280.253,273.987569 C279.405,276.608569 278.2,277.371569 275.698,277.363569 C259.869,277.307569 244.038,277.252569 228.211,277.405966 C224.985,277.435569 223.876,275.762569 222.988,273.218569 C218.696,260.920569 214.387,248.627569 210.014,236.358569 C202.269,214.626569 194.474,192.912569 186.601,170.917569 C184.839,171.918569 184.463,173.419569 183.928,174.954569 C177.962,192.070569 171.998,209.188569 165.896,226.254569 C159.853,243.157569 153.65,260.000569 147.436,277.097569 L93.277,277.097569 C92.793,275.806569 92.249,274.460569 91.782,273.088569 C83.214,247.956569 74.638,222.828569 66.102,197.685569 C58.415,175.043569 50.769,152.389569 43.12,129.735569 C35.734,107.862569 28.367,85.9815693 20.988,64.1045693 C14.189,43.9465693 7.382,23.7905693 0.589,3.62956929 C0.337,2.88156929 0.191,2.09556929 0,1.34456929 C3.85,0.023569287 43.736,-0.456430713 66.521,0.508569287 C67.958,4.33456929 69.628,8.39656929 71.021,12.5515693 C86.691,59.3115693 102.316,106.084569 117.96,152.852569 C118.512,154.502569 119.14,156.126569 120.585,157.678569 C134.023,105.288569 147.462,52.8985693 160.943,0.342569287 L168.958,0.342569287 C181.621,0.342569287 194.285,0.324569287 206.949,0.354569287 C210.972,0.363569287 210.996,0.413569287 212.062,4.57156929 C216.392,21.4505693 220.707,38.3345693 225.025,55.2175693 C232.032,82.6145693 239.023,110.015569 246.051,137.407569 C247.726,143.934569 249.517,150.431569 251.288,156.933569 C251.356,157.178569 251.783,157.324569 252.6,157.928569 Z M1074.2104,129.342669 C1086.6114,129.342669 1098.4204,129.412669 1110.2264,129.293669 C1113.3304,129.262669 1116.5174,128.988669 1119.5124,128.221669 C1125.9524,126.572669 1132.2824,124.360669 1136.7024,119.024669 C1141.8984,112.752669 1144.5234,105.382669 1144.9814,97.2386693 C1145.2814,91.9016693 1144.5664,86.7276693 1143.0094,81.6086693 C1141.3684,76.2096693 1138.5324,71.7706693 1133.9574,68.3796693 C1126.9964,63.2206693 1118.8324,61.8286693 1110.6124,61.4576693 C1099.8164,60.9716693 1088.9814,61.3266693 1078.1634,61.3546693 C1076.8864,61.3586693 1075.6094,61.5806693 1074.2104,61.7126693 L1074.2104,129.342669 Z M1074.0774,277.151669 L1007.8394,277.151669 C1006.7844,273.762669 1006.3774,9.38666929 1007.4604,1.62166929 C1008.8254,1.53166929 1010.2724,1.35566929 1011.7204,1.35466929 C1048.8854,1.33866929 1086.0524,1.10666929 1123.2114,1.52566929 C1131.4974,1.61866929 1139.8514,3.60666929 1148.0114,5.44266929 C1164.6534,9.18766929 1179.2234,16.9746693 1191.2564,29.2356693 C1201.2394,39.4066693 1207.4054,51.7206693 1210.8874,65.3586693 C1213.4714,75.4796693 1214.6624,85.8896693 1213.8904,96.3256693 C1212.9024,109.659669 1210.9524,122.821669 1204.7084,134.988669 C1198.0344,147.994669 1188.3174,158.131669 1176.2764,166.197669 C1175.6034,166.649669 1174.9124,167.076669 1173.7974,167.793669 C1183.0364,186.059669 1192.2764,204.160669 1201.3634,222.338669 C1210.3784,240.373669 1219.6244,258.300669 1228.6814,277.336669 L1222.7224,277.336669 C1201.7234,277.336669 1180.7244,277.279669 1159.7264,277.396031 C1156.3804,277.414669 1154.3474,276.692669 1152.7904,273.316669 C1145.5744,257.668669 1138.0154,242.180669 1130.5884,226.628669 C1124.1644,213.176669 1117.7574,199.715669 1111.3354,186.262669 C1111.0574,185.679669 1110.7094,185.130669 1110.6614,185.044669 C1098.8044,185.156669 1087.3844,185.260669 1075.9644,185.389669 C1075.4974,185.395669 1075.0344,185.631669 1074.0774,185.896669 L1074.0774,277.151669 Z M966.1137,167.418869 L859.2457,167.418869 L859.2457,216.150869 L977.9447,216.150869 C979.1717,220.054869 979.4627,270.499869 978.3957,277.028869 L792.3447,277.028869 L792.3447,1.63286929 L977.5597,1.63286929 C977.7047,3.02286929 977.9477,4.29486929 977.9497,5.56686929 C977.9747,23.0648693 977.9817,40.5638693 977.9587,58.0598693 C977.9527,63.1448693 977.7647,63.3268693 972.5267,63.3288693 C936.8647,63.3448693 901.2037,63.3368693 865.5427,63.3378693 L859.3127,63.3378693 L859.3127,109.182869 C861.1367,109.232869 863.0597,109.334869 864.9837,109.334869 C896.4787,109.344869 927.9737,109.342869 959.4697,109.342869 C960.6357,109.342869 961.8047,109.295869 962.9677,109.357869 C966.2227,109.530869 966.9237,110.021869 966.9267,113.126869 C966.9507,130.787869 966.8707,148.448869 966.8137,166.109869 C966.8137,166.252869 966.6697,166.393869 966.1137,167.418869 Z M626.9594,277.000869 L626.9594,63.5548693 L551.9234,63.5548693 C550.7924,59.6298693 550.5114,8.06686929 551.4994,1.65886929 L771.5214,1.65886929 C771.6674,2.87886929 771.9444,4.13886929 771.9464,5.39886929 C771.9764,23.0578693 771.9854,40.7148693 771.9544,58.3728693 C771.9464,63.0788693 771.6774,63.3208693 766.7154,63.3268693 C744.8924,63.3498693 723.0694,63.3368693 701.2474,63.3378693 L695.2484,63.3378693 C694.6554,75.3848693 695.0584,87.1338693 694.9834,98.8698693 C694.9104,110.696869 694.9684,122.523869 694.9684,134.352869 L694.9684,170.334869 L694.9684,205.816869 L694.9684,241.299869 L694.9684,277.000869 L626.9594,277.000869 Z M486.9594,165.763569 C487.6424,157.715569 486.0244,150.014569 483.4684,142.411569 C475.9004,119.909569 468.4444,97.3695693 460.9684,74.8365693 C460.1204,72.2835693 459.4084,69.6825693 458.6344,67.1045693 C458.2864,67.1955693 457.9394,67.2855693 457.5934,67.3755693 C456.8754,69.7095693 456.2024,72.0575693 455.4354,74.3735693 C447.5554,98.1595693 439.6184,121.926569 431.7924,145.730569 C429.1884,153.647569 427.7104,161.717569 430.0114,170.024569 C431.5904,175.725569 434.0634,181.070569 438.8524,184.645569 C446.4314,190.301569 454.6064,193.623569 464.6104,191.453569 C477.6904,188.617569 485.9294,177.907569 486.9594,165.763569 Z M585.1964,272.956569 C585.5974,274.144569 585.7784,275.407569 586.1534,277.035569 L514.1224,277.035569 C508.8134,260.951569 504.3924,244.313569 499.3604,227.594569 L417.1294,227.594569 C415.4404,232.965569 413.6444,238.423569 412.0114,243.930569 C409.1124,253.709569 406.3764,263.535569 403.4414,273.304569 C402.2374,277.312569 402.0834,277.322569 397.9074,277.326569 C379.0784,277.349569 360.2484,277.336569 341.4194,277.337569 L329.9714,277.337569 C330.3254,275.787569 330.4794,274.717569 330.8164,273.709569 C336.8914,255.575569 342.9504,237.435569 349.0934,219.325569 C352.5364,209.176569 356.1574,199.088569 359.6464,188.954569 C367.1034,167.287569 374.5114,145.603569 381.9654,123.934569 C388.9374,103.666569 395.9394,83.4105693 402.9294,63.1495693 C409.5964,43.8245693 416.2594,24.4965693 422.9364,5.17456929 C423.3624,3.94056929 423.8904,2.74256929 424.3914,1.47656929 L491.5154,1.47656929 C492.5784,4.27956929 493.7564,7.13556929 494.7534,10.0535693 C502.8554,33.7745693 510.8744,57.5225693 519.0194,81.2285693 C525.1814,99.1615693 531.5304,117.032569 537.7264,134.953569 C544.1914,153.657569 550.5484,172.397569 556.9964,191.106569 C563.2824,209.346569 569.6404,227.563569 575.9394,245.800569 C579.0624,254.840569 582.1374,263.895569 585.1964,272.956569 Z"/>
  </defs>
  <g fill="none" fill-rule="evenodd">
    <g transform="translate(.756 169.855)">
      <mask id="philadelphia-water-department-b" fill="#fff">
        <use xlink:href="#philadelphia-water-department-a"/>
      </mask>
      <use fill="#051C72" xlink:href="#philadelphia-water-department-a"/>
      <path fill="#0074C9" d="M42.7436,132.645018 C171.076933,70.6450178 312.2436,70.6450178 466.2436,132.645018 C588.910267,164.978351 713.2436,164.978351 839.2436,132.645018 C1034.91027,79.6450178 1173.7436,79.6450178 1255.7436,132.645018 C1337.7436,185.645018 1322.7436,264.645018 1210.7436,369.645018 L27.2436,369.645018 L42.7436,132.645018 Z" mask="url(#philadelphia-water-department-b)"/>
      <path fill="#0285C1" d="M62.2436,192.145018 C162.910267,125.811685 278.2436,119.478351 408.2436,173.145018 C538.2436,226.811685 678.910267,236.311685 830.2436,201.645018 C1034.2436,134.311685 1190.7436,134.311685 1299.7436,201.645018 C1408.7436,268.978351 1318.2436,321.145018 1028.2436,358.145018 L46.7436,349.145018 L62.2436,192.145018 Z" mask="url(#philadelphia-water-department-b)"/>
    </g>
    <g fill="#051C72">
      <path d="M537.8955 100.951551C545.8655 101.494551 553.3105 101.115551 560.8055 99.3755514 568.1265 97.6755514 572.7245 93.0435514 575.7945 86.7795514 578.4885 81.2865514 579.9495 75.3055514 579.7055 69.0915514 579.4825 63.4785514 579.7465 57.7215514 578.5435 52.3055514 576.7245 44.1135514 573.2665 36.6955514 564.8265 32.7505514 556.0565 28.6525514 547.0395 30.6795514 537.8955 30.2755514L537.8955 100.951551zM505.9765 130.191551L505.9765.492551441C507.6485.383551441 509.0995.209551441 510.5505.207551441 525.7075.186551441 540.8865-.321448559 556.0135.333551441 572.4905 1.04655144 587.5875 6.07255144 598.8375 19.0115514 605.6835 26.8845514 609.7265 36.2505514 611.7225 46.5025514 613.6805 56.5585514 613.0505 66.7545514 612.5055 76.8035514 611.9525 87.0265514 609.0685 97.0215514 603.3825 105.758551 596.2345 116.744551 586.1095 123.941551 573.3575 127.086551 564.8635 129.180551 556.2365 130.416551 547.4025 130.248551 535.5805 130.023551 523.7515 130.192551 511.9255 130.191551L505.9765 130.191551zM942.0625.461351441L973.5425.461351441 973.5425 50.1523514C987.0585 50.2403514 1000.0915 50.1893514 1013.6135 50.1803514L1013.6135.557351441 1044.8615.557351441C1045.9325 3.88935144 1046.3135 122.078351 1045.2065 129.851351L1013.8055 129.851351C1013.6155 113.899351 1013.8265 97.8563514 1013.6865 81.5143514L973.8165 81.5143514 973.8165 129.925351 942.0625 129.925351 942.0625.461351441zM213.4043 129.929051L181.7953 129.929051 181.7953 81.5690514 141.8823 81.5690514C141.5473 89.5280514 141.7743 97.6080514 141.7333 105.676051 141.6933 113.633051 141.7243 121.590051 141.7243 129.866051L110.4963 129.866051C109.5543 126.369051 109.2933 6.71205144 110.2673.510051441L141.6453.510051441C141.6723 8.83005144 141.7083 17.0860514 141.7213 25.3430514 141.7343 33.4540514 141.7243 41.5670514 141.7243 49.9340514L181.7003 49.9340514 181.7003.462051441 213.4043.462051441 213.4043 129.929051zM629.999 129.889051L629.999.491051441 716.353.491051441 716.353 29.8810514C710.554 30.5350514 704.617 30.0970514 698.711 30.1740514 692.549 30.2550514 686.384 30.1930514 680.22 30.1930514L662.041 30.1930514 662.041 51.1120514 711.725 51.1120514 711.725 64.6140514C711.725 67.9450514 711.77 71.2780514 711.711 74.6080514 711.638 78.7650514 711.298 79.1550514 707.088 79.1730514 695.427 79.2240514 683.766 79.1920514 672.103 79.1930514L661.994 79.1930514 661.994 101.018051 717.57 101.018051C717.869 110.855051 717.691 120.217051 717.69 129.889051L629.999 129.889051zM1169.1162 42.9095514C1168.7892 42.9285514 1168.4612 42.9465514 1168.1332 42.9655514 1164.9452 54.4945514 1161.7592 66.0235514 1158.5552 77.6125514 1165.1402 78.6775514 1175.1992 78.4305514 1178.7632 77.1425514 1175.5512 65.7425514 1172.3342 54.3255514 1169.1162 42.9095514M1228.9872 130.192551L1211.7872 130.192551C1207.2932 130.191551 1202.7972 130.229551 1198.3032 130.180551 1194.3892 130.135551 1194.3542 130.101551 1193.1992 126.254551 1191.6872 121.215551 1190.2632 116.150551 1188.7482 111.113551 1188.3752 109.872551 1187.7922 108.693551 1187.2672 107.392551L1149.9462 107.392551C1147.8092 114.642551 1145.6032 122.128551 1143.3132 129.896551L1108.7092 129.896551C1123.5192 86.4265514 1138.2082 43.3125514 1152.8452.351551441L1184.2512.351551441C1184.7742 1.72455144 1185.3262 3.06455144 1185.7992 4.43055144 1191.3892 20.6285514 1196.9922 36.8225514 1202.5452 53.0335514 1207.2992 66.9065514 1211.9702 80.8085514 1216.7202 94.6835514 1220.6652 106.207551 1224.6722 117.707551 1228.9872 130.192551M424.2129 77.8490514L444.6799 77.8490514C441.2799 65.7860514 437.9959 54.1270514 434.7119 42.4700514 434.4799 42.4720514 434.2469 42.4740514 434.0159 42.4760514 430.8049 54.0620514 427.5939 65.6480514 424.2129 77.8490514M374.8129 129.424051C375.1349 128.099051 375.3729 126.661051 375.8339 125.297051 380.8419 110.458051 385.8669 95.6240514 390.9249 80.8010514 396.8339 63.4840514 402.7639 46.1720514 408.7149 28.8700514 411.6639 20.2950514 414.7939 11.7800514 417.5899 3.15705144 418.2909.995051441 419.2549.172051441 421.3999.181961514 430.8819.225051441 440.3629.201051441 450.2449.201051441 454.0369 11.2090514 457.8219 22.0730514 461.5219 32.9650514 467.6199 50.9200514 473.6339 68.9050514 479.7399 86.8570514 483.9349 99.1890514 488.2459 111.481051 492.4509 123.809051 493.0739 125.635051 493.3979 127.563051 493.9639 129.870051L460.1369 129.870051C457.9309 122.611051 455.6519 115.114051 453.3169 107.422051 451.7129 107.342051 450.2419 107.205051 448.7719 107.203051 438.9419 107.184051 429.1109 107.237051 419.2829 107.166051 416.6349 107.147051 415.1889 107.653051 414.5439 110.791051 413.3889 116.412051 411.3239 121.838051 409.8259 127.397051 409.2969 129.360051 408.2989 130.193051 406.3569 130.184124 396.1959 130.137051 386.0349 130.114051 375.8749 130.055051 375.6019 130.054051 375.3309 129.743051 374.8129 129.424051M862.9756 62.1917514C868.7246 62.1917514 873.8886 62.4457514 879.0176 62.1307514 886.3096 61.6847514 892.4666 57.7087514 893.9846 49.6417514 894.6056 46.3457514 894.1876 43.4847514 893.6716 40.4847514 892.9686 36.3867514 890.7596 33.2207514 886.9396 31.3337514 879.2016 27.5107514 871.0926 29.7937514 862.9756 29.1727514L862.9756 62.1917514zM831.0566.426751441C832.9336.341751441 834.5586.205751441 836.1836.203751441 852.0046.187751441 867.8296.0117514408 883.6466.273751441 891.0816.396751441 898.4566 1.73675144 905.0786 5.43575144 915.7496 11.3977514 922.7886 20.0707514 924.7646 32.4657514 926.5056 43.3887514 926.7146 54.2327514 922.6736 64.6937514 919.5706 72.7277514 914.4556 79.1067514 906.5816 83.3067514 898.7756 87.4717514 890.6426 89.4047514 881.8676 89.2167514 875.7376 89.0867514 869.6036 89.1927514 862.9566 89.1927514L862.9566 129.112751C859.0686 130.395751 838.6396 130.713751 831.0566 129.725751L831.0566.426751441zM32.04 29.2562514L32.04 62.1762514C37.461 62.1762514 42.596 62.4472514 47.683 62.0662514 50.378 61.8632514 53.271 60.9982514 55.584 59.6112514 62.203 55.6422514 63.754 47.9222514 62.424 41.8992514 60.963 35.2832514 57.174 30.2162514 50.127 29.3962514 44.269 28.7142514 38.269 29.2562514 32.04 29.2562514L32.04 29.2562514zM7.10542736e-15.194249735L5.939.194249735C20.771.194249735 35.604.194249735 50.437.194249735 58.496.192251441 66.144 1.94925144 73.359 5.55625144 83.629 10.6882514 89.748 19.1822514 92.631 30.0362514 93.762 34.2972514 94.758 38.8202514 94.559 43.1662514 93.977 55.8052514 92.303 68.3112514 82.562 77.7932514 77 83.2092514 70.131 86.5102514 62.575 88.0042514 58.234 88.8632514 53.722 89.0022514 49.275 89.1492514 43.65 89.3322514 38.016 89.1932514 31.875 89.1932514L31.875 129.916251C21 130.428251 10.637 130.192251 7.10542736e-15 130.063251L7.10542736e-15.194249735zM734.0625.478951441L765.7245.478951441 765.7245 50.3889514 765.7245 100.933951C771.4495 101.457951 777.0465 101.119951 782.6205 101.180951 788.1135 101.241951 793.6085 101.193951 799.1025 101.193951L816.3575 101.193951 816.3575 129.333951C812.9705 130.393951 742.3325 130.789951 734.0625 129.734951L734.0625.478951441zM286.1611.403751441L317.5251.403751441C317.9451 5.99275144 317.6611 11.5917514 317.7131 17.1677514 317.7641 22.6607514 317.7241 28.1557514 317.7241 33.6497514L317.7241 50.6327514 317.7241 67.1157514 317.7241 84.0977514 317.7241 100.975751 367.6401 100.975751C368.9371 104.800751 369.2241 122.694751 368.2071 129.849751L286.5421 129.849751C285.5351 126.549751 285.1021 9.36575144 286.1611.403751441M234.04.457451441L265.391.457451441 265.391 129.328451C261.963 130.390451 240.967 130.666451 234.04 129.689451L234.04.457451441z"/>
      <polygon points="1066.064 129.926 1097.367 129.926 1097.367 .479 1066.064 .479"/>
    </g>
    <path fill="#2C2F6D" d="M0 42.2972L0 32.5292C1.873 32.4472 3.497 32.3132 5.12 32.3132 76.938 32.3022 148.756 32.3031763 220.574 32.3031763 221.407 32.3031763 222.241 32.3342 223.073 32.3092 225.574 32.2312 226.777 33.4302 226.721 35.9292 226.691 37.0952 226.735 38.2632 226.689 39.4282 226.617 41.2072 225.668 42.1792 223.879 42.2602 222.881 42.3052 221.879 42.2962 220.88 42.2962 148.729 42.2982 76.577 42.2972 4.426 42.2972L0 42.2972zM1007.9805 41.9945L1007.9805 32.5865C1009.6645 32.4825 1011.1185 32.3145 1012.5725 32.3145 1082.7095 32.3025 1152.8455 32.3035 1222.9825 32.3045 1223.8165 32.3045 1224.6485 32.3125 1225.4815 32.3255 1227.4615 32.3555 1228.6345 33.2975 1228.6845 35.3365 1228.7365 37.4605 1228.6965 39.5865 1228.6965 41.9945L1007.9805 41.9945zM696.3936 57.2845C696.8746 38.6085 697.3366 20.7245 697.7936 3.0025 700.1686 1.6255 701.1566 3.3325 702.2286 4.4485 708.5476 11.0305 714.8106 17.6675 721.1076 24.2715 721.6716 24.8635 722.3406 25.3535 723.3266 26.2075 730.9456 17.6105 738.5786 9.1825 747.6376 1.5605 748.2876 3.0715 748.6186 3.4975 748.6386 3.9375 749.0226 12.2055 749.3676 20.4745 749.7246 28.7445 750.0546 36.3475 750.4036 43.9515 750.7146 51.5565 750.7816 53.1935 750.7246 54.8365 750.7246 56.7545 745.7056 57.7375 741.0016 57.2745 735.9566 57.0885L735.9566 34.6585C733.6006 36.9765 732.0466 38.4955 730.5026 40.0245 729.2026 41.3125 727.9276 42.6295 726.6156 43.9055 723.2436 47.1855 722.5206 47.0035 719.6696 43.4595 717.2346 40.4305 714.4156 37.7105 711.7666 34.8525 711.4186 35.0025 711.0726 35.1505 710.7246 35.2995 710.7246 38.8905 710.7256 42.4815 710.7246 46.0735 710.7226 48.5705 710.6626 51.0685 710.7326 53.5635 710.8026 56.0185 709.8226 57.3275 707.2466 57.2955 703.9506 57.2525 700.6536 57.2845 696.3936 57.2845M569.9785 14.9467L569.9785 30.4517C572.6745 30.0337 575.0195 29.6017 577.3835 29.3207 581.4195 28.8427 583.0905 27.2477 583.6585 23.1487 584.0375 20.4187 582.1115 17.2157 579.0475 16.3757 576.2825 15.6177 573.3535 15.4517 569.9785 14.9467M578.2535 41.3967L569.9765 41.3967 569.9765 57.2657C565.3985 57.2657 561.4735 57.2887 557.5485 57.2567 555.7485 57.2427 554.8225 56.2487 554.7615 54.4557 554.7405 53.7907 554.732486 53.1247 554.732486 52.4597 554.732486 37.1497 554.7315 21.8417 554.7465 6.5317 554.7485 5.7107 554.8875 4.8877 554.9555 4.1527 555.3155 3.8697 555.5725 3.4897 555.8325 3.4877 565.3145 3.4087 574.8065 3.0747 584.2745 3.4047 592.0485 3.6767 597.8415 11.0807 598.8175 16.9437 599.3655 20.2387 599.6285 23.2977 598.8145 26.6117 597.7995 30.7387 596.6115 33.2037 592.6445 36.2587 596.3355 42.6817 600.0685 49.1757 604.1445 56.2687 602.3275 56.7097 601.1355 57.2037 599.9255 57.2527 596.9355 57.3757 593.9305 57.1757 590.9435 57.3317 588.2345 57.4727 586.6975 56.2597 585.4655 53.9477 583.2195 49.7307 580.7175 45.6517 578.2535 41.3967M276.0137 44.2836C279.1507 44.2836 281.9547 44.4536 284.7287 44.2346 287.5257 44.0146 289.6307 42.5576 290.9067 39.9136 292.3797 36.8596 292.7927 33.6876 292.7647 30.3266 292.6687 18.7966 288.6017 14.8446 277.1567 15.4266 276.8657 15.4406 276.5867 15.6976 276.0137 15.9886L276.0137 44.2836zM262.0377 57.2386L262.0377 3.3716C271.6207 3.3716 280.9057 3.3456 290.1887 3.4126 291.1297 3.4186 292.0697 3.9826 293.0067 4.2966 300.9457 6.9546 305.5177 12.6946 307.5937 20.5546 309.2227 26.7266 309.2407 33.0046 307.6137 39.1706 305.3477 47.7576 298.8887 54.8426 287.6537 56.4206 279.1997 57.6086 270.8297 57.0546 262.0377 57.2386L262.0377 57.2386zM854.0645 1.2533C863.6485 9.3203 873.2325 17.3873 883.3785 25.9303 884.2225 18.3953 883.2875 11.1793 883.9985 3.6823L896.8435 3.6823C897.9625 6.9823 898.4185 47.1883 897.3965 57.8893 895.2265 58.0983 893.8195 56.8163 892.3065 55.5173 884.0485 48.4253 875.7365 41.3983 866.8435 33.8393L866.8435 57.0093 853.0745 57.0093 853.0745 1.8223C853.4045 1.6333 853.7345 1.4423 854.0645 1.2533M821.7139 3.6703C821.7139 6.5303 821.6689 9.1563 821.7269 11.7813 821.7829 14.3673 820.4689 15.3323 818.0239 15.3053 813.6909 15.2563 809.3579 15.2953 805.0239 15.2973 803.2109 15.2993 801.3989 15.2983 799.1579 15.2983L799.1579 23.2993 809.5009 23.2993 820.3259 23.2993 820.3259 35.8733C813.5049 36.9633 806.3719 35.7723 799.0569 36.5433L799.0569 43.8023C806.3079 45.6023 813.6689 43.0663 821.3649 43.4083L821.3649 56.4523C817.9429 57.4943 790.7849 57.7713 784.0269 56.7743L784.0269 3.6703 821.7139 3.6703zM339.8867 56.8129L339.8867 4.1649C343.5427 3.0869 371.7177 2.8959 377.7147 3.9699 377.7147 6.4629 377.6617 9.0829 377.7307 11.6989 377.7967 14.2429 376.5967 15.3229 374.1057 15.3019 369.1057 15.2599 364.1057 15.2949 359.1067 15.2979 357.4867 15.2989 355.8667 15.2979 353.9907 15.2979L353.9907 23.2989 364.9177 23.2989 376.0437 23.2989C377.3367 27.6099 376.4827 31.6639 376.6737 36.2139L354.0877 36.2139 354.0877 43.7799C361.5967 45.4359 369.2817 43.4689 377.3377 43.1999L377.3377 56.4169C374.1057 57.5039 347.9607 57.8569 339.8867 56.8129M423.9414 31.1185C428.6344 31.4775 432.8694 31.6705 435.4634 27.5895 437.3884 24.5625 437.2254 20.7975 434.8864 18.4475 432.1444 15.6915 428.2254 14.5475 423.9414 15.7515L423.9414 31.1185zM408.9984 57.2935L408.9984 3.6865C410.2884 3.5565 411.5544 3.3245 412.8234 3.3185 419.9744 3.2825 427.1424 3.6105 434.2724 3.2215 442.8944 2.7505 452.3774 12.1185 451.7524 20.5725 451.4014 25.2965 452.3434 30.0575 449.7354 34.6125 447.8784 37.8525 445.4274 39.9185 442.1684 41.2875 438.6304 42.7735 434.9764 43.5985 431.0864 43.3265 428.8164 43.1685 426.5254 43.2985 423.7204 43.2985 423.7204 46.9845 423.7894 50.1055 423.7034 53.2235 423.6074 56.7135 423.1384 57.1815 419.5894 57.2735 416.1444 57.3615 412.6954 57.2935 408.9984 57.2935L408.9984 57.2935zM502.2148 38.059C500.9278 34.916 499.7778 32.112 498.2668 28.421 496.7048 32.071 495.4848 34.924 494.1428 38.059L502.2148 38.059zM499.4918 0C509.2458 19.514 518.3378 37.705 527.6768 56.389 526.0388 56.788 525.0038 57.217 523.9548 57.258 521.2928 57.364 518.6228 57.301 515.9568 57.297 510.5118 57.288 510.5278 57.278 508.5468 52.188 508.1938 51.282 507.6428 50.452 507.0308 49.3 502.3858 49.3 497.7288 49.485 493.0958 49.233 490.1838 49.075 488.5198 50.419 488.0038 52.868 487.2008 56.674 484.8518 57.53 481.4508 57.327 478.9588 57.177 476.4468 57.391 473.9558 57.241 472.9118 57.178 471.8988 56.594 470.7048 56.192 471.0398 55.181 471.1738 54.538 471.4528 53.966 479.3668 37.739 487.2638 21.501 495.2718 5.319 496.0818 3.681 497.5738 2.379 499.4918 0L499.4918 0zM956.8184 15.14L956.8184 56.924 941.9474 56.924C941.4874 52.546 941.8004 47.936 941.7434 43.352 941.6864 38.855 941.7304 34.356 941.7304 29.858L941.7304 15.487 927.1154 15.487 927.1154 3.592 970.3594 3.592 970.3594 15.14 956.8184 15.14zM639.9219 15.3275L626.0339 15.3275 626.0339 4.0705C629.6489 3.1005 658.0189 2.7575 668.2619 3.5945L668.2619 15.1435 654.8499 15.1435 654.8499 57.0145 639.9219 57.0145 639.9219 15.3275z" transform="translate(0 485.895)"/>
  </g>
</svg>
