<svg xmlns="http://www.w3.org/2000/svg" viewBox="0 0 319 93">
  <title>
    Group 3
  </title>
  <g fill="none">
    <g transform="translate(234.8)">
      <path fill="#FFF" d="M46.5 13C46.2 14.5 46.1 18.3 48.3 17.8 51.2 17.2 50.8 16.9 52.4 15.5 53.5 14.6 56.1 17.1 52.4 21.2 50.4 23.4 50 24.1 51 25.4 52.1 26.7 55 27.2 55 31.4 55 35 59.6 32.4 60.8 31 61.9 29.6 62.7 23.3 65.8 27.9 68 31.2 64.2 38.1 68.8 38.8 72.5 39.4 73.2 43.6 73.3 44.7 73.3 44.9 73.3 45 73.3 45 82.9 35.8 76.5 23.9 76.3 22.4 75.9 19.8 77.3 20.8 79 22.3 72 9 58.1 0 42 0 39.2 0 36.5.3 33.9.8 42.2 1 48 4.3 46.5 13zM68.5 63.6C65.9 64.6 64.8 63 62.9 64.8 60.8 66.9 67.5 70.9 55.1 68.1 49.6 66.8 50.3 72.8 44.1 69.7 42.4 65.6 42.3 63.2 43.8 60.6 45.5 57.6 46.1 58.6 45.1 55.3 44.7 54 45.1 53.4 45.8 51.6 46.5 49.8 45.6 47.3 43.1 47.5 39.7 47.7 40.1 49.2 38.1 50.6 36.7 51.5 34.4 46.8 39.3 42.5 42 40.2 42.6 39.4 41.7 37.6 40.8 35.7 39.1 36.4 38.4 34.3 37.9 32.7 38.7 29.6 36.3 28.8 33.6 28 31.5 31.8 29.9 33.3 28.1 35 26.1 38.2 25.2 35.7 23.5 31.3 31.4 24.7 26.5 22.9 21.9 21.2 20.4 16.4 20.4 16.4 7.8 25.7 13.8 34 12.7 35.4 11.6 36.9 9.6 33.6 7.9 35.2 6.6 36.4 5.4 44 13.5 48.9 16.6 50.7 17.6 51.2 16.8 52.3 16.2 53.2 13.8 52.4 13.8 54.5 13.9 58.5 20.4 57.3 21.6 62.4 22.7 67.1 42.9 70 42.9 70 42.9 70 43 70 43.2 70.1L44.2 70.6C44.5 71.8 45.7 74.7 48.5 76.2 53.1 78.6 48.2 77.4 48.8 79.1 49.1 80 52.4 82.2 58.3 80.8 66.4 77.4 73.2 71.6 77.8 64.2 72.7 60.4 72.3 61.2 68.5 63.6z"/>
      <path fill="#49A942" d="M43.1,70.1 C42.9,70.1 42.8,70 42.8,70 C42.8,70 22.7,67.2 21.5,62.4 C20.3,57.3 13.8,58.5 13.7,54.5 C13.7,52.5 16.1,53.2 16.7,52.3 C17.4,51.2 16.4,50.7 13.4,48.9 C5.3,44.1 6.5,36.4 7.8,35.2 C9.5,33.7 11.5,36.9 12.6,35.4 C13.7,33.9 7.7,25.7 20.3,16.4 C20.3,16.4 21.8,21.2 26.4,22.9 C31.3,24.7 23.4,31.3 25.1,35.7 C26.1,38.2 28,35.1 29.8,33.3 C31.3,31.8 33.5,28 36.2,28.8 C38.6,29.5 37.7,32.6 38.3,34.3 C39,36.4 40.7,35.8 41.6,37.6 C42.5,39.4 41.9,40.1 39.2,42.5 C34.3,46.8 36.6,51.5 38,50.6 C40.1,49.2 39.7,47.7 43,47.5 C45.5,47.4 46.4,49.8 45.7,51.6 C45,53.4 44.6,54 45,55.3 C46,58.6 45.4,57.6 43.7,60.6 C42.2,63.2 42.3,65.6 44,69.7 C50.2,72.9 49.5,66.8 55,68.1 C67.4,70.9 60.7,66.9 62.8,64.8 C64.7,62.9 65.8,64.6 68.4,63.6 C72.2,61.2 72.6,60.4 77.6,64.3 C81.6,57.8 84,50.2 84,42 C84,34.9 82.2,28.2 79.1,22.3 C77.3,20.7 75.9,19.7 76.3,22.3 C76.5,23.7 82.9,35.7 73.3,44.9 C73.3,44.9 73.3,44.8 73.3,44.6 C73.2,43.5 72.5,39.2 68.8,38.7 C64.2,38 68,31 65.8,27.8 C62.7,23.2 61.9,29.5 60.8,30.9 C59.7,32.3 55,34.9 55,31.3 C55,27.2 52.1,26.7 51,25.3 C49.9,24 50.4,23.3 52.4,21.1 C56,17 53.4,14.5 52.4,15.4 C50.8,16.8 51.2,17.1 48.3,17.7 C46.1,18.2 46.2,14.4 46.5,12.9 C48,4.2 42.2,0.9 33.9,0.7 C14.6,4.5 -1.42108547e-14,21.5 -1.42108547e-14,41.9 C-1.42108547e-14,65.1 18.8,83.9 42,83.9 C47.7,83.9 53.2,82.7 58.2,80.7 C52.3,82.1 49,79.8 48.7,79 C48.1,77.3 53,78.5 48.4,76.1 C45.6,74.7 44.4,71.8 44.1,70.5 L43.1,70.1 Z"/>
      <path fill="#49A942" d="M45.5 71.4C45.5 71.4 17.9 60.7 16.9 33.5 16.9 33.5 19.6 54.2 45.5 71.4zM45.3.1C46.1.2 52 1 58.3 5 60.6 7.2 63.9 12.6 58.8 23.6 58.8 23.6 65.3 14.8 63.7 9.4 69.2 14.9 73.8 23.6 74 37.5 74 37.4 80.1 2.7 45.3.1zM72.9 68.8C70.8 70.1 67.4 73.1 61.8 71.3 61.8 71.3 64 73 67.5 72.9 63 75.2 58.1 75.8 50.4 73.8 50.4 73.8 66 83 76.9 65.4 76.9 65.4 74.2 68 72.9 68.8z"/>
    </g>
    <path fill="#000" d="M13.4 25.9C13.4 28.9 14 29.8 16.1 29.8L16.1 30.6 7.2 30.6 7.2 29.8C9 29.8 10.1 29.3 10.1 25.8L10.1 6.5 6.4 6.5C3 6.5 1.5 7.5 1.3 10.1L.5 10.1.5 4.3 1.2 4.3C1.6 4.6 2 4.8 2.6 5 3.2 5.2 4 5.3 5.1 5.3L18.3 5.3C20.5 5.3 21.5 5 22.3 4.4L23 4.4 23 10.2 22.5 10.2C22 8.1 21.2 6.6 17.2 6.6L13.4 6.6 13.4 25.9zM40.6 26.7C40.6 29.1 41 29.7 43.1 29.7L43.1 30.5 35 30.5 35 29.7C37.1 29.7 37.6 29.2 37.6 27.2L37.6 19.5C37.6 17.4 36.4 16.1 34.5 16.1 32.7 16.1 31.5 16.9 30 19L30 27.5C30 29.1 30.7 29.6 32.6 29.6L32.6 30.4 24.2 30.4 24.2 29.6C26.5 29.6 27 29.1 27 26.6L27 6.5C27 4.5 26.4 4.2 24.2 4.2L24.2 3.4 29.2 2.9 29.9 2.9 29.9 17.6C31.9 15.3 33.3 14.5 35.3 14.5 37.9 14.5 40.5 16.2 40.5 19.9L40.5 26.7 40.6 26.7zM47.9 21C47.8 28 52 29.7 54.1 29.7 56.3 29.7 57.4 29 59.6 26.4L59.6 27.5C57.7 29.9 55.9 30.8 53.2 30.8 48.3 30.8 44.8 27.4 44.8 22.7 44.8 18 48.2 14.3 52.6 14.3 56.2 14.3 59.5 17.2 59.3 20.8L47.9 20.8 47.9 21zM56.3 20.2C56.4 16.8 54.1 15.4 52.1 15.4 49.5 15.4 48 17.3 47.8 20.2L56.3 20.2zM99.7 39.9L98.5 39.9 70.4 5.2 70.3 5.2 70.3 33.2C70.3 37.2 71.9 38.7 75.5 38.7L75.5 39.9 63.4 39.9 63.4 38.7C66.7 38.7 68.3 37.7 68.3 31.9L68.3 8.6C68.3 4.1 67.1 1.6 62.4 1.2L62.4 0 72.6 0 97.6 31.1 97.7 31.1 97.7 7.7C97.7 2.5 96.3 1.1 92.8 1.1L92.8 0 104.9 0 104.9 1.2C101 1.2 99.7 2.8 99.7 7.5L99.7 39.9 99.7 39.9zM136.6 15.2L145.2 15.2 145.2 17 136.6 17 136.6 32.9C136.6 36.3 138.3 38.1 141.1 38.1 142.9 38.1 144.2 37.4 145.7 35.7L146.5 36.6C144.3 39.3 141.8 40.7 139 40.7 134.8 40.7 131.9 37.8 131.9 33.5L131.9 17 127.2 17 127.2 15.8C130.5 14.1 133.3 11.1 135.4 6.9L136.6 6.9 136.6 15.2zM173.3 35.3C173.3 38 174.2 38.8 177.5 38.8L177.5 40 168.5 40.5 168.5 36 168.4 36C166 39.2 163.1 40.8 159.8 40.8 154.9 40.8 151.7 37.1 151.7 32.5L151.7 19.8C151.7 17.4 150.9 16.5 147.3 16.5L147.3 15.3 155.2 14.5 156.4 14.5 156.4 32.2C156.4 35.7 158.6 37.8 162 37.8 164.4 37.8 166.5 36.5 168.6 33.8L168.6 20.4C168.6 17 168 16.6 163.8 16.5L163.8 15.3 172.2 14.5 173.4 14.5 173.4 35.3 173.3 35.3zM188.6 35.3C188.6 38 189.4 38.8 192.7 38.8L192.7 40 179.7 40 179.7 38.8C183.5 38.8 183.9 37.8 183.9 34.1L183.9 20.5C183.9 16.9 183 16.5 178.8 16.5L178.8 15.3 187.4 14.5 188.6 14.5 188.6 19.9C193.2 15.9 195.4 14.5 197 14.5 198.4 14.5 200.3 15.3 201.5 16.5L199.6 20.9C197.6 19.8 195.4 18.7 193.7 18.7 192.1 18.7 190.7 19.5 188.5 21.7L188.5 35.3 188.6 35.3zM206.9 24.9C206.8 36 213.4 38.8 216.7 38.8 220.1 38.8 221.9 37.6 225.4 33.6L225.4 35.4C222.4 39.2 219.5 40.7 215.2 40.7 207.5 40.7 201.9 35.3 201.9 27.9 201.9 20.4 207.3 14.6 214.3 14.6 220 14.6 225.3 19.2 225 24.9L206.9 24.9 206.9 24.9zM220.3 23.7C220.5 18.3 216.8 16 213.7 16 209.6 16 207.1 19.1 206.9 23.7L220.3 23.7zM25.4 49.7C23.9 44.1 20.9 41.6 15.7 41.6 8.5 41.6 4.6 47.4 4.6 55.1 4.6 64.1 9.2 70 16 70 20.7 70 24.2 67.8 26.4 63.4L27.2 64.1C25.2 68.8 20.5 71.8 14.7 71.8 7.5 71.8 0 66.9 0 57 0 47.5 6.5 40.5 15.4 40.5 19.2 40.5 22 41.8 23.7 41.8 24.5 41.8 25 41.5 25.3 40.9L26.1 40.9 26.1 49.8 25.4 49.8 25.4 49.7zM39.2 71.7C33.4 71.7 29.1 67.5 29.1 61.9 29.1 56.3 33.4 52.1 39.2 52.1 45 52.1 49.3 56.3 49.3 61.9 49.3 67.5 45 71.7 39.2 71.7zM39.2 53.2C35.3 53.2 32.9 56.6 32.9 62 32.9 66.8 34.9 70.7 39.2 70.7 43.6 70.7 45.5 66.5 45.5 62 45.4 57.3 43.5 53.2 39.2 53.2zM70.7 67.1C70.7 69.5 71.2 70.2 73.8 70.2L73.8 71.1 64 71.1 64 70.2C66.5 70.2 67.2 69.6 67.2 67.9L67.2 58.2C67.2 55.2 65.1 54 63.1 54 61.3 54 59.7 55.1 57.8 57.6L57.8 66.6C57.8 69.4 58.2 70.1 60.9 70.1L60.9 71 51.1 71 51.1 70.2C53.6 70.2 54.2 70 54.2 66.7L54.2 56.3C54.2 54.1 53.6 53.6 51.1 53.6L51.1 52.7 56.8 52.1 57.7 52.1 57.7 55.8C59.9 53.3 62 52.1 64.4 52.1 67.5 52.1 70.7 54.3 70.7 58.7L70.7 67.1zM86 57.8C85.6 54.7 83.6 53.2 81.4 53.2 79.6 53.2 78.3 54.2 78.3 55.7 78.3 60.4 88 59.1 88 66 88 69.1 85.3 71.7 82.2 71.7 80.2 71.7 78.4 70.3 77.5 70.3 76.8 70.3 76.3 70.9 76.3 71.6L75.4 71.6 75.4 65.3 76.3 65.3C77.1 69.2 80 70.7 82.3 70.7 84.1 70.7 85.5 69.3 85.5 67.5 85.5 62.3 75.7 63.7 75.7 57.5 75.7 54.6 78.3 52.2 81.3 52.2 83.2 52.2 83.8 53.1 85.1 53.1 85.6 53.1 85.9 52.8 86.2 52.2L87.1 52.2 87.1 57.9 86 57.9 86 57.8zM93.7 59.8C93.6 68.1 98.6 70.2 101.1 70.2 103.7 70.2 105 69.3 107.6 66.3L107.6 67.7C105.4 70.6 103.2 71.7 100 71.7 94.2 71.7 90 67.7 90 62.1 90 56.5 94.1 52.1 99.3 52.1 103.6 52.1 107.5 55.5 107.3 59.8L93.7 59.8 93.7 59.8zM103.8 58.9C104 54.8 101.2 53.2 98.8 53.2 95.7 53.2 93.9 55.5 93.7 58.9L103.8 58.9zM116.5 67.6C116.5 69.6 117.1 70.2 119.6 70.2L119.6 71.1 109.8 71.1 109.8 70.2C112.6 70.2 112.9 69.5 112.9 66.7L112.9 56.6C112.9 53.9 112.2 53.6 109.1 53.6L109.1 52.7 115.6 52.1 116.5 52.1 116.5 56.1C119.9 53.1 121.6 52.1 122.8 52.1 123.8 52.1 125.3 52.7 126.2 53.6L124.8 56.9C123.3 56.1 121.7 55.3 120.4 55.3 119.2 55.3 118.2 55.9 116.5 57.5L116.5 67.6 116.5 67.6zM138.5 66.6L142.1 57.3C143 54.9 143 53.8 140.3 53.6L140.3 52.7 147.1 52.7 147.1 53.6C145 53.8 144.4 54.3 143.5 56.3L137.5 71.6 136.6 71.6 130.7 57.1C129.4 54.1 129 53.8 126.8 53.7L126.8 52.8 135.7 52.8 135.7 53.7C133.9 53.9 133.5 54.8 134.3 56.9L138.5 66.6zM183.9 67.1C183.9 69.5 184.4 70.2 187 70.2L187 71.1 177.1 71.1 177.1 70.2C179.6 70.2 180.3 69.6 180.3 67.9L180.3 58.2C180.3 55.2 178.2 54 176.2 54 174.4 54 172.8 55.1 170.9 57.6L170.9 66.6C170.9 69.4 171.3 70.1 174 70.1L174 71 164.2 71 164.2 70.2C166.7 70.2 167.3 70 167.3 66.7L167.3 56.3C167.3 54.1 166.7 53.6 164.2 53.6L164.2 52.7 169.9 52.1 170.8 52.1 170.8 55.8C173 53.3 175.1 52.1 177.5 52.1 180.6 52.1 183.8 54.3 183.8 58.7L183.8 67.1 183.9 67.1zM204.4 58.6L203.5 58.6C202.7 55.3 200.4 53.1 197.3 53.1 193.7 53.1 191.1 56.2 191.1 60.8 191.1 65.9 194.3 70.1 198 70.1 200.2 70.1 203 68.9 204.9 66.2L204.9 67.6C202.9 70.3 200.1 71.7 196.8 71.7 191.3 71.7 187.5 67.9 187.5 62.4 187.5 56.7 191.8 52.2 197 52.2 199.8 52.2 201.3 53.2 202.2 53.2 202.7 53.2 203.1 52.8 203.5 52.2L204.4 52.2 204.4 58.6 204.4 58.6zM217.7 66.8L220.9 57C221.6 54.8 221.5 53.6 219.4 53.5L219.4 52.6 225.9 52.6 225.9 53.5C223.9 53.5 222.7 54.8 221.7 57.8L214.3 79.6C212.8 83.9 210.4 86.3 208.2 86.3 207.4 86.3 206.8 86.1 205.9 85.5L207.1 82.3C207.8 82.6 208.2 82.7 208.9 82.7 211.1 82.7 212.5 81.4 213.6 78.2L216 71.5 209.4 56.2C208.5 54.1 207.8 53.5 205.6 53.4L205.6 52.5 214.5 52.5 214.5 53.4C213.1 53.6 212.5 54.7 213.2 56.2L217.7 66.8zM123.8 34.5L123.8 23.6C123.8 16.9 119 14.5 114.9 14.5 110.4 14.5 106.8 17.5 105.8 22.1L107.1 22.4C108.1 18.8 110.9 17.1 113.7 17.1 117.2 17.1 119.2 19.6 119.2 23.1L119.2 24.9C115.2 27.3 105.5 27 105.5 34 105.5 37.6 108.7 40.5 112.5 40.5 115.1 40.5 117 39.5 119.4 36.8L119.4 36.8 119.4 39.8 128.1 39.8 128.1 38.6C124.5 38.8 123.8 37.8 123.8 34.5zM119 34.9C118 37 115.4 38 113.9 38 111.9 38 110.1 36 110.1 33.5 110.1 28.5 114.3 28.6 119 26.5L119 34.9 119 34.9zM160.5 67.1L160.5 59C160.5 54 156.9 52.3 153.9 52.3 150.6 52.3 147.9 54.5 147.1 57.9L148 58.2C148.8 55.6 150.8 54.3 152.9 54.3 155.5 54.3 157 56.2 157 58.7L157 60C154 61.8 146.9 61.6 146.9 66.8 146.9 69.5 149.3 71.7 152.1 71.7 154 71.7 155.4 70.9 157.2 69L157.2 69 157.2 71.2 163.6 71.2 163.6 70.2C161 70.2 160.5 69.5 160.5 67.1zM157 67.3C156.3 68.8 154.3 69.6 153.2 69.6 151.7 69.6 150.4 68.1 150.4 66.2 150.4 62.5 153.5 62.5 157 61L157 67.3 157 67.3z" transform="translate(0 5.8)"/>
  </g>
</svg>
