<svg xmlns="http://www.w3.org/2000/svg" viewBox="0 0 467 396">
  <title>
    Shape
  </title>
  <path fill="#418FDE" d="M233.1,0 C206.6,0 181.6,6.3 159.4,17.5 L161.2,21 C182.6,10.2 206.4,4.3 231.1,4 L231.1,33.7 C211,34 191.9,38.9 175,47.3 L176.8,50.8 C193.5,42.5 212,38 231.1,37.7 L231.1,64.6 C216.1,64.9 202,68.5 189.3,74.7 L189.3,74.7 C179.8,79.3 171.2,85.4 163.7,92.6 L144.7,73.5 C154.3,64.2 165.2,56.6 176.9,50.8 L175.1,47.3 L175.1,47.3 C162.9,53.4 151.7,61.3 142,70.7 L120.9,49.6 C133,37.8 146.6,28.2 161.3,20.8 L159.5,17.3 C127.4,33.4 101.3,59.7 85.4,91.9 L85.4,91.9 C74.6,113.8 68.4,138.5 68.4,164.6 C68.4,180.6 70.7,196.2 75,211 L78.9,210 C74.8,196 72.6,181.4 72.4,166.5 L102,166.5 C102.2,178.9 104.1,191.1 107.6,202.7 L111.5,201.7 C108.1,190.4 106.2,178.6 106,166.4 L132.9,166.4 C133,170.4 133.3,174.3 133.8,178.1 C131.9,178.3 130.2,178.9 130.2,178.9 L129.4,181.6 C127.6,181.9 126.4,185 126.4,185 C124.9,185.5 123.7,187.4 124.2,187.9 C124.7,188.4 123.4,188.6 123.4,188.6 L123.4,192.3 L122.6,193.5 L122.8,197.5 C123.8,197.5 123.6,199.4 123.6,199.4 C121.9,199.6 122.3,201.8 122.3,201.8 L118.8,203 L118.1,204 L113.8,203.8 L112.6,205 L112.6,205 C112.2,203.9 111.9,202.8 111.5,201.7 L107.6,202.7 C107.7,203.1 107.8,203.5 108,203.9 L103.1,203.9 L102.8,203.1 L101.1,202.8 L100.9,200.9 L98.4,201.1 L97.9,202.1 L95.2,202.3 C95.4,204 92.5,206.5 92.2,205.8 C91.9,205.1 90,203.3 90.9,202.9 C91.7,202.6 93.9,202.2 93.9,202.2 L93.9,201 L87.7,200.8 L87,201.8 L84.5,202 L84.5,204.7 L83.3,205 C82.5,205.5 83.5,207.4 83.5,207.4 C84.7,208.6 83.3,210.4 83.3,210.4 C82.3,211.4 84.1,213.3 84.1,213.3 C85.4,213.6 83.3,214.6 83.3,214.6 C83.6,216.3 84.6,216.8 84.6,216.8 C83.6,218.5 85.3,219.3 85.3,219.3 L85.5,222.2 L86.7,222.9 L86.7,224.8 L87.4,226 L90.1,226 L90,222 C87.7,219.3 92,218.6 92.2,219.6 C92.4,220.6 94.2,221.1 94.2,221.1 C94.5,223.6 97.4,225.1 98.2,222.6 C99,220.1 99.7,221.6 100.2,222.8 C100.7,224 103.9,226.9 103.9,226.9 L106.4,226.9 L106.7,229.3 C109.5,229.1 110.4,229.5 111.5,233.3 C112.7,237.2 115.8,238.2 115.8,238.2 L118.1,238 C118.1,236 120.4,238.3 120.4,239.4 C120.4,240.4 124.9,244.3 124.9,244.3 L129.4,245.3 L130.2,246 C133,249.5 135.9,252.8 139,256.1 L118,277.1 C99.4,258 86.2,234.9 78.9,210 L75,211 C82.7,237.2 96.7,261.5 116.5,281.4 C129.9,294.8 145.3,305.7 162,313.6 L164,310.1 C148.2,302.6 133.7,292.5 120.8,279.9 L141.8,258.9 C152.7,269.5 165.2,278 178.6,284.1 L180.6,280.6 C167.4,274.6 155.3,266.4 144.6,256.1 L148.5,252.2 C148.7,252.6 148.9,253 148.9,253.6 C149.2,256.1 150.4,255.6 150.4,255.6 L159.9,255.4 L163.2,252.5 L171.7,252.3 C176,252.1 173.4,246.2 172.5,246.2 C172,245.8 171.9,245 172,244.1 C178.8,249.3 186.1,253.6 193.8,256.9 L195.8,253.4 C186.9,249.7 178.5,244.5 171,238.2 L166.5,234 L187.4,213.1 C194.2,219.5 202,224.3 210.5,227.3 L210.5,227.3 C212.8,228.1 215.2,228.8 217.6,229.4 C217.2,229.8 217,230.1 217.1,230.3 C217.4,231.1 215.8,232 215.8,232 L214.3,232.5 L213.3,234 L211.3,234.7 L211,238.2 L210,238.9 L210,240.4 L208.8,240.7 L208.8,241.5 L207.1,241.7 L208.1,244.2 L209.4,244.9 C211.7,245.2 210.7,248.1 210.7,248.1 L212,248.3 L212.7,250.2 L214,252.9 C214.5,254.9 216,254.4 216.7,254.3 C217.4,254.1 218,256.3 218,256.3 L224.6,256.5 C224.6,256.5 224.3,257.2 225.4,257.5 C226,257.7 228.6,257.9 230.9,257.9 L230.9,260.9 C218.6,260.7 206.8,258 195.8,253.4 L193.8,256.9 C205.4,261.8 217.9,264.7 230.9,264.9 L230.9,291.8 C213.2,291.5 196.1,287.6 180.4,280.5 L178.4,284 C194.7,291.4 212.5,295.5 230.9,295.8 L230.9,325.5 C207.3,325.2 184.5,319.9 163.8,310 L161.8,313.5 C183.7,324 207.9,329.5 232.9,329.5 C259.1,329.5 284.4,323.4 307.2,311.9 C322.6,304.1 336.9,293.8 349.5,281.3 C362.7,268.1 373.4,253 381.3,236.7 L381.3,236.7 C392,214.6 397.7,190.1 397.7,164.8 C397.7,143.3 393.6,122.4 385.7,103 C377.5,82.8 365.3,64.2 349.4,48.3 C333.4,32.3 314.8,20.1 294.4,11.9 L294.4,11.9 C275.3,4.1 254.5,0 233.1,0 L233.1,0 Z M235.1,4 C255.3,4.2 275,8.2 293.2,15.6 L293.2,15.6 C312.4,23.3 330.1,34.8 345.4,49.7 L327.6,67.5 C327,67.7 326.3,67.7 325.9,67.5 C324.7,67 326.4,65.8 326.4,65.8 L326.4,64.5 L325.4,63.5 C325.4,63.5 322.6,63.8 322.4,63.3 C322.2,62.8 321.7,60.6 321.7,60.6 L321.5,57.7 L320.3,57.2 L320.1,56.2 L318.3,56.4 L318.3,54.4 L317.3,54.1 L316.3,53.6 L316.1,51.6 L312.4,51.4 L311.2,49.7 L309.9,47.7 L305.7,47.4 L304.7,46.4 L303,46.1 L301.8,45.6 L301.3,46.4 L298.1,46.6 L297.9,47.6 C296.9,48.1 294.2,48.1 292.1,48.1 C288.8,46.4 285.7,44.7 282.3,43.3 L280.9,47 C283.7,48.1 286,49.5 288.7,50.9 C288.5,51.5 288.3,51.9 287.9,51.9 C287.1,51.9 287.4,54.1 287.4,54.1 C287.4,54.1 289.6,54.1 290.2,54.3 C290.9,54.5 290.9,56.2 290.9,56.2 C293.4,56 294.4,59.4 294.1,60.3 C293.8,61.1 295.1,61.1 295.1,61.1 C295.1,61.1 295.1,63.8 294.8,64.5 C294.5,65.2 297,65.7 297.6,66.7 C298.3,67.7 297.3,71.1 296.8,71.3 C296.3,71.5 298.1,72 298,72.8 C297.8,73.6 298.5,72.8 298.7,74.2 C298.9,75.5 299.2,78.4 299.2,78.4 L301.5,78.6 C301.8,76.4 306.1,76.3 306.8,76.6 C309.6,77.6 311.8,82 311.8,83 C311.8,84 310,84.2 310,84.2 L310.1,85.3 L304.3,91.1 C303.7,90.7 303.1,90.5 302.8,90.8 C302,91.3 302.3,87.3 302.3,87.3 C302.3,87.3 303.8,86.3 304.5,86.8 C305.2,87.3 298.9,78.4 297.5,79.2 C296.2,80 293.2,78.4 293.3,76.8 C293.5,75.3 287.3,70.2 287.3,70.2 C287.3,70.2 285.3,68.9 285,69.9 C284.7,70.9 284,71.6 285,72.1 C286,72.6 285.8,71.3 287,72.4 C288.2,73.6 290.3,75.1 289.5,76.1 C288.7,77.1 287.7,77.4 287.7,77.4 L288.9,78.8 L290.7,78.8 L291,81.7 C291,81.7 293,82.7 293.5,83.9 C293.8,84.7 293.9,85.2 293.8,85.7 C290.1,82.9 286.2,80.3 282.2,78 C282.2,77.7 282.3,77.4 282.2,77.1 C281.9,75.9 283.5,75.4 284.4,76.8 L286.1,76.6 L286.4,75.1 L284.1,73.2 L282.3,73.2 C282.3,73.2 282.1,74.5 281,74 C279.8,73.5 280.5,73.7 279.5,73.5 C278.6,73.3 278.8,75.2 279,76.1 C276.4,74.8 273.8,73.6 271.1,72.5 L271.1,72.5 C259.8,67.9 247.7,65.3 235.1,65.1 L235.1,49.8 C236.2,49.8 236.7,49.4 236.8,49 C237,48.3 237.1,48.2 238.1,48 C239.1,47.8 237.9,45.8 236.9,46 C236.2,46.1 235.5,45.9 235.1,45.4 L235.1,37.7 C251.1,37.9 266.5,41.1 280.9,47 L282.3,43.3 C267.5,37.3 251.5,34 235,33.8 L235.1,4 L235.1,4 Z M262.9,11.1 L261.3,12.1 L260.2,11.4 L259.7,12.3 L261,13.1 L261.3,13.3 L261.6,13.1 L263.4,11.9 L262.9,11.1 L262.9,11.1 Z M270.5,15.1 L269.2,16.2 L268.4,15.3 L267.7,16 L268.9,17.2 L269.2,17.5 L269.5,17.2 L271.2,15.9 L270.5,15.1 L270.5,15.1 Z M110.2,16 C93.7,22.4 75.9,29 65.2,46 C58.9,55.9 58,67.7 53.1,77.9 C62.3,69.3 72.9,62.9 80.7,52.7 C90,40.4 98.1,26.6 110.2,16 L110.2,16 Z M355.9,16 C368,26.7 376.2,40.4 385.5,52.7 C393.3,63 403.9,69.3 413.1,77.9 C408.2,67.6 407.2,55.9 401,46 C390.2,29 372.5,22.4 355.9,16 L355.9,16 Z M258.5,18.1 C257.8,18.2 257.1,18.5 257,18.8 C256.8,19.5 255.8,19.6 255.8,19.6 L252,19.9 C251.7,20.9 249.7,21.6 249.5,20.9 L249.5,20.9 C249.1,19.4 247,22.8 249.2,23.4 C251.4,24.1 253.5,23.4 253.5,23.4 L254,22.4 L262.3,22.6 C263,21.9 263.3,20.9 263.3,20.9 C263.3,20.9 265.3,20.2 266.1,20.6 C266.9,20.9 266.3,18.2 265.4,18.6 C264.6,18.9 262.9,18.8 262.9,18.8 L259.9,18.8 C259.9,18.2 259.2,18 258.5,18.1 L258.5,18.1 Z M244.2,21.5 L242,22.3 L239.7,23.8 L237.2,24.1 L235.9,25.6 L241.2,26.1 L242.2,27.8 L246,28.1 L248.5,30.6 C250.7,31.3 251.2,30.3 249.8,29.1 L249.8,29.1 L247.6,26.9 L247.6,25 L246.9,24.3 L246.2,21.9 L244.2,21.5 L244.2,21.5 Z M65.6,38.5 C57.2,40.7 50.1,46.1 43.8,53.1 C30.6,67.8 31.7,89.4 33.5,108.7 C34,114.7 33.7,119.7 33.1,125.8 C37.1,117.6 43.6,109.8 51.4,104 C68.6,91 87.4,74.2 87.7,52.2 C82,68.1 64.7,74.7 53.2,85.5 C47.1,91.2 42.4,98.1 39.7,105.3 L39.3,105 C40.7,98.6 43.4,92.9 45.3,86.7 C50.1,69.8 49.2,49.7 65.6,38.5 L65.6,38.5 Z M400.6,38.5 C416.9,49.7 416,69.8 421,86.7 C422.8,92.8 425.5,98.6 427,105 L426.6,105.3 C423.9,98.1 419.2,91.2 413.1,85.5 C401.6,74.6 384.3,68.1 378.6,52.2 C378.9,74.3 397.7,91.1 414.9,104 C422.6,109.8 429.2,117.6 433.2,125.8 C432.5,119.7 432.2,114.6 432.8,108.7 C434.6,89.4 435.7,67.8 422.5,53.1 C416.1,46.1 409,40.6 400.6,38.5 L400.6,38.5 Z M310.3,41.8 C309,41.8 307,42.7 307.2,43.7 C307.4,44.5 308,45.4 309.4,45.7 L311.9,46.5 C311.9,46.5 315,50.2 314.9,48.4 C314.6,43.3 312.2,43.2 311.4,42.2 C311.2,42 310.8,41.8 310.3,41.8 L310.3,41.8 Z M258.2,43.9 L257.5,45.4 L258.4,45.8 L259.1,44.3 L258.2,43.9 L258.2,43.9 Z M261.3,45.5 C261.2,45.4 260.3,46.7 259.6,47.1 C260.4,47.5 261.5,48.1 261.5,48.1 C262.8,48.1 263.7,49.1 263.7,49.6 C263.7,50.1 265.5,49.9 265.5,49.9 L265.7,48.7 L264.4,47 L263.2,46.2 C263.2,46.3 261.3,46.1 261.3,45.5 L261.3,45.5 L261.3,45.5 Z M259.6,47.1 C258.8,46.7 258.3,46.5 259.2,47.1 C259.3,47.2 259.5,47.2 259.6,47.1 Z M254.1,46.6 L254,47.6 L255.4,47.7 L256.4,49.3 L257.2,48.8 L256,46.9 L255.9,46.7 L255.7,46.7 C255.7,46.8 254.1,46.6 254.1,46.6 Z M215.7,50.8 C214.8,50.8 214,51 214,51.3 C214.2,52.1 215.5,53.2 215.5,53.2 C215.5,53.2 218,53.4 218.2,53.9 C218.4,54.4 220,54.6 220.2,54.1 C220.4,53.6 221,52.6 219.5,52.6 C218,52.6 218.3,51.8 217.8,51.2 C217.5,50.9 216.6,50.8 215.7,50.8 L215.7,50.8 Z M348.2,52.5 C363.1,67.7 374.5,85.4 382.3,104.6 L382.3,104.6 C389.7,122.9 393.7,142.6 393.9,162.8 L364.2,162.8 C364,146.6 360.8,130.9 355,116.3 C354.2,114.2 353.3,112.1 352.3,110 C352.6,109.1 353.1,108.2 354.2,108.5 C355.9,109 354.7,104.8 354.7,104.8 C354.7,104.8 352.4,103.1 352.5,102.3 C352.7,101.5 350.2,99.8 350.3,99.1 C350.5,98.4 348.1,97.1 348.3,96.4 C348.5,95.7 347.1,93.9 347.1,93.9 L344.6,91.5 L344.3,90 L342.3,89.8 L338.3,84.9 L338.5,83.5 L337.3,83.3 L337.3,81.4 L336.1,80.7 L334.3,80.5 L330.6,76.5 L330.3,74.6 L328.5,74.6 L328.8,71.7 L348.2,52.5 L348.2,52.5 Z M257.9,52.5 L257.9,54 L259.7,54.2 L259.2,52.8 L257.9,52.5 L257.9,52.5 Z M118,52.5 L139,73.6 C129.2,83.7 121,95.3 114.9,108.2 C106.9,124.8 102.3,143.3 102,162.9 L72.3,162.9 C72.6,138.6 78.3,115.2 88.7,94 L88.7,94 C96.1,78.9 105.9,64.9 118,52.5 L118,52.5 Z M266,60.4 C265.8,60.4 265.7,60.5 265.7,60.6 C265.7,61.1 266.4,61.1 266.7,62.1 C267,63.1 266.9,64.8 268.4,65.1 C269.9,65.4 270.2,65.8 270.4,66.4 C270.6,67.1 272.4,67.2 272.4,67.2 L273.7,67.9 L277.7,71.3 L277.7,70 C277.7,70 277.5,68.7 276.7,68.7 C275.9,68.7 274.4,67.7 274.7,67 C275,66.3 271.9,65.7 271.9,65.7 C271.9,65.7 269.1,63 270.1,63.3 C271.1,63.6 270.6,62.1 270.6,62.1 C270.6,62.1 268.6,62.4 268.1,62.3 C267.6,62.1 267.8,60.6 267.8,60.6 C267.8,60.6 266.5,60.3 266,60.4 L266,60.4 Z M174.6,61.6 L173.9,62.3 L174.9,63.3 L175.6,62.6 L174.6,61.6 L174.6,61.6 Z M30.7,68.6 C30.3,68.5 30,68.9 29.7,69 C18.3,83.6 10.7,99.5 10.7,119 C10.7,143.1 24.6,160 26.3,182.6 C29.9,159 49.7,142.2 60,121.3 C64,113.2 66.5,104 67.6,95.1 C66.1,98.9 63.8,102.4 60.6,105.4 C47.2,118.1 31.5,130.5 28.5,148.5 C28.1,151.1 27.8,153.7 27.1,156.2 C26.5,156.5 26.5,155.8 26.3,155.6 L28,133.4 C29.6,111.8 18.1,87.7 30.7,68.6 L30.7,68.6 Z M435.5,68.6 C448.1,87.7 436.6,111.8 438.2,133.5 L439.9,155.7 C439.7,155.9 439.7,156.5 439.1,156.3 C438.4,153.8 438.1,151.2 437.7,148.6 C434.7,130.7 418.9,118.2 405.6,105.5 C402.4,102.5 400.1,99 398.6,95.2 C399.7,104.1 402.2,113.3 406.2,121.4 C416.5,142.2 436.3,159 439.9,182.7 C441.6,160 455.5,143.2 455.5,119.1 C455.5,99.6 447.9,83.6 436.5,69.1 C436.1,68.8 435.9,68.5 435.5,68.6 L435.5,68.6 Z M231.1,68.6 L231.1,98.3 C221.8,98.6 212.9,100.8 204.9,104.5 L206.7,108 L206.7,108 C214.3,104.5 222.5,102.5 231.1,102.2 L231.1,129.2 C227.6,129.4 224.2,130.1 221,131.3 L221,131.3 L220.8,129.4 L221.6,128.9 L220.3,128.4 L219.3,129.7 L219,131.2 L217.3,131.5 L217.3,132.3 L216.1,132.3 L216.1,133.3 C213.7,134.6 211.4,136.2 209.3,138.1 L190.2,119 C195.1,114.4 200.7,110.6 206.7,107.8 L204.9,104.3 C198.5,107.3 192.6,111.3 187.5,116.2 L166.5,95.2 C173.9,88.1 182.2,82.4 191.2,78 C203.4,72.2 217,68.8 231.1,68.6 L231.1,68.6 Z M235.1,68.6 C247.1,68.8 258.8,71.3 269.6,75.7 C272.6,76.9 275.5,78.3 278.3,79.8 C278.4,79.9 278.6,80 278.8,80.1 C283.5,82.6 288,85.6 292.2,88.9 L292.2,88.9 C292.4,90.1 293.7,90.6 293.7,90.6 L294.5,90.7 C295,91.1 295.6,91.6 296.1,92 L296.1,93.4 C297.3,93.1 299.1,94.5 299.4,95.6 L278.7,116.3 C272.8,110.7 266,106.4 258.7,103.3 C251.3,100.2 243.3,98.5 235,98.2 L235.1,68.6 L235.1,68.6 Z M141.8,76.3 L160.9,95.4 C153.2,103.4 146.9,112.7 142.1,122.8 L142.1,122.8 C136.5,135 133.2,148.5 132.9,162.8 L106,162.8 C106.3,144.2 110.5,126.3 118.4,110 C124.2,97.7 132.1,86.3 141.8,76.3 L141.8,76.3 Z M311.6,89.1 C313.9,90.5 315.7,93.6 315.4,94.2 C315.1,94.9 317.4,94.7 317.4,94.7 C317.7,91.7 320.6,92.7 320.7,93.7 C320.9,94.7 321.4,96.9 321.4,96.9 L322.2,98.4 L323.4,99.6 L325.2,99.4 L325.7,100.4 L327.9,100.7 C327.9,100.7 329.7,102.7 329.9,103.2 C330.1,103.7 332.6,103.5 333.2,103.7 C333.9,103.9 334.9,104.4 335,105.2 C335.2,106 336.2,107.4 336.2,107.4 C336.2,107.4 338.2,107.9 338.4,108.6 C338.6,109.3 339.4,110.8 339.4,110.8 L341.1,112.2 L341.3,113.7 L343.1,113.9 L343.6,115.9 L346.6,115.7 L348.3,114.5 C348.8,114.2 349.3,113.9 349.7,113.6 C350.3,115 350.9,116.4 351.4,117.8 C357,131.9 360.1,147.1 360.3,162.7 L333.4,162.7 C333.3,157.9 332.9,153.2 332.1,148.6 C332.3,147.9 332.4,147.3 332.1,147.1 C331.6,146.6 332.6,144.2 332.6,144.2 C332.6,144.2 333.3,142.8 332.6,141.5 C331.9,140.1 332.8,138.6 333.3,138 L332,137.3 L330.7,137.1 L329.7,137.3 C329.4,136.2 329.1,135.2 328.7,134.1 L328.7,134.1 L329.5,134.3 L329.5,133.3 L328.3,133 C328.1,132.3 327.8,131.6 327.6,130.9 L327.4,127.4 L326.2,126.6 L326.5,125.3 L325.2,124.8 L325.9,122.6 L324.7,120.2 L323,120.2 C322.2,118.6 321.4,117 320.5,115.5 C320.7,115.4 320.9,115.3 321.2,115.2 C322.1,115 322.4,114.9 322.5,114.9 L322.3,113.1 L320.8,112.1 L320.3,110.1 C320.3,110.1 318.5,110.4 318.6,111.4 C318.6,111.6 318.5,111.8 318.3,111.9 C317.1,110 315.9,108.2 314.6,106.4 C314.6,106.3 314.7,106.2 314.7,106.1 C315.4,104.9 315,104.2 313.9,103.9 C312.7,103.6 312.7,103.6 312.4,102.2 C312.1,100.9 310.7,100.5 310.7,100.5 L310.2,98.5 L309,99.3 C308.3,98.5 307.7,97.8 307,97 L307.6,95.1 C306.9,95 306.6,94.6 306.4,94.2 L311.6,89.1 L311.6,89.1 Z M204.8,93.1 L204.2,93.9 L205.2,94.7 L205.8,93.9 L204.8,93.1 Z M201,93.8 L201.2,95.7 L203.7,95.7 C204.7,95.7 202.9,94.5 202.9,94.5 C202.9,94.5 200.8,94.7 201,93.8 L201,93.8 Z M311.5,94.1 L310.5,94.2 L310.7,95.7 L311.7,95.6 L311.5,94.1 L311.5,94.1 Z M163.6,98.2 L184.6,119.2 C180.2,123.8 176.5,129.1 173.6,134.8 C172.9,134.8 172.2,134.9 172,135.5 C171.5,136.8 169.3,136.5 169.3,136.5 L169,137.2 L167.3,137.5 L167,138.5 L165,138.8 L170,138.6 C171.3,138.4 169.5,141.5 168.7,141.3 L166.4,141.5 L165.6,142.3 L163.4,142.3 L162.4,143.7 L159.2,143.5 C159.2,143.5 157.4,145 157.5,145.5 C157.7,146 157.2,147.5 156.7,147.5 C156.2,147.5 155.2,149 155.5,149.5 C155.8,150 154.5,151.7 154.5,151.7 L154.2,153.4 L153.2,153.7 L153.2,158.3 L151.2,159.6 L151.2,161.6 L150.3,162.6 L136.8,162.6 C137.1,149.2 140.1,136.3 145.5,124.5 C150,115 156.1,106 163.6,98.2 L163.6,98.2 Z M302.2,98.5 C302.9,99.2 302.8,99.4 303.8,100.1 C304.1,100.3 304.4,100.5 304.7,100.5 C305.2,101.1 305.8,101.7 306.3,102.3 L305.9,102.8 C305.9,104.7 306.8,104.2 307.7,104 C308,104.3 308.2,104.7 308.5,105 C308.6,106.1 308.6,107.7 310.4,107.5 C310.4,107.5 310.4,107.5 310.5,107.5 C312.6,110.4 314.6,113.4 316.4,116.4 L316.5,116.6 L316.5,116.6 C316.8,117.1 317.1,117.6 317.3,118.1 C316.9,118.4 316.7,118.8 316.7,118.8 L314,119.1 L314,121.8 L312.7,122.3 L312.9,124 L314.7,123.8 C314.7,123.8 314.7,125.8 315.2,125 C315.7,124.2 319.9,125.2 319.5,127.2 C319.4,128 323.7,130.2 323.2,132.9 C323.5,133 323.8,133.1 324,133.2 C324.8,135.5 325.5,137.9 326.1,140.2 L325.8,140.8 C325.8,140.8 326.1,141 326.4,141.3 C326.9,143.4 327.4,145.5 327.7,147.6 C327.6,149.4 327.2,151.2 326.2,151.7 C324.2,152.9 326.4,152.2 326.4,152.2 L326.1,155.9 C326.6,157.6 327.4,156.7 327.9,155.9 C328.2,155.5 328.4,155.2 328.7,154.9 C329,157.4 329.1,160 329.2,162.6 L309.1,162.6 C309.2,162.5 309.4,162.1 309.4,162.1 L310.2,159.7 L313,158.9 L313.3,156.7 L311.8,156.5 C311.8,156.5 313.5,153.5 314.3,153.5 C315.1,153.5 320.6,153.5 321.1,153.2 C321.6,152.9 322.6,150.2 322.6,149.7 C322.6,149.2 323.9,149 324.4,148.9 C324.9,148.7 326.1,147.4 326.4,146.7 C326.7,146 325.6,141.8 324.9,142.5 C324.2,143.2 322.7,143.5 322.7,143.5 L322.2,145.4 L321.4,146.1 C321.4,146.1 321.6,146.6 321.4,147.8 C321.2,149 319.7,149.7 319.7,149.7 L319,150.5 C319,150.5 315,150.7 314.5,150.5 C313,149.8 314,147.8 315,148 C316,148.2 314.8,145.1 314.8,145.1 L316.1,144.9 C316.1,144.9 316.3,141.9 316.8,141.9 C317.3,141.9 316.6,140.9 316,140.4 C315.3,139.9 314.5,138.2 313.8,138.4 C313.1,138.6 310.5,138.4 310.5,138.4 L310,139.4 L308.2,139.7 C308.2,139.7 308.4,141 308,141.4 C307,142.6 303.2,145.1 304.8,140.9 L305.3,139.9 L305.3,138.4 L302.3,138.2 C302.3,138.2 300.8,137.7 300.8,137 C300.8,136.3 300.6,135.5 300.6,135.5 L297.1,131.6 L292.9,131.1 L292.6,130.3 L290.1,130 C289.7,129.8 289.4,129.7 289,129.6 C287.8,127.7 286.6,125.9 285.2,124.2 C285.2,124.1 285.1,123.9 285.1,123.8 C285,123.2 283.1,120.6 282.1,120.5 C281.7,120.1 281.4,119.7 281,119.3 L302.2,98.5 L302.2,98.5 Z M318.5,100.6 C318.3,100.6 318.1,100.8 318.1,101.1 C318.1,101.8 318.9,102.1 318.6,103 C318.3,103.8 318.9,104.5 319.6,104.5 C320.3,104.5 320.8,104.8 321.4,105.2 C322.1,105.5 322.6,106 323.1,106.7 L324.8,106.2 C324.8,106.2 325,104.5 324.3,105 C323.6,105.5 323.1,103.8 322.5,104 C321.8,104.2 321.5,103.3 320.8,102.5 C320.1,101.7 320.3,101.5 319.5,101 C319.1,100.7 318.8,100.5 318.5,100.6 L318.5,100.6 Z M235.1,102.3 C242.8,102.5 250.3,104.2 257.3,107.1 C264.1,110 270.4,114 275.9,119.2 L274.8,120.3 C274.3,119.8 272.5,119.4 272.5,118.8 C272.5,118.1 270.8,117.3 271,118.3 C271.2,119.3 269.8,119.8 269.5,119.5 C269.2,119.2 268.2,120.5 268.2,120.5 C268.2,121 267.9,121.7 268.9,121.9 C269.9,122.1 271.7,121.2 271.9,122.2 C272,122.5 272,122.8 272.1,123.1 L265.5,129.7 C264.6,129.7 263.8,129.6 263.8,129.6 C263.3,131.1 261,129.4 261.6,128.4 C262.3,127.4 262.3,126.7 262.3,126.7 L261.5,126.5 L260.5,128.4 C258.2,128.4 257.5,129.7 258,130.6 C258.5,131.4 257.3,130.4 257,131.6 C256.7,132.8 257.2,132.8 258.2,133.3 C259.2,133.8 257.7,133.8 258.4,134.6 C258.8,135.1 259.8,135 260.1,135.1 L258.8,136.4 C257.7,136.8 256.3,136.5 256.3,136.5 C256.3,136.8 256.1,137.1 255.8,137.2 C253.1,135 250.2,133.2 247,131.9 C247.5,131.5 248.4,131.5 248.8,130.4 C249.5,128.5 249.8,125.5 249.8,125.5 C249.8,125.5 247.1,125.3 247,126.2 C246.8,127 245.2,127.5 245.2,127.5 C245.2,127.5 243.9,128 244.4,128.7 C244.9,129.4 243.4,129.7 243.4,129.7 C243.4,129.7 243.5,130.2 243.5,130.6 C240.9,129.8 238.1,129.3 235.3,129.2 L235.1,102.3 L235.1,102.3 Z M323.5,108 L321.5,108.2 C322,108.9 323,109.4 323,110.1 C323,110.8 322.7,111.3 323.7,111.4 C324.7,111.6 325.4,111.2 325.7,112.1 C326,112.9 326,114.3 325.9,115 C325.7,115.7 326.1,116.7 326.9,116.7 C327.7,116.7 327.9,116.9 327.9,117.4 C327.9,117.9 328.9,115.5 328.9,115.5 C328.1,114.8 327.4,113.3 327.4,113.3 C327.4,113.3 326.6,110.9 326.6,110.6 C326.6,110.3 325.4,109.9 324.9,109.8 C324.3,109.5 323.5,108 323.5,108 L323.5,108 Z M307.7,108.7 L306,108.9 L306.1,109.9 L307.8,109.7 L307.7,108.7 L307.7,108.7 Z M308.7,109.9 L308.7,110.7 L309.7,110.7 L309.7,109.9 L308.7,109.9 Z M307.4,111.5 C307.4,111.5 306.4,112.8 304.4,112.2 C304.4,112.2 304.1,115.4 303.1,116.1 L300.8,116.1 C300.8,116.1 301.3,116.9 301.8,117.5 C302.3,118 303.5,119 302.3,119.7 C301.1,120.4 302.5,120.2 302.5,120.2 C302.5,120.2 302.3,123.7 300.8,123.2 C299.3,122.7 298.8,125.1 298.8,125.7 C298.8,126.4 304.7,126.6 303.8,125.7 C303.3,125.2 304.5,124 304.5,124 C304.5,124 308.5,124.3 309.3,124.3 C310.1,124.3 310.8,124.1 310.3,123.3 C309.8,122.5 308.3,122.6 308.3,122.6 C308.3,122.6 306.3,123.1 304.5,122.1 C302.7,121.1 304.8,120.8 305.2,120.8 C305.5,120.8 307,119.6 306.4,118.8 C305.7,118 306.4,116.4 306.4,117.1 C306.4,117.8 308.2,118.1 308.6,117.6 C308.9,117.1 308.6,115.6 307.8,115.1 C307,114.6 309.3,114.3 308.6,113.4 C307.7,112.6 307.4,111.5 307.4,111.5 L307.4,111.5 Z M310.7,116.6 L310.7,117.8 L311.7,117.8 L311.7,116.6 L310.7,116.6 Z M312.9,117.2 L312.4,118.2 L313.3,118.7 L313.8,117.7 L312.9,117.2 L312.9,117.2 Z M329.1,118.6 C328.7,118.7 329.4,120.6 329,120.9 C328.5,121.2 328.2,121.9 327.7,122.4 C327.2,122.9 328.7,123.6 328.7,124.1 C328.7,124.6 329,127.1 329,127.1 C329,127.1 330.2,127.6 330.3,128.3 C330.5,129 330.3,130.3 330.8,130.5 C331.3,130.7 332.3,131.3 332,132 C331.7,132.7 331.7,134 331.7,134 L332.4,135.5 L333.7,136.3 C333.7,136.3 334.2,132.3 333.4,132.1 C332.6,131.9 332.9,129.6 332.9,129.6 C332.9,129.6 333.7,126.4 332.4,126.4 C331.1,126.4 332.1,124.7 331.2,124.2 C330.4,123.7 330.9,121.3 330.5,120.7 C330.2,120 330.2,119.2 329.3,118.7 C329.2,118.6 329.1,118.5 329.1,118.6 L329.1,118.6 Z M288.7,121.8 L287,122 L287.1,123 L288.8,122.8 L288.7,121.8 L288.7,121.8 Z M263.5,121.9 C263,121.9 262.5,122 262.5,122 L259.8,122.3 L259.6,123.5 L261.4,123.7 C261.4,123.7 262.2,124.4 262.2,124.9 C262.2,125.4 263.4,125.9 264,125.9 C264.7,125.9 266.5,124.6 266.5,124.6 C266.5,124.6 267.3,122.2 266.7,122.4 C266,122.6 264.7,123.6 264.5,122.6 C264.6,122 264,121.9 263.5,121.9 L263.5,121.9 Z M187.4,122 L203.7,138.3 L202.1,138.2 C201.4,139.7 199.8,138 199.8,138 C199.5,137 197.1,138 197.1,138 C197.1,139.9 193.9,137.2 193.9,137.2 L188.1,133 C184.8,130 179.8,133.8 179.6,134.7 C179.7,136 178.6,136 177.5,135.8 C180.2,130.8 183.5,126.2 187.4,122 L187.4,122 Z M252.9,122.4 L251.9,122.6 L252.2,124.1 L253.2,123.9 L252.9,122.4 L252.9,122.4 Z M258.3,122.7 L254.6,122.9 L254.6,123.9 L258.3,123.7 L258.3,122.7 Z M227.1,123 L227.1,124 L228.4,124 L228.4,123 L227.1,123 Z M235.6,123.2 L235.5,124.2 L236.7,124.4 L236.8,123.4 L235.6,123.2 L235.6,123.2 Z M237.8,123.7 L237.7,124.7 L238.9,124.9 L239,123.9 L237.8,123.7 L237.8,123.7 Z M224.3,124 L224.2,125 L225.4,125.2 L225.5,124.2 L224.3,124 Z M251.7,124.1 L251.2,124.3 L251.5,125.3 L252,125.1 L251.7,124.1 Z M292,124.5 L291.5,125.7 L292.4,126.1 L292.9,124.9 L292,124.5 Z M279.6,124.7 C279.6,124.7 280.6,124.9 281.4,125.1 C282.2,126.1 283,127.1 283.7,128.1 L281.6,127.8 L280.3,127.6 L277.8,127.4 C275.3,129.1 274.8,131.1 274.8,131.1 C273.7,133.3 271.2,131 271.2,129.4 L275.6,125 C275.9,125 276.1,125 276.4,125 C277.4,125 279.6,124.7 279.6,124.7 L279.6,124.7 Z M240,125 L240,126 L241.3,126 L241.3,125 C241.4,125 240,125 240,125 Z M223.2,125.2 L223,126.2 L224.3,126.5 L224.5,125.5 C224.6,125.6 223.2,125.2 223.2,125.2 Z M222.8,126.6 L221.8,126.8 L222,127.8 L223,127.6 L222.8,126.6 Z M242.5,126.6 L241.5,126.6 L241.5,127.8 L242.5,127.8 L242.5,126.6 L242.5,126.6 Z M294.8,127.1 C294.2,127.1 293.4,127.2 293,127.3 C292.2,127.5 292.3,128.1 293,129 L295,128.7 C295,128.7 296.5,128 296.2,127.5 C296.1,127.1 295.5,127.1 294.8,127.1 L294.8,127.1 Z M283.7,128.1 C284.3,129 284.9,129.9 285.5,130.7 C285.3,131.1 285.2,131.7 285.4,132.3 C285.9,134.8 286.7,135.8 285.1,135.8 C283.4,135.8 283.1,134.5 283.1,134.5 C283.1,134.5 281.8,134 281.8,134.7 C281.8,135.4 281.3,136.7 281.8,137.4 C282.3,138.1 281.1,139.1 280.6,138.6 C280.1,138.1 278.8,136.6 279.1,136.1 C279.4,135.6 276.8,132.4 279.4,131.9 C282.1,131.4 279.2,129.9 280.2,129.5 L281.5,128.8 L282.8,128.8 L283.7,128.1 L283.7,128.1 Z M6.3,128.7 C3.6,134.3 2.6,140.6 1.2,146.7 C-1.8,162.5 1.2,179.2 5.5,193.8 C10.9,212 28.6,224.9 37.7,241.6 L38.9,242.6 C37.6,233.6 36.9,223.8 39.5,215.2 C43.4,201.4 48.3,188 50.8,173.7 C52.8,162.6 55.1,150.1 53.8,139.4 C52.3,145.2 50.8,150.9 47.6,155.9 C35.5,174.6 23.1,196.6 31.6,220.4 C31.4,220.7 31.1,221 30.8,220.8 C27.4,212.9 26.6,204 24.4,195.6 C18.5,173.2 1.3,154.5 6.3,128.7 L6.3,128.7 Z M459.9,128.7 C464.9,154.5 447.8,173.2 441.9,195.5 C439.7,203.9 438.9,212.9 435.5,220.7 C435.2,220.9 434.9,220.5 434.7,220.3 C443.2,196.5 430.8,174.6 418.7,155.8 C415.5,150.9 414,145.1 412.5,139.3 C411.2,150.1 413.5,162.5 415.5,173.6 C418.1,187.9 422.9,201.3 426.8,215.1 C429.4,223.7 428.7,233.4 427.4,242.5 L428.6,241.5 C437.6,224.9 455.4,211.9 460.8,193.7 C465.1,179.2 468.1,162.4 465.1,146.6 C463.6,140.7 462.5,134.3 459.9,128.7 L459.9,128.7 Z M232.8,133.1 L233.1,137.1 L231.3,136.5 L230.1,136.5 L229.6,135.5 L228.6,135.3 L228.6,139 L229.6,139.8 L230.4,140.6 L232.1,140.8 L232.4,142.8 L236.6,143 L237.1,143.8 L239.6,144 L244.4,148.9 L244.1,150.4 L243.3,150.9 C243.6,152.1 241.1,151.4 241.1,151.4 L241.1,152.4 L242.3,152.6 L243.5,153.3 L245.2,150.4 C247,149.2 247.9,150.9 248,151.9 C248.2,152.9 247.2,152.7 247.2,152.7 L247.2,155.1 L248.2,155.4 C249.9,157.4 247.5,158.6 247.5,158.6 L247,160.3 C246.5,161.8 244.7,161.5 244.7,161.5 L244,162.5 L242,163 L245.9,163.5 C246.3,162.1 247.3,161.8 247.8,162.5 C248.3,163.2 248.3,164.4 248.3,164.4 L249.3,164.6 L249.1,166.5 L250.1,166.8 L250.1,172.2 L251.3,173.5 C253.3,172.7 253.3,174 252.3,174.7 C251.3,175.4 252,178.4 252,178.4 L251.2,179.2 L251.2,180.6 L250.2,181.3 L250.2,183.2 C248.5,182.4 246.5,182.7 246,183.2 C244.5,182.2 241.3,182.5 241.3,183.4 C242.3,184.7 240.1,185.1 240.1,185.1 L238.9,186.4 C239.7,188.1 238.1,188.3 238.1,188.3 L238.1,191.5 L236.1,193.4 L236.2,196.4 C235.2,196.5 234.1,196.6 233.1,196.6 C225.3,196.6 218,193.8 212.2,188.7 C212.3,188.6 212.4,188.6 212.5,188.4 C213.3,187.1 214.7,186.9 214.7,186.9 L215.2,185.7 L219.7,185.9 C220,184 222.2,184.7 222.2,185.6 C222.2,186.4 223.9,185.8 223.9,185.8 L225.1,183.9 L226.9,183.9 L227.1,181.9 L227.9,181.4 L227.9,178.4 C230.6,177.6 230.2,175 230.2,175 L230.9,174.2 L230.6,173 C229.3,172.5 229.9,171.3 230.8,171.6 C231.6,171.9 229.6,170.1 229.6,170.1 C228.6,170.9 227.8,169.1 227.8,169.1 L225.3,169.1 L225.3,166.7 L225,164.5 L222.5,163.3 L220.7,165 L220.4,167.4 L220.4,168.9 L218.7,169.2 L218.4,173.8 L217.1,174.3 L217.3,176 L215.5,176.5 L213.7,177 L213,179 L211.7,179.8 L211,181.8 L210.2,186.6 C207.9,184.1 205.9,181.4 204.5,178.4 C204.8,177.2 204.8,176.1 204.8,176.1 C203.3,175.4 204.1,173.1 205.8,175.1 C207.5,177.1 204.8,171 204.8,171 L203.5,169.8 L201.8,169.6 C201.5,168 201.4,166.3 201.4,164.6 C201.4,163.9 201.4,163.2 201.5,162.5 C202,162 202.5,162.3 202.5,162.3 L203.5,163.1 L205,164.3 L205.2,165.3 L204.2,165.8 L204,167.2 L204.5,169.1 L205.8,169.1 C206.3,166.4 209.8,166.4 210.8,168.1 L211.8,165.7 C209.5,164.5 211.8,162.7 212.4,163.5 C213.1,164.3 214.6,161.3 214.6,161.3 C214.6,161.3 215.8,162.8 214.6,160.8 C213.4,158.8 215.4,157.8 215.4,157.8 C215.1,155.8 217.6,156.1 217.6,156.1 L217.8,153.4 L215.5,153.2 C215,155.6 213,153.5 214,153 C215,152.5 216,151.5 216,151.5 L216,150 L217,149.7 L217.2,148 L219.7,148 L221.9,147 L222.4,146.2 L224.7,146 L228,143 L227.7,141.7 C225.7,141.7 227.7,140.2 227.7,140.2 L228,137.7 L226.2,137.7 L225.9,134.1 C228.1,133.4 230.4,133.1 232.8,133.1 L232.8,133.1 Z M334,142.9 L333.8,144.2 L334.8,144.3 L335,142.9 L334,142.9 L334,142.9 Z M333.4,147.4 L332.9,148.4 L333.8,148.9 L334.3,147.9 L333.4,147.4 Z M160.9,154.1 C162.5,154 163.6,154.9 163.6,154.9 L165.9,154.7 C166.5,155.1 166.9,155.5 167.1,156 C166.9,157.6 166.7,159.1 166.7,160.7 C166.5,161.1 166.3,161.4 166.3,161.4 C166.1,161.7 166,162.2 165.9,162.7 L159.6,162.7 L159.6,162.6 L157.8,162.4 C155.8,161.2 156.8,156.8 156.8,156.8 C158.2,154.9 159.7,154.2 160.9,154.1 L160.9,154.1 Z M218.6,157.3 L218.3,158.1 L217.5,158.1 L217.3,159.5 L218.3,159.5 L218.5,160.5 L217.8,161.2 L217.5,162 L216.2,162.3 L213.2,165.2 L213,166.5 L212.2,167.7 L211.2,170.2 L207.7,170.4 L207,173.4 L207.5,175.9 L210.5,177.1 L210.8,175.4 L211.8,174.9 L212,173.2 L212.7,172 L213.7,170.8 L214,169.4 L215.7,168.4 L217.7,168.1 L218.5,167.1 L218.8,165.1 L218.9,163.6 L219.6,162.6 L221.6,161.8 L221.6,158.6 L220.6,158.6 L220.4,157.4 L218.6,157.3 L218.6,157.3 Z M322.9,158.3 L322.7,159.3 L324.5,159.6 L324.7,158.6 L322.9,158.3 Z M318.8,159.7 L318.3,160 L317.1,160.7 L316,160 L315.5,160.8 L316.8,161.6 L317.1,161.8 L317.3,161.7 L318.3,161.1 L318.4,161.4 L319.3,161 L319,160.2 L318.8,159.7 L318.8,159.7 Z M333.3,166.8 L360.2,166.8 C359.9,185.3 355.7,202.8 348.3,218.6 L348.3,218.6 C342.3,231.5 334.2,243.2 324.4,253.3 L323.7,252.6 C323.6,250.7 323.5,248.3 323.5,248.3 L322.7,247.5 L322.5,243.3 C323.2,241.1 319.3,237.9 319,238.6 C318.7,239.3 316.5,238.8 316.5,239.4 C316.5,240.1 315.2,243.4 315.8,244.6 C315.8,244.7 315.8,244.7 315.9,244.8 L305.4,234.3 C313.6,225.8 320,216.2 324.7,205.7 C330,193.5 333,180.4 333.3,166.8 L333.3,166.8 Z M364.2,166.8 L393.9,166.8 C393.6,191.1 387.9,214.1 377.9,234.7 L377.9,234.7 C370.3,250.4 360.2,264.7 348.2,277 L327.2,256 C337.5,245.4 345.7,233.4 351.8,220.4 L351.8,220.4 C359.6,203.8 363.9,185.6 364.2,166.8 L364.2,166.8 Z M306,166.8 L329.3,166.8 C329,179.9 326.1,192.4 321.1,203.7 C316.6,213.9 310.3,223.2 302.7,231.2 C302.4,227.8 301.6,224.1 301.6,224.1 L300.3,223.4 L300.6,219.3 L298.8,219.3 L295.8,223.2 L295.5,224.3 L293.8,222.6 L294.7,221.7 L294.5,219.7 L295.7,218.7 L295.7,217 L296.7,216.7 L296.9,213 L297.7,212.8 L297.7,204.7 L295.2,202.3 C295,203.1 292.4,203.1 292.4,203.1 C292.4,203.1 291.7,204.3 291.2,204.3 C290.7,204.3 291.9,205.8 291.5,206.8 C291.2,207.8 289.8,207.8 289.8,207.8 L287.3,208.5 L286.6,209.3 L284,209.3 L283.8,207.8 C284.1,207.5 284.3,207.1 284.6,206.8 L286.7,206.2 L288.4,205.4 L289.2,203.7 C289.4,202 291.4,202.2 291.4,202.2 C291.4,202.2 295.2,199 295.4,197.5 C295.6,196 296.9,191.8 299.2,191.8 L303.5,191.8 C305.2,191.1 304.7,188.9 304.7,188.9 L306.9,188.6 L307.2,189.8 C307.2,189.8 310.2,190.1 310.5,189.6 C310.8,189.1 311.5,187.9 312.3,188.4 C313.1,188.9 315.8,187.2 315.8,187.2 C316,186 320.1,186.5 320.1,186.5 L320.6,185 C320.6,185 317.8,181.1 317.3,181.1 C316.8,181.1 314.1,178.7 313.8,179.6 C311.1,178.9 311.3,175.2 311.3,175.2 L310.3,172.8 C310.3,171.4 307.8,168.6 307.3,168.9 C306.2,168.3 305.9,167.5 306,166.8 L306,166.8 Z M136.9,166.8 L148.6,166.8 L148.7,167.7 L146.2,170.4 L146.5,173.1 L145,173.6 L144.7,174.8 L144,178.3 L145.7,178.5 C146.5,178.2 146.4,180.7 145.7,181 C145,181.3 143.2,182 144.2,182.7 C145.2,183.4 141.5,183.2 141.5,182.2 C141.5,181.2 139.5,180.3 139,180.7 C138.7,180.9 138.3,180.4 138,179.9 C137.4,175.6 137,171.2 136.9,166.8 L136.9,166.8 Z M154.1,166.8 L154.9,166.8 C155.3,166.9 155.7,167.1 155.7,167.1 L158,167.3 L158.2,166.9 L166.1,166.9 L166.8,171.2 L164.6,173.1 C162.8,174.1 162.8,176.5 164.8,177 C166.1,177.2 165.6,180.4 163.6,178.2 C160.6,178.2 165.3,180.9 163.9,180.2 C166.9,181.7 166.2,178.9 166.2,178.9 L167.7,177.7 C168.3,181 169.2,184.3 170.3,187.4 L170.3,187.4 C173.4,196 178.2,203.8 184.5,210.6 L163.5,231.6 C162.1,230.2 160.8,228.7 159.6,227.2 C159.9,226.2 160.5,225.1 160.5,225.1 C162.7,223.7 160,221.6 160,221.6 C160.3,219.6 158.8,217.2 158.8,217.2 C155.8,215.2 156.6,211.3 156.6,211.3 L156.6,208.6 C154.1,206.2 157.6,205.9 157.6,205.9 C158.8,203.9 156.8,202.4 156.8,202.4 L156.6,200.2 L153.9,199.9 L153.6,192 L147.6,183.4 C146.4,183.1 147.3,181 147.3,181 C148.8,180.2 147,178.1 147,178.1 L146.8,174.4 L150.3,174.1 L151.1,172.8 L152.8,172.8 L152.6,168.4 C153.1,167.2 153.6,166.9 154.1,166.8 L154.1,166.8 Z M195.6,166.8 L197.5,166.8 C197.6,168 197.7,169.2 197.9,170.3 L196.9,170.6 L196.6,169.9 L196.1,171.8 L193.1,171.8 L192.9,169.8 L194.7,169.3 L195.4,168.3 L195.6,166.8 L195.6,166.8 Z M244.9,169.1 C244.6,169.1 244.3,169.3 244.1,169.9 L244.1,172.1 C244.1,172.1 246.4,175.8 247.3,176.3 C248.1,176.8 249.5,175.7 248.6,175.1 C246.1,173.4 246.3,171.2 245.6,169.7 C245.4,169.4 245.2,169.1 244.9,169.1 L244.9,169.1 Z M158,170.6 L158.2,171.8 L159,171.8 C160.3,174.2 159.2,179.9 159.2,179.9 C159.2,179.9 157.2,180.1 156.9,179.1 C156.6,178.1 155.7,181.3 156.4,181.8 C157.1,182.3 159.4,181.8 159.6,183.7 C159.8,185.6 161.1,182.5 161.1,182.5 L161.1,171 L158,170.6 L158,170.6 Z M237.9,174 L234.9,176.2 C236.4,176.4 236.6,177.9 236.7,178.6 C237.1,180.1 237,176.2 237.7,176.4 C238.4,176.5 237.9,174 237.9,174 L237.9,174 Z M171.4,175.3 C172.8,175.8 174.4,178.1 174.4,178.5 C174.4,179 181,178.7 181,178.7 C182.8,179.9 183.5,182.9 183.5,182.9 C185.3,180.5 189.2,182.7 186.3,184.1 C189,185.8 189,187.3 189,187.3 C191.2,186.6 191.2,188.3 191.2,188.8 C191.2,189.3 191.9,186.3 191.9,186.3 C189.4,184.4 195.2,183.8 193.6,187.1 L192.6,188.6 L194.3,189.9 L194.5,193.8 C198.2,193.5 197.2,188.9 197.2,188.9 L198.9,188.6 C198.9,187.1 200.1,187.9 200.1,187.9 C199.3,183.9 200.9,182.2 201.9,181.6 C203.2,184.1 204.8,186.4 206.7,188.5 L187.6,207.6 C181.7,201.3 177.3,194.1 174.4,186.2 C173,182.7 172.1,179.1 171.4,175.3 L171.4,175.3 Z M322,179.3 C320.6,179.2 318.9,180.2 319.4,180.9 C320.4,182.2 322.1,181.6 322.7,181.7 C323.4,181.9 324,182.2 323.4,180.2 C323.2,179.6 322.6,179.3 322,179.3 L322,179.3 Z M163.9,181.6 C163.5,181.6 163.2,181.9 163.2,182.3 L163.2,182.3 C163.2,182.7 163.5,183 163.9,183 C164.3,183 164.6,182.7 164.6,182.3 C164.7,182 164.3,181.6 163.9,181.6 L163.9,181.6 Z M162.1,183.9 L159.6,185.6 L157.9,184.6 L157.9,188.6 L160.6,192.1 L161.6,189.7 L161.9,188.2 L160.7,187.7 L160.9,185.2 L161.9,185 L162.1,183.9 L162.1,183.9 Z M223.6,188.1 L222.1,188.3 L222.3,190.7 L223.3,191.5 L225.1,192 C225.1,192 227.6,191.3 227.8,189.3 L224,189.1 L223.6,188.1 L223.6,188.1 Z M244.6,189.4 C246,189.4 245.7,192.8 245.6,193.9 C244.6,194.3 243.6,194.7 242.6,195 L242.6,191.3 L244.3,189.4 C244.4,189.4 244.5,189.4 244.6,189.4 L244.6,189.4 Z M209.4,191.4 C215.2,196.6 222.4,199.7 230.1,200.3 L230.1,200.4 C230.1,200.4 229.5,201.9 230.2,202.2 C230.9,202.4 230.7,202.6 231.1,203 L230.7,203.9 C230.1,203.1 229.7,204.5 230.1,204.9 C230.5,205.3 229.2,205 229.2,205.5 C229.2,206 228.8,206.3 229.2,206.5 C229.6,206.8 229.1,206.9 228.6,207.3 C228.1,207.7 230.7,207.8 230.7,207.8 C230.7,207.8 230.2,206.8 230.8,206.8 C230.9,206.8 231,206.8 231.1,206.8 L231.1,208.5 C230.9,208.4 230.7,208.4 230.4,208.3 L230.4,209.5 L229.1,209.7 L230.3,211 L231.2,211.1 L231.2,213.9 L231.2,214.1 C231.2,216.3 225.7,214.8 225.2,214.3 L225,217.3 L224,217.5 L224.2,219.5 L224,222.4 L225.8,222.1 L225.8,223.3 L230.3,223.5 L231.2,222.6 L231.2,225.7 L231.2,225.9 L228.2,226.2 L226.9,226.9 L226.4,225.9 L225.1,225.9 L224.3,227 C220.4,226.4 216.5,225.5 212.8,224.2 L212.8,224.2 C204.6,221.4 197,216.8 190.5,210.7 L209.4,191.4 L209.4,191.4 Z M50.9,193 C53.1,207.7 47.3,220.7 46,234.7 C44.9,246.2 46.9,257.4 51.4,267 C52.7,269.9 55.1,272.4 55.8,275.4 C51.5,271.5 48.4,266.6 45.5,261.8 C31.6,239.3 2.5,224.7 0.5,197.3 C-0.5,209.5 0.6,222.4 4.6,233.2 C10.2,248.2 21.1,259.8 33.6,269.6 C46.5,279.8 61.9,287.7 73.7,296.7 C71.4,290.8 67.6,285.4 66.1,279.3 C59,251.2 62.9,218.8 50.9,193 L50.9,193 Z M415.3,193 C403.3,218.8 407.2,251.2 400.3,279.1 C398.8,285.3 395,290.7 392.7,296.5 C404.5,287.5 419.9,279.6 432.8,269.4 C445.3,259.6 456.1,248 461.8,233 C465.9,222.2 466.9,209.3 465.9,197.1 C463.9,224.5 434.8,239.1 420.9,261.6 C417.9,266.4 414.9,271.4 410.6,275.2 C411.3,272.3 413.7,269.7 415,266.8 C419.5,257.1 421.5,246 420.4,234.5 C418.9,220.7 413,207.7 415.3,193 L415.3,193 Z M270.4,193.6 C270.8,193.6 271.1,193.8 271,194.4 C270.5,195.9 271,196.6 271,196.6 C273.2,194.6 275,196.8 274.8,197.3 C274.6,197.8 276,198.3 276.8,197.8 C277.6,197.3 278.6,199.3 278.3,200.3 C278,201.3 275,201.1 274.8,200.1 C274.6,199.1 274.1,199.4 273.8,199.9 C273.5,200.3 272.4,200.6 271.6,200.4 L270.9,199.7 C271,199.5 271.1,199.3 270.9,199.1 C270.7,198.9 270.4,198.9 270,198.9 L268.5,197.4 C268.5,196.4 268.8,195 268.7,194.6 C268.6,194.1 269.7,193.6 270.4,193.6 L270.4,193.6 Z M162.3,194.2 L161.1,194.4 L160.9,195.8 L162.2,196 L162.3,194.2 L162.3,194.2 Z M370.1,195.7 C369.4,195.7 368.6,196.1 368.1,196.4 L368.7,197.2 C369.3,196.8 370.2,196.6 370.3,196.7 C370.3,196.7 370.3,196.7 370.3,196.6 L371.3,196.4 C371.2,196.1 371.1,195.8 370.8,195.7 C370.5,195.7 370.3,195.7 370.1,195.7 L370.1,195.7 Z M162.8,197.4 C162.4,197.4 162.1,197.7 162.1,198.1 C162.1,198.5 162.4,198.8 162.8,198.8 C163.2,198.8 163.5,198.5 163.5,198.1 C163.5,197.7 163.1,197.4 162.8,197.4 Z M245.6,198.2 C245.6,198.6 245.8,199.1 245.8,199.1 L246.6,199.4 L245.1,200.6 L243.8,202.1 L242.1,201.6 L240.1,201.4 L239.4,200.2 L238.2,200 L238,202.4 L237.2,203.4 L235.2,205.4 C237.3,205.4 235.9,206.5 234.9,207 L234.9,200.2 C237,200.1 239.2,199.8 241.2,199.3 C241.4,199.5 241.5,199.6 241.5,199.6 L243,199.6 L243.1,198.8 C244.1,198.7 244.9,198.5 245.6,198.2 L245.6,198.2 Z M163.9,200.9 C163.5,200.9 163.2,201.2 163.2,201.6 L163.2,201.6 C163.2,202 163.5,202.3 163.9,202.3 C164.3,202.3 164.6,202 164.6,201.6 C164.6,201.2 164.3,200.9 163.9,200.9 L163.9,200.9 Z M226.7,201.4 C225.9,201.4 225.2,204 224.8,204.6 C224.8,204.6 225.2,206 225.9,205.9 C226.6,205.8 227.1,205.4 227.8,205.3 C228.4,205.2 228.7,204.2 228.9,203.1 C229.1,202.1 228.7,201.6 228.7,201.6 C228.7,201.6 228.1,202.6 227.1,201.6 C227,201.5 226.9,201.4 226.7,201.4 L226.7,201.4 Z M160.8,202.8 L159.4,203 L159.4,204.2 L160.8,204 L160.8,202.8 L160.8,202.8 Z M260.9,202.8 L262.1,202.8 L262.3,203.6 L267.4,204.1 L267.6,204.1 C269.6,205.3 268.6,206.8 267.9,207.1 C267.2,207.4 266.1,207.4 266.1,207.4 L265.8,208.1 L261.5,208.4 L261.2,210.1 C259,209.8 258.2,212.1 258.7,213.3 C259.2,214.5 258.7,215.5 258.7,215.5 L260.5,216.3 L262.8,215.6 C263.1,213.9 264.6,213.6 266,212.6 C267.3,211.6 269.5,214.5 268.8,215.8 C268.7,216 268.7,216.1 268.6,216.2 C266.1,217.9 263.4,219.5 260.6,220.9 L260.6,220.9 C256.2,223 251.6,224.7 246.7,225.7 C246.6,225.6 246.5,225.6 246.5,225.6 L244.7,225.1 L244.5,222.6 C244.2,220.9 241,220.9 241.2,222.1 C241.4,223.3 235.3,222.6 235.2,222.6 L235.2,218 L236.9,216.2 L240.7,215.4 C241,213.7 242.7,215.7 242.7,215.7 C244.4,215.5 244.7,216.7 244.7,216.7 L246.9,217 C248.7,217.5 247.6,217.7 247.7,218.4 C247.9,219.4 248.7,219.1 248.7,219.1 L249,216.9 L250,217.1 L249,215.9 L247.2,215.1 L245.2,214.3 C243.9,212.4 245.5,212.8 246.9,213 L249.1,213 C249.1,213 251.6,216.4 251.6,217.2 C251.6,218 252.8,218.2 252.8,218.2 L254.3,218 L254.8,219.2 L256.3,219.2 L256.8,220.2 L259.8,220.2 L260,218.7 L257.2,218.2 L257,216.5 L255,216 C254.3,213.1 255.5,212.3 256.3,213.6 L257.3,213.8 L257,211.3 L258.2,211 L257.9,207.5 L256.9,207.2 L256.9,206 L261.1,206.2 C260.4,203.8 260.9,202.8 260.9,202.8 L260.9,202.8 Z M381.2,210.5 L380.3,211 C380.4,211.2 380.4,211.5 380.5,211.7 C380.5,212 380.6,212.3 380.8,212.5 C381,212.6 381.2,212.7 381.5,212.6 L381.3,211.6 C381.4,211.6 381.5,211.7 381.5,211.8 C381.5,211.8 381.5,211.7 381.5,211.6 C381.4,211.3 381.4,210.9 381.2,210.5 L381.2,210.5 Z M380.2,212.4 L379.2,212.6 C379.5,213.6 379.8,214.6 379.8,214.7 L380.7,214.3 C380.8,214.3 380.4,213.3 380.2,212.4 L380.2,212.4 Z M302.2,213.4 L302.2,216.6 L303.4,216.6 L303.4,213.4 L302.2,213.4 Z M266.3,214.2 L265,215 L265.5,215.9 L266.8,215.1 L266.3,214.2 Z M374.6,216.5 C374.5,217.3 374.7,218.3 375.5,218.4 L375.7,217.4 L375.7,217.4 C375.6,217.3 375.5,216.9 375.6,216.5 L374.6,216.5 L374.6,216.5 Z M241.4,218.3 L241.4,220.3 L241.4,218.3 Z M374.1,218.4 C373.8,218.4 373.4,218.7 373,219 C372,219.6 372.4,222.2 373,221.5 C373.6,220.9 374.4,221.5 374.5,219.6 C374.6,218.6 374.4,218.4 374.1,218.4 L374.1,218.4 Z M270.7,219.7 L274.6,221.7 C275.1,222.4 277.3,222.2 277.3,222.2 L278,223 C278,223 279.3,222.8 280.2,223.8 C281,224.8 285.4,224 285.4,224 L286.6,225 L288.4,225.7 L291.5,225.8 L293.4,227.7 C290.4,229.1 284.3,228.6 283.9,228.2 C283.4,227.7 279.9,226.2 279.9,226.2 C279.9,226.2 277.2,224 276.7,224.7 C276.2,225.4 273.9,223.9 273.9,224.4 C273.9,224.9 271.7,223.2 271.7,223.2 L268.4,222 L270.9,221.5 L270.5,219.9 C270.5,219.8 270.6,219.8 270.7,219.7 L270.7,219.7 Z M246.7,220.2 L245.5,221.1 L246,221.6 L246.5,222.4 L247.7,220.5 L246.7,220.2 L246.7,220.2 Z M90.2,229.6 L90.2,231.3 L91.5,231.3 L91.5,233.5 L92.5,233.5 L92.3,231 L91,230.5 L91,229.7 L90.2,229.6 L90.2,229.6 Z M333,230.5 L332.9,232 L334.5,232.1 L334.6,230.7 L333,230.5 L333,230.5 Z M331.6,234 L331.3,235 C331.4,235 331.5,235.1 331.6,235.2 L331.8,236.1 C331.7,236.2 331.6,236.3 331.6,236.4 L332.3,237.1 C332.8,236.5 333,235.9 332.9,235.4 C332.7,234.4 331.8,234.1 331.6,234 L331.6,234 Z M302.6,237 L309.9,244.3 C309.6,245.5 308.4,246.2 307.8,245.8 C307.1,245.3 308.6,246.6 309,247.3 C309.3,248 310.3,248 310.7,247.3 C310.9,246.8 310.9,246 311,245.3 L314.4,248.7 C314,249.6 313.5,250.4 313.7,251 L313.7,251 L315.2,251.7 L315.4,254.6 C316.5,255.7 319,255.7 321,255.4 L321.7,256.1 C315.6,262.1 308.8,267.4 301.6,272 L301.6,270.4 C304.6,268.2 304.8,264.3 301.9,264 C299.8,263.7 300.7,261.5 302.7,261.1 L303.9,260.6 L303.9,259 L307.7,255.5 L307.7,252.8 L299.4,245.9 C297.7,245.3 297.6,243.2 298.2,241.2 C299.6,239.8 301.1,238.5 302.6,237 L302.6,237 Z M98.5,237.4 L99.7,240.4 L100.4,241.9 L101.7,243.8 L103.5,245.5 L104.2,244.3 L103,241.8 L101.8,241 L101,238.6 L98.5,237.4 L98.5,237.4 Z M66,239.8 C76.1,260 71.7,286 84.8,305 C88.9,311 94.6,316.7 99.9,321.4 L99.7,321.6 C94.9,319.4 90.6,316 86.2,312.4 C63.3,293.3 28.8,290.9 15.1,259.8 C18.8,282.6 36.9,302.8 56.5,315.6 C75.1,327.8 98.9,326.4 119.5,333.2 C100.4,317.8 97.5,294.7 89,274.5 C83.7,262.2 75.1,250.9 66,239.8 L66,239.8 Z M400.3,239.8 C391.1,250.8 382.5,262.1 377.2,274.7 C368.7,294.9 365.8,318 346.7,333.4 C367.3,326.6 391.2,327.9 409.7,315.8 C429.2,303 447.3,282.8 451.1,260 C437.4,291.1 402.9,293.5 380,312.6 C375.6,316.2 371.3,319.6 366.5,321.8 L366.3,321.6 C371.6,316.8 377.3,311.1 381.4,305.2 C394.5,286 390.2,260 400.3,239.8 L400.3,239.8 Z M139.5,247.1 C141,247.1 142.9,248.8 143.2,249.5 C143.3,249.9 143.8,250.4 144.3,250.8 L141.8,253.3 C140.3,251.7 138.8,250.1 137.3,248.4 L138,248.4 C138.3,247.5 138.9,247.1 139.5,247.1 L139.5,247.1 Z M238,256.5 C239,256.6 240.1,256.8 240.8,257.3 C242.6,258.6 245.1,257.8 245.1,257.8 L246.9,260 C243,260.6 239.1,260.9 235.1,261 L235.1,257 C235.7,256.6 236.8,256.4 238,256.5 Z M324.4,258.9 L345.4,279.9 C333.7,291.3 320.3,300.9 305.5,308.4 C284.3,319.1 260.4,325.4 235.1,325.7 L235.1,296 C247.2,295.8 259.1,294 270.4,290.6 L273.3,291.5 L274.1,294.2 L275.4,294 L276.4,293.2 L280.4,293 L282.4,291.1 L284.6,290.8 L300.3,277.5 C308.9,272.2 317,266 324.4,258.9 L324.4,258.9 Z M248.9,263.8 L249.2,264.6 L252,265.4 L254,265.9 L254.7,268.8 L256.2,269 L256.7,270.9 C258.5,272.2 256.2,275.1 256.2,275.1 L256.2,278.8 L257.5,279.5 L257.3,280.9 L259.5,283.1 L262,283.3 L266.1,287.7 C256.2,290.4 245.8,291.9 235,292.1 L235,265 C239.8,264.9 244.4,264.5 248.9,263.8 L248.9,263.8 Z M208.7,266.5 L207.7,267.3 L207.2,267.7 L207.7,268.1 L208.9,268.9 L209.5,268.1 L208.9,267.6 L209.4,267.2 L208.7,266.5 L208.7,266.5 Z M220.5,278.6 L220.1,279.5 L221.1,280 L220.8,280.3 L221.5,281 L222.3,280.2 L222.8,279.7 L222.2,279.4 L220.5,278.6 L220.5,278.6 Z M136.4,287.1 L137.7,289.1 L137.9,290.6 L139.6,291.1 L140.3,292.1 L141.5,291.4 L140.7,289.2 L138.5,287.3 L136.4,287.1 L136.4,287.1 Z M98.9,289 C111.4,305.8 114.9,330.2 137.7,338.7 C141.7,340.2 146.4,340.5 149.8,342.7 C145.4,343.4 141.6,342 137.5,341.1 C108.2,335 72.3,343 50.3,318 C58.6,334.4 75.8,347.3 92.4,352.7 C118,361.1 144.7,351.7 168.7,345.8 C172.2,344.9 176.4,345.2 179.6,344 C166.2,341.3 153.3,337.2 142.9,327.7 C128,314.1 114.9,299.6 98.9,289 L98.9,289 Z M367.3,289 C351.4,299.6 338.2,314.1 323.3,327.7 C312.9,337.2 300,341.2 286.6,344 C289.8,345.2 294,344.9 297.5,345.8 C321.6,351.8 348.2,361.2 373.8,352.7 C390.3,347.2 407.5,334.3 415.9,318 C393.9,343 358,335 328.7,341.2 C324.6,342.1 320.8,343.4 316.4,342.8 C319.9,340.6 324.5,340.3 328.5,338.8 C351.3,330.2 354.8,305.8 367.3,289 L367.3,289 Z M208.9,343.4 C186.4,343.4 166.2,354.3 146.5,362.5 C128.6,369.9 104.9,368.5 89,357.5 C96.8,367.3 107.3,373.4 118.2,377.5 C138.3,385.5 161.8,379.4 179,368.4 C191.3,360.5 201.9,349.3 216.6,349.3 C219.2,349.3 221.8,349.6 224.4,350.1 C203.8,358.4 185,372.9 170.4,386.9 C173.1,390 176.6,392.9 179.9,395.5 C196.2,378.6 214.7,360.4 233.2,352.8 C251.7,360.3 270.2,378.6 286.5,395.5 C289.8,392.8 293.3,390 296,386.9 C281.4,372.9 262.6,358.4 242,350.1 C244.6,349.6 247.2,349.3 249.8,349.3 C264.5,349.3 275.1,360.5 287.4,368.4 C304.5,379.3 328,385.5 348.2,377.5 C359,373.4 369.5,367.3 377.4,357.5 C361.6,368.4 337.8,369.9 319.9,362.5 C300.1,354.3 280,343.4 257.5,343.4 C249.3,343.4 241.2,344.8 233.3,347.2 C225.2,344.7 217.1,343.4 208.9,343.4 L208.9,343.4 Z"/>
</svg>
