<svg xmlns="http://www.w3.org/2000/svg" viewBox="0 0 186 142">
  <title>
    Group 5
  </title>
  <g fill="none" fill-rule="evenodd">
    <g transform="translate(40)">
      <path fill="#D8213B" d="M12.495,0 L93.112,0 C100.013,0 105.609,5.595 105.609,12.495 L105.609,67.828 C105.609,74.728 100.013,80.322 93.112,80.322 L12.495,80.322 C5.594,80.322 0,74.728 0,67.828 L0,12.495 C0,5.595 5.594,0 12.495,0"/>
      <path fill="#FFFFFE" d="M12.792,7.735 C10.249,7.735 8.181,9.804 8.181,12.346 L8.181,67.68 C8.181,70.221 10.249,72.289 12.792,72.289 L92.519,72.289 C95.06,72.289 97.128,70.221 97.128,67.68 L97.128,12.346 C97.128,9.804 95.06,7.735 92.519,7.735 L12.792,7.735 Z M92.519,73.777 L12.792,73.777 C9.429,73.777 6.694,71.04 6.694,67.68 L6.694,12.346 C6.694,8.983 9.429,6.247 12.792,6.247 L92.519,6.247 C95.88,6.247 98.617,8.983 98.617,12.346 L98.617,67.68 C98.617,71.04 95.88,73.777 92.519,73.777 L92.519,73.777 Z"/>
      <path fill="#FFFFFE" d="M46.556,48.342 L46.556,59.052 L58.753,59.052 L58.753,48.342 C58.753,45.262 56.023,42.765 52.655,42.765 C49.288,42.765 46.556,45.262 46.556,48.342 Z M64.107,52.804 L66.786,52.804 L66.786,46.259 L64.107,46.259 L64.107,52.804 Z M38.525,52.804 L41.201,52.804 L41.201,46.259 L38.525,46.259 L38.525,52.804 Z M75.711,54.887 L78.387,54.887 L78.387,46.259 L75.711,46.259 L75.711,54.887 Z M75.711,37.931 L78.387,37.931 L78.387,28.707 L75.711,28.707 L75.711,37.931 Z M26.922,54.887 L29.601,54.887 L29.601,46.259 L26.922,46.259 L26.922,54.887 Z M26.922,37.931 L29.601,37.931 L29.601,28.707 L26.922,28.707 L26.922,37.931 Z M17.701,15.618 L23.056,15.618 L23.056,20.378 L25.435,20.378 L25.435,15.618 L31.324,15.618 L31.355,20.378 L33.14,20.378 L33.199,15.618 L39.119,15.618 L39.119,23.71 L35.55,26.625 L35.579,37.632 L45.069,37.632 L45.04,34.092 L42.392,31.92 L42.361,23.353 L48.044,23.353 L48.044,27.518 L50.424,27.518 L50.424,23.353 L54.589,23.353 L54.589,27.548 L56.969,27.518 L56.969,23.353 L62.919,23.353 L62.919,31.117 L59.943,34.092 L59.943,37.603 L69.464,37.632 L69.464,26.596 L66.488,24.245 L66.488,15.618 L71.844,15.618 L71.844,20.378 L73.925,20.378 L73.925,15.618 L79.578,15.618 L79.607,20.378 L81.957,20.378 L81.957,15.618 L87.312,15.618 L87.342,24.245 L84.962,26.179 L84.933,51.912 L87.878,54.321 L87.908,63.216 L17.403,63.216 L17.403,54.292 L20.08,51.912 L20.08,26.03 L17.701,23.948 L17.701,15.618 L17.701,15.618 Z"/>
    </g>
    <g fill="#1A1919" transform="translate(0 93)">
      <path d="M15.612 11.818C15.612 16.766 12.689 19.175 7.793 19.175 2.871 19.175 0 16.791 0 11.818L0 .436 4.025.436 4.025 11.818C4.025 13.817 4.538 15.791 7.793 15.791 10.664 15.791 11.587 14.535 11.587 11.818L11.587.436 15.612.436 15.612 11.818M21.817 12.664C21.817 15.1 23.714 16.048 25.867 16.048 27.277 16.048 29.43 15.638 29.43 13.766 29.43 11.792 26.688 11.459 23.996 10.741 21.279 10.023 18.536 8.973 18.536 5.537 18.536 1.795 22.073 7.10542736e-15 25.38 7.10542736e-15 29.2 7.10542736e-15 32.711 1.666 32.711 5.896L28.815 5.896C28.687 3.691 27.123 3.128 25.201 3.128 23.919 3.128 22.432 3.666 22.432 5.204 22.432 6.614 23.304 6.793 27.892 7.973 29.225 8.306 33.327 9.152 33.327 13.305 33.327 16.663 30.686 19.175 25.713 19.175 21.663 19.175 17.869 17.176 17.92 12.664L21.817 12.664M47.453 11.664L52.195 11.664 49.888 4.947 49.837 4.947 47.453 11.664zM47.837.436L51.964.436 58.809 18.739 54.63 18.739 53.247 14.663 46.402 14.663 44.966 18.739 40.89 18.739 47.837.436 47.837.436zM60.016 5.486L63.476 5.486 63.476 7.947 63.528 7.947C64.194 6.281 65.989 5.127 67.757 5.127 68.014 5.127 68.321 5.179 68.552 5.256L68.552 8.639C68.219 8.562 67.68 8.511 67.245 8.511 64.579 8.511 63.656 10.434 63.656 12.767L63.656 18.739 60.016 18.739 60.016 5.486M70.091 5.486L73.526 5.486 73.526 7.28 73.577 7.28C74.526 5.922 75.91 5.127 77.627 5.127 79.294 5.127 80.781 5.742 81.498 7.332 82.267 6.178 83.652 5.127 85.498 5.127 88.317 5.127 90.342 6.435 90.342 9.869L90.342 18.739 86.702 18.739 86.702 11.228C86.702 9.459 86.548 7.998 84.472 7.998 82.421 7.998 82.037 9.69 82.037 11.356L82.037 18.739 78.396 18.739 78.396 11.305C78.396 9.768 78.499 7.998 76.192 7.998 75.474 7.998 73.731 8.46 73.731 11.049L73.731 18.739 70.091 18.739 70.091 5.486M99.751 20.405C98.957 22.533 97.701 23.404 95.189 23.404 94.445 23.404 93.702 23.353 92.959 23.276L92.959 20.277C93.651 20.328 94.369 20.432 95.086 20.405 96.342 20.277 96.752 18.97 96.342 17.919L91.677 5.486 95.574 5.486 98.573 14.56 98.623 14.56 101.521 5.486 105.289 5.486 99.751 20.405M126.234 6.588C125.978 4.769 124.235 3.384 122.235 3.384 118.621 3.384 117.262 6.46 117.262 9.664 117.262 12.715 118.621 15.791 122.235 15.791 124.696 15.791 126.081 14.1 126.388 11.689L130.285 11.689C129.875 16.253 126.721 19.175 122.235 19.175 116.57 19.175 113.238 14.945 113.238 9.664 113.238 4.23 116.57 7.10542736e-15 122.235 7.10542736e-15 126.259 7.10542736e-15 129.644 2.358 130.13 6.588L126.234 6.588M139.079 16.355C141.566 16.355 142.309 14.227 142.309 12.125 142.309 9.998 141.566 7.87 139.079 7.87 136.618 7.87 135.875 9.998 135.875 12.125 135.875 14.227 136.618 16.355 139.079 16.355zM139.079 5.127C143.257 5.127 145.949 7.895 145.949 12.125 145.949 16.33 143.257 19.098 139.079 19.098 134.926 19.098 132.234 16.33 132.234 12.125 132.234 7.895 134.926 5.127 139.079 5.127L139.079 5.127zM148.308 5.486L151.769 5.486 151.769 7.947 151.821 7.947C152.487 6.281 154.282 5.127 156.05 5.127 156.306 5.127 156.615 5.179 156.845 5.256L156.845 8.639C156.511 8.562 155.973 8.511 155.538 8.511 152.872 8.511 151.949 10.434 151.949 12.767L151.949 18.739 148.308 18.739 148.308 5.486M168.125 12.151C168.125 10.049 167.278 7.87 164.945 7.87 162.561 7.87 161.792 9.998 161.792 12.151 161.792 14.305 162.613 16.355 164.971 16.355 167.355 16.355 168.125 14.305 168.125 12.151zM158.281 5.486L161.741 5.486 161.741 7.178 161.792 7.178C162.664 5.767 164.099 5.127 165.74 5.127 169.893 5.127 171.764 8.485 171.764 12.254 171.764 15.791 169.816 19.098 165.945 19.098 164.356 19.098 162.843 18.406 161.972 17.099L161.92 17.099 161.92 23.404 158.281 23.404 158.281 5.486 158.281 5.486zM176.764 14.433C176.79 16.021 178.123 16.663 179.558 16.663 180.609 16.663 181.943 16.253 181.943 14.971 181.943 13.869 180.43 13.484 177.815 12.92 175.713 12.459 173.611 11.715 173.611 9.383 173.611 5.999 176.534 5.127 179.378 5.127 182.276 5.127 184.942 6.102 185.224 9.357L181.763 9.357C181.661 7.947 180.583 7.562 179.277 7.562 178.457 7.562 177.251 7.717 177.251 8.793 177.251 10.101 179.302 10.279 181.378 10.767 183.506 11.254 185.583 12.023 185.583 14.484 185.583 17.971 182.558 19.098 179.533 19.098 176.457 19.098 173.458 17.944 173.303 14.433L176.764 14.433"/>
      <g transform="translate(9 26)">
        <path d="M6.844 15.919C9.331 15.919 10.075 13.791 10.075 11.69 10.075 9.562 9.331 7.434 6.844 7.434 4.384 7.434 3.64 9.562 3.64 11.69 3.64 13.791 4.384 15.919 6.844 15.919zM6.844 4.691C11.023 4.691 13.715 7.459 13.715 11.69 13.715 15.893 11.023 18.662 6.844 18.662 2.692 18.662 0 15.893 0 11.69 0 7.459 2.692 4.691 6.844 4.691L6.844 4.691zM16.869 7.484L14.69 7.484 14.69 5.05 16.869 5.05 16.869 4.025C16.869 1.692 18.33-1.77635684e-15 21.304-1.77635684e-15 21.945-1.77635684e-15 22.611.076 23.226.102L23.226 2.819C22.791 2.768 22.355 2.742 21.893 2.742 20.92 2.742 20.509 3.152 20.509 4.255L20.509 5.05 23.021 5.05 23.021 7.484 20.509 7.484 20.509 18.303 16.869 18.303 16.869 7.484"/>
        <polyline points="32.123 0 45.812 0 45.812 3.383 36.148 3.383 36.148 7.306 45.017 7.306 45.017 10.433 36.148 10.433 36.148 14.919 46.017 14.919 46.017 18.303 32.123 18.303 32.123 0"/>
        <path d="M48.736 5.05L52.196 5.05 52.196 6.896 52.273 6.896C53.196 5.408 54.785 4.691 56.323 4.691 60.194 4.691 61.169 6.869 61.169 10.15L61.169 18.303 57.528 18.303 57.528 10.817C57.528 8.639 56.887 7.562 55.196 7.562 53.221 7.562 52.376 8.664 52.376 11.356L52.376 18.303 48.736 18.303 48.736 5.05M73.602 11.51C73.602 9.357 72.859 7.434 70.501 7.434 68.45 7.434 67.553 9.229 67.553 11.202 67.553 13.099 68.27 15.176 70.501 15.176 72.577 15.176 73.602 13.406 73.602 11.51zM77.063 17.457C77.063 19.636 76.294 23.327 70.193 23.327 67.578 23.327 64.528 22.097 64.348 19.072L67.963 19.072C68.296 20.431 69.398 20.892 70.68 20.892 72.705 20.892 73.628 19.508 73.602 17.61L73.602 15.867 73.551 15.867C72.757 17.252 71.167 17.918 69.578 17.918 65.604 17.918 63.912 14.894 63.912 11.253 63.912 7.818 65.887 4.691 69.603 4.691 71.346 4.691 72.679 5.28 73.551 6.818L73.602 6.818 73.602 5.05 77.063 5.05 77.063 17.457 77.063 17.457zM80.473 18.303L84.113 18.303 84.113 5.05 80.473 5.05 80.473 18.303zM80.473 2.999L84.113 2.999 84.113-1.77635684e-15 80.473-1.77635684e-15 80.473 2.999zM87.369 5.05L90.83 5.05 90.83 6.896 90.907 6.896C91.83 5.408 93.419 4.691 94.958 4.691 98.828 4.691 99.802 6.869 99.802 10.15L99.802 18.303 96.162 18.303 96.162 10.817C96.162 8.639 95.521 7.562 93.829 7.562 91.855 7.562 91.009 8.664 91.009 11.356L91.009 18.303 87.369 18.303 87.369 5.05M111.878 10.254C111.544 8.408 110.749 7.434 108.98 7.434 106.674 7.434 106.007 9.229 105.956 10.254L111.878 10.254zM105.956 12.561C106.058 14.867 107.186 15.919 109.212 15.919 110.673 15.919 111.851 15.022 112.083 14.201L115.287 14.201C114.261 17.328 112.083 18.662 109.083 18.662 104.905 18.662 102.315 15.791 102.315 11.69 102.315 7.716 105.058 4.691 109.083 4.691 113.594 4.691 115.774 8.484 115.517 12.561L105.956 12.561 105.956 12.561zM126.977 10.254C126.643 8.408 125.848 7.434 124.08 7.434 121.773 7.434 121.106 9.229 121.055 10.254L126.977 10.254zM121.055 12.561C121.158 14.867 122.286 15.919 124.311 15.919 125.772 15.919 126.951 15.022 127.182 14.201L130.386 14.201C129.361 17.328 127.182 18.662 124.182 18.662 120.005 18.662 117.415 15.791 117.415 11.69 117.415 7.716 120.158 4.691 124.182 4.691 128.694 4.691 130.874 8.484 130.617 12.561L121.055 12.561 121.055 12.561zM133.157 5.05L136.617 5.05 136.617 7.511 136.669 7.511C137.335 5.844 139.13 4.691 140.898 4.691 141.155 4.691 141.462 4.742 141.693 4.818L141.693 8.203C141.36 8.126 140.821 8.074 140.385 8.074 137.719 8.074 136.797 9.997 136.797 12.33L136.797 18.303 133.157 18.303 133.157 5.05M146.333 13.996C146.358 15.586 147.691 16.227 149.127 16.227 150.178 16.227 151.51 15.817 151.51 14.534 151.51 13.432 149.999 13.048 147.384 12.483 145.282 12.023 143.179 11.279 143.179 8.946 143.179 5.563 146.102 4.691 148.948 4.691 151.844 4.691 154.51 5.665 154.792 8.92L151.332 8.92C151.229 7.511 150.152 7.126 148.844 7.126 148.024 7.126 146.82 7.279 146.82 8.357 146.82 9.664 148.871 9.844 150.947 10.33 153.075 10.817 155.151 11.586 155.151 14.047 155.151 17.533 152.126 18.662 149.101 18.662 146.025 18.662 143.026 17.508 142.872 13.996L146.333 13.996M160.98 13.98L161.794 13.98C162.311 13.98 162.696 13.902 162.696 13.341 162.696 12.846 162.168 12.769 161.75 12.769L160.98 12.769 160.98 13.98zM160.067 12.054L161.805 12.054C162.961 12.054 163.609 12.417 163.609 13.418 163.609 14.266 163.081 14.595 162.399 14.65L163.632 16.663 162.675 16.663 161.552 14.694 160.98 14.694 160.98 16.663 160.067 16.663 160.067 12.054zM161.706 17.609C163.411 17.609 164.808 16.245 164.808 14.364 164.808 12.494 163.411 11.141 161.706 11.141 159.979 11.141 158.603 12.494 158.603 14.364 158.603 16.245 159.979 17.609 161.706 17.609zM161.706 10.261C163.939 10.261 165.93 11.867 165.93 14.364 165.93 16.872 163.939 18.49 161.706 18.49 159.472 18.49 157.481 16.872 157.481 14.364 157.481 11.867 159.472 10.261 161.706 10.261L161.706 10.261z"/>
      </g>
    </g>
  </g>
</svg>
